<svg width="36" height="44" viewBox="0 0 36 44" fill="none" xmlns="http://www.w3.org/2000/svg">
<mask id="mask0_252_931" style="mask-type:luminance" maskUnits="userSpaceOnUse" x="4" y="13" width="24" height="24">
<path d="M4.41113 13.6626H27.1445V36.3959H4.41113V13.6626Z" fill="white"/>
</mask>
<g mask="url(#mask0_252_931)">
<path d="M21.6297 36.3996H9.98977C6.91391 36.3996 4.44116 33.9268 4.44116 30.851V19.2112C4.44116 16.1353 6.91391 13.6626 9.98977 13.6626H21.5693C24.6452 13.6626 27.1179 16.1353 27.1179 19.2112V30.7907C27.1179 33.8666 24.6452 36.3393 21.5693 36.3393L21.6297 36.3996ZM9.98977 15.472C7.93925 15.472 6.25054 17.1607 6.25054 19.2112V30.7907C6.25054 32.8412 7.93925 34.53 9.98977 34.53H21.5693C23.62 34.53 25.3085 32.8412 25.3085 30.7907V19.2112C25.3085 17.1607 23.62 15.472 21.5693 15.472H9.98977Z" fill="#004BFF"/>
</g>
<path d="M15.8399 32.3587C11.8594 32.3587 8.66284 29.1623 8.66284 25.1818C8.66284 21.2012 11.8594 18.0049 15.8399 18.0049C19.8203 18.0049 23.0168 21.2012 23.0168 25.1818C23.0168 29.1623 19.8203 32.3587 15.8399 32.3587ZM15.8399 19.7538C12.8243 19.7538 10.412 22.1663 10.412 25.1818C10.412 28.1972 12.8243 30.6097 15.8399 30.6097C18.8554 30.6097 21.2677 28.1972 21.2677 25.1818C21.2677 22.1663 18.8554 19.7538 15.8399 19.7538Z" fill="#004BFF"/>
<path d="M15.84 28.4388C14.0306 28.4388 12.5833 26.9914 12.5833 25.1821C12.5833 23.3727 14.0306 21.9253 15.84 21.9253C17.6492 21.9253 19.0966 23.3727 19.0966 25.1821C19.0966 26.9914 17.6492 28.4388 15.84 28.4388ZM15.84 23.7347C15.056 23.7347 14.3925 24.398 14.3925 25.1821C14.3925 25.9661 15.056 26.6295 15.84 26.6295C16.6241 26.6295 17.2874 25.9661 17.2874 25.1821C17.2874 24.398 16.6241 23.7347 15.84 23.7347Z" fill="#004BFF"/>
<path d="M23.62 18.4274C23.62 18.4669 23.6179 18.5063 23.6141 18.5457C23.6103 18.5849 23.6044 18.624 23.5968 18.6627C23.5891 18.7014 23.5794 18.7398 23.5679 18.7774C23.5565 18.8153 23.5433 18.8524 23.5282 18.8889C23.5131 18.9255 23.4961 18.9611 23.4775 18.996C23.4589 19.0307 23.4386 19.0646 23.4167 19.0976C23.3947 19.1304 23.3712 19.162 23.3461 19.1925C23.3211 19.2231 23.2945 19.2524 23.2667 19.2802C23.2388 19.3082 23.2094 19.3347 23.1789 19.3597C23.1483 19.3849 23.1167 19.4083 23.0839 19.4302C23.0511 19.4523 23.0172 19.4726 22.9823 19.4912C22.9474 19.5097 22.9119 19.5266 22.8754 19.5419C22.8388 19.557 22.8016 19.5702 22.7639 19.5816C22.7261 19.5931 22.6877 19.6026 22.649 19.6104C22.6103 19.6181 22.5712 19.624 22.532 19.6278C22.4926 19.6316 22.4532 19.6335 22.4138 19.6335C22.3742 19.6335 22.3348 19.6316 22.2955 19.6278C22.2561 19.624 22.2171 19.6181 22.1784 19.6104C22.1396 19.6026 22.1014 19.5931 22.0636 19.5816C22.0257 19.5702 21.9886 19.557 21.9521 19.5419C21.9157 19.5266 21.8799 19.5097 21.8452 19.4912C21.8103 19.4726 21.7764 19.4523 21.7436 19.4302C21.7108 19.4083 21.679 19.3849 21.6485 19.3597C21.6179 19.3347 21.5888 19.3082 21.5608 19.2802C21.5329 19.2524 21.5063 19.2231 21.4813 19.1925C21.4563 19.162 21.4327 19.1304 21.4108 19.0976C21.3888 19.0646 21.3686 19.0307 21.3499 18.996C21.3313 18.9611 21.3145 18.9255 21.2994 18.8889C21.2843 18.8524 21.2709 18.8153 21.2594 18.7774C21.248 18.7398 21.2384 18.7014 21.2308 18.6627C21.223 18.624 21.2172 18.5849 21.2132 18.5457C21.2094 18.5063 21.2075 18.4669 21.2075 18.4274C21.2075 18.3879 21.2094 18.3484 21.2132 18.3092C21.2172 18.2698 21.223 18.2307 21.2308 18.192C21.2384 18.1533 21.248 18.1151 21.2594 18.0773C21.2709 18.0394 21.2843 18.0023 21.2994 17.9658C21.3145 17.9294 21.3313 17.8936 21.3499 17.8587C21.3686 17.824 21.3888 17.7901 21.4108 17.7573C21.4327 17.7243 21.4563 17.6927 21.4813 17.6622C21.5063 17.6316 21.5329 17.6024 21.5608 17.5745C21.5888 17.5465 21.6179 17.52 21.6485 17.495C21.679 17.47 21.7108 17.4464 21.7436 17.4245C21.7764 17.4024 21.8103 17.3823 21.8452 17.3636C21.8799 17.345 21.9157 17.3281 21.9521 17.313C21.9886 17.2979 22.0257 17.2846 22.0636 17.2731C22.1014 17.2616 22.1396 17.2521 22.1784 17.2443C22.2171 17.2366 22.2561 17.2309 22.2955 17.2269C22.3348 17.2231 22.3742 17.2212 22.4138 17.2212C22.4532 17.2212 22.4926 17.2231 22.532 17.2269C22.5712 17.2309 22.6103 17.2366 22.649 17.2443C22.6877 17.2521 22.7261 17.2616 22.7639 17.2731C22.8016 17.2846 22.8388 17.2979 22.8754 17.313C22.9119 17.3281 22.9474 17.345 22.9823 17.3636C23.0172 17.3823 23.0511 17.4024 23.0839 17.4245C23.1167 17.4464 23.1483 17.47 23.1789 17.495C23.2094 17.52 23.2388 17.5465 23.2667 17.5745C23.2945 17.6024 23.3211 17.6316 23.3461 17.6622C23.3712 17.6927 23.3947 17.7243 23.4167 17.7573C23.4386 17.7901 23.4589 17.824 23.4775 17.8587C23.4961 17.8936 23.5131 17.9294 23.5282 17.9658C23.5433 18.0023 23.5565 18.0394 23.5679 18.0773C23.5794 18.1151 23.5891 18.1533 23.5968 18.192C23.6044 18.2307 23.6103 18.2698 23.6141 18.3092C23.6179 18.3484 23.62 18.3879 23.62 18.4274Z" fill="#004BFF"/>
<mask id="mask1_252_931" style="mask-type:luminance" maskUnits="userSpaceOnUse" x="19" y="8" width="12" height="13">
<path d="M19.1111 8.3999H30.4V20.8888H19.1111V8.3999Z" fill="white"/>
</mask>
<g mask="url(#mask1_252_931)">
<mask id="mask2_252_931" style="mask-type:luminance" maskUnits="userSpaceOnUse" x="18" y="7" width="14" height="15">
<path d="M19.8702 7.6001L31.6037 9.37371L29.82 21.173L18.0867 19.3994L19.8702 7.6001Z" fill="white"/>
</mask>
<g mask="url(#mask2_252_931)">
<mask id="mask3_252_931" style="mask-type:luminance" maskUnits="userSpaceOnUse" x="18" y="7" width="14" height="15">
<path d="M19.8702 7.6001L31.6037 9.37371L29.82 21.173L18.0867 19.3994L19.8702 7.6001Z" fill="white"/>
</mask>
<g mask="url(#mask3_252_931)">
<mask id="mask4_252_931" style="mask-type:luminance" maskUnits="userSpaceOnUse" x="18" y="7" width="14" height="15">
<path d="M19.8702 7.6001L31.6037 9.37371L29.82 21.173L18.0867 19.3994L19.8702 7.6001Z" fill="white"/>
</mask>
<g mask="url(#mask4_252_931)">
<path d="M19.1737 13.3958C19.1578 13.4099 19.1423 13.4214 19.1296 13.4332C19.2079 13.2057 19.3029 12.9781 19.41 12.7606L19.4656 12.6481L19.1659 12.7375C19.2579 12.5479 19.3805 12.374 19.5307 12.2179L19.6222 12.1217L19.4894 12.1264C19.4286 12.1281 19.3697 12.1358 19.31 12.1488C19.3935 12.0514 19.4842 11.9606 19.5822 11.8764L19.702 11.7762L19.5472 11.7804C19.4725 11.7828 19.3989 11.7965 19.3295 11.8189C19.5218 11.6941 19.7057 11.5514 19.8701 11.392L19.9927 11.2731L19.6994 11.3195C19.8427 11.1184 20.0203 10.9445 20.2239 10.7993L20.3682 10.7002L20.192 10.7009C20.1508 10.7002 20.1116 10.7052 20.069 10.7127C20.1843 10.587 20.331 10.491 20.4939 10.4332L20.5838 10.4028L20.5135 10.3398C20.4696 10.303 20.4248 10.2714 20.3765 10.2448C20.5366 10.1866 20.7157 10.1668 20.8944 10.1858L20.9756 10.1951L20.9515 10.1174C20.9444 10.0915 20.9343 10.0679 20.9213 10.0441C21.0024 10.1085 21.1133 10.1391 21.2286 10.1234C21.3491 10.1087 21.452 10.0472 21.5123 9.9573L21.4878 10.2287L21.5998 10.0889C21.6265 10.0571 21.6503 10.0278 21.6736 10.001L21.7135 9.95487C21.7737 9.88421 21.8371 9.81129 21.905 9.74445C21.9961 9.65105 22.0826 9.57067 22.1621 9.50018C22.3522 9.33369 22.5364 9.20747 22.7265 9.11528C22.8753 9.0415 23.0276 8.99844 23.1914 8.95174C23.2779 8.9264 23.367 8.90122 23.4541 8.87049C23.5788 8.82883 23.6996 8.77553 23.817 8.72726C23.9432 8.67501 24.0756 8.61789 24.2088 8.57483C24.3335 8.53317 24.4658 8.49549 24.5994 8.46615C24.7248 8.43837 24.8553 8.41129 24.9791 8.43004L24.9817 8.43039C25.1055 8.44914 25.2201 8.51042 25.3284 8.5764C25.4342 8.64185 25.5425 8.70765 25.6508 8.77362C25.6883 8.79844 25.7286 8.82379 25.7661 8.84879L25.781 8.85921L25.7975 8.85903C25.8057 8.86025 25.814 8.85869 25.8194 8.85956C25.8468 8.86094 25.8741 8.86233 25.9013 8.86372L25.9175 8.86615C26.1706 8.88508 26.4467 8.91581 26.7637 8.9665C26.7824 8.96928 26.8039 8.97258 26.8229 8.97553C26.9331 8.99219 27.0461 9.00921 27.1473 9.04931C27.2409 9.08542 27.3239 9.15574 27.3965 9.25747C27.451 9.33438 27.4987 9.41858 27.5439 9.50244C27.5567 9.5264 27.5696 9.55035 27.5826 9.57431L27.6437 9.67969C27.6911 9.76667 27.7411 9.854 27.7888 9.9382C27.8368 10.0224 27.8772 10.1 27.9105 10.171L27.917 10.183L27.9296 10.1905C27.9621 10.2118 27.9925 10.2302 28.0196 10.2509C28.1019 10.3073 28.1953 10.3627 28.3234 10.4259C28.4256 10.4771 28.5345 10.5212 28.642 10.5566C28.6788 10.5677 28.7158 10.5788 28.7498 10.5894C28.8289 10.6123 28.9031 10.6318 28.9723 10.6642C29.0494 10.7007 29.113 10.7543 29.1817 10.8087C29.2017 10.8227 29.2184 10.8389 29.2383 10.853C29.2873 10.8934 29.3428 10.9266 29.3956 10.9592C29.4408 10.988 29.4836 11.0139 29.523 11.0445C29.5996 11.1028 29.6744 11.1719 29.7491 11.2602C29.8798 11.4146 29.9873 11.5958 30.0932 11.7686L30.1043 11.7868C30.2076 11.9592 30.3197 12.1632 30.3487 12.3903C30.3635 12.5108 30.3614 12.6342 30.3564 12.7406C30.3503 12.8717 30.3416 13.0024 30.3361 13.1115C30.3196 13.384 30.2987 13.6311 30.2769 13.867C30.2652 13.9807 30.2519 14.1052 30.2178 14.221C30.1878 14.3292 30.1423 14.4297 30.0855 14.5504C29.9723 14.7889 29.8779 15.0139 29.7921 15.2347C29.7475 15.3488 29.705 15.4662 29.6651 15.5839C29.6592 15.605 29.651 15.6231 29.6451 15.6441C29.6309 15.6832 29.619 15.7254 29.6026 15.7615C29.593 15.7875 29.5779 15.8155 29.5618 15.8488L29.5583 15.8538L29.5574 15.8592C29.5512 15.883 29.5447 15.9068 29.5388 15.9278C29.4796 16.1196 29.4015 16.3085 29.3243 16.492C29.2557 16.6549 29.1861 16.8231 29.1302 16.9934C29.0682 17.1847 29.031 17.358 29.017 17.5236C29.0093 17.6104 29.0125 17.6988 29.021 17.7882C29.0234 17.8269 29.0307 17.8693 29.0369 17.9198C29.0383 17.9283 29.0394 17.9394 29.0435 17.9483C29.0446 17.9594 29.0487 17.9684 29.0475 17.9764C29.0472 17.979 29.0472 17.979 29.0468 17.9818L29.0461 18.0229L29.0855 18.0344C29.1013 18.0396 29.1171 18.0446 29.1328 18.0498L29.0684 18.1115L29.1548 18.1412C29.4295 18.2349 29.6777 18.3769 29.8944 18.5635C29.8944 18.5635 29.897 18.5641 29.8967 18.5667C29.8963 18.5695 29.8958 18.5721 29.8958 18.5721L29.7434 18.5436L29.8309 18.6557C29.9253 18.7773 30.0065 18.9134 30.0675 19.0573C30.0644 19.0596 30.0585 19.0615 30.0536 19.0578L29.8388 18.9127L29.8977 19.0701C29.9895 19.3177 30.0093 19.5873 29.9569 19.8434C29.956 19.8488 29.9529 19.851 29.9529 19.851C29.9503 19.8507 29.9444 19.8526 29.943 19.8441L29.8305 19.6236L29.8256 19.8373C29.8184 20.0672 29.7569 20.2917 29.648 20.4842C29.6446 20.4892 29.6388 20.4912 29.6361 20.4906C29.6248 20.4559 29.6163 20.4217 29.6085 20.382L29.5789 20.2318L29.5062 20.3665C29.4211 20.5297 29.2975 20.6733 29.1463 20.7823C29.1435 20.782 29.1435 20.782 29.1435 20.782C29.1387 20.7234 29.1392 20.6658 29.1477 20.6094L29.1671 20.4802L29.0619 20.5578C28.8239 20.7309 28.544 20.8344 28.2541 20.8592C28.2513 20.8589 28.2513 20.8589 28.2513 20.8589C28.2513 20.8589 28.2496 20.8531 28.2531 20.8481L28.3508 20.6924L28.226 20.7175C28.081 20.7479 27.9317 20.7528 27.7857 20.7361C27.7861 20.7335 27.7842 20.7278 27.7873 20.7254C27.8314 20.688 27.8684 20.6443 27.9031 20.5972L27.9668 20.5023L27.8526 20.5125C27.5817 20.5377 27.3055 20.4545 27.0947 20.2825C27.0925 20.2793 27.0934 20.2741 27.0937 20.2714L27.3147 20.2663L27.2345 20.1771C27.0904 20.0207 26.9876 19.8264 26.9343 19.6148C26.9375 19.6125 26.9401 19.613 26.9406 19.6102L27.2076 19.755L27.1468 19.6111C27.0517 19.3851 27.0109 19.1451 27.0281 18.9031C27.0312 18.9007 27.0397 18.8993 27.0394 18.9019C27.0493 18.909 27.0562 18.9182 27.0661 18.9254L27.1718 19.0266L27.1621 18.8903C27.1529 18.7514 27.1628 18.6127 27.189 18.4764L27.205 18.388L27.1182 18.4162C27.1093 18.4203 27.1074 18.4146 27.1052 18.4115C27.0772 18.3604 27.0557 18.3023 27.0401 18.2422L27.0109 18.125L26.9128 18.2642C26.9102 18.2637 26.9052 18.2602 26.9057 18.2576C26.8934 18.1925 26.8901 18.1233 26.8946 18.058L26.9043 17.9384L26.669 18.1118C26.669 18.1118 26.6663 18.1115 26.664 18.1083C26.6618 18.1052 26.6618 18.1052 26.6649 18.103L26.7953 17.7679L26.527 17.9226C26.5208 17.9271 26.518 17.9267 26.518 17.9267L26.5158 17.9236C26.567 17.8406 26.6022 17.7524 26.6244 17.6596L26.6592 17.5219L26.4718 17.6504C26.4718 17.6504 26.4687 17.6526 26.4664 17.6495C26.4642 17.6464 26.4642 17.6464 26.4645 17.6438C26.5 17.5556 26.5244 17.4658 26.5383 17.3743L26.5626 17.213L26.2454 17.5281C26.2392 17.5326 26.2338 17.5318 26.2338 17.5318C26.2338 17.5318 26.2338 17.5318 26.2343 17.5292L26.2854 17.1547L26.0758 17.4667C26.0736 17.4635 26.0685 17.4601 26.069 17.4575C26.0763 17.354 26.0873 17.2457 26.1057 17.1412L26.1409 16.9266L25.9348 17.1979C25.9348 17.1979 25.9317 17.2002 25.9291 17.1998C25.8838 17.0445 25.8559 16.8835 25.8447 16.7196L25.8315 16.5526L25.7439 16.696C25.7217 16.7339 25.6944 16.7684 25.6675 16.8L25.6645 16.8023C25.6618 16.8019 25.6595 16.7988 25.6576 16.7931L25.5432 16.3302L25.4765 16.3889C25.4416 16.4195 25.405 16.4441 25.3663 16.463L25.3637 16.4627C25.3649 16.3446 25.377 16.2281 25.3994 16.116L25.4272 15.9689L25.3111 16.0642C25.2673 16.0988 25.2208 16.133 25.1697 16.1611C25.1675 16.158 25.1678 16.1552 25.1684 16.1526L25.305 15.7031L24.9904 15.9278C24.9904 15.9278 24.9878 15.9273 24.9881 15.9247L24.9885 15.9219C25.0295 15.8155 25.06 15.7045 25.0824 15.5924L25.1065 15.4696L24.8331 15.6399C24.83 15.6422 24.83 15.6422 24.83 15.6422C24.83 15.6422 24.8277 15.6391 24.8284 15.6337L24.9658 15.1623L24.844 15.2401C24.7468 15.2997 24.6612 15.3748 24.5878 15.4599C24.5848 15.4622 24.5821 15.4618 24.5824 15.459L24.5302 15.0222L24.4508 15.2193C24.4156 15.3073 24.3906 15.3998 24.3741 15.4908C24.3741 15.4908 24.371 15.4931 24.3687 15.4899L24.1616 14.9858L24.1125 15.1102C24.0951 15.1517 24.0751 15.1927 24.0503 15.2302C24.0475 15.2297 24.0453 15.2266 24.0456 15.224L23.9473 14.7635L23.8581 15.0993C23.8574 15.1047 23.8546 15.1043 23.8546 15.1043C23.8546 15.1043 23.852 15.104 23.847 15.1004C23.706 15.0132 23.5987 14.8677 23.5578 14.7019L23.5286 14.5849L23.4005 14.7773C23.3979 14.7767 23.3979 14.7767 23.3982 14.7741C23.356 14.6715 23.3395 14.5618 23.3539 14.4484L23.3675 14.3405L23.1138 14.4891C23.1107 14.4915 23.1081 14.491 23.1053 14.4906L23.1718 14.0882L23.0885 14.1113C22.9246 14.158 22.7769 14.2429 22.6574 14.3597C22.6539 14.3646 22.6512 14.3642 22.6512 14.3642C22.6512 14.3642 22.6489 14.3611 22.6494 14.3585L22.669 13.9736L22.5744 14.053C22.4737 14.1366 22.3795 14.2325 22.2987 14.3302C22.2987 14.3302 22.2956 14.3325 22.2928 14.3321C22.2928 14.2413 22.2789 14.1512 22.2508 14.0644L22.2062 13.9229L22.1496 14.0601C22.1151 14.1429 22.0932 14.2332 22.0897 14.3288L22.0871 14.3285C22.0076 14.2531 21.9255 14.1774 21.8465 14.0997L21.6494 13.9102L21.6685 14.2212C21.6685 14.2212 21.6685 14.2212 21.6682 14.2238C21.4913 14.1201 21.3383 13.9842 21.2201 13.8207L21.1333 13.703L21.1105 13.98C21.1105 13.98 21.1105 13.98 21.1079 13.9797C21.0428 13.9368 20.9875 13.8846 20.9449 13.8203L20.8864 13.7344L20.8498 13.8307C20.8321 13.8748 20.8118 13.9184 20.7814 13.955C20.7814 13.955 20.7788 13.9547 20.7791 13.9519C20.7342 13.904 20.6958 13.8486 20.6689 13.7896L20.6333 13.7155L20.376 13.9983C20.3671 13.9474 20.3637 13.8974 20.3713 13.8464L20.385 13.7384L20.2914 13.7931C20.1197 13.8908 19.9592 14.0068 19.8135 14.1332L19.9685 13.7991L19.4001 14.1917L19.4598 13.7965L19.1829 14.0269C19.1829 14.0269 19.1833 14.0243 19.1807 14.0238C19.1876 13.8325 19.2168 13.6389 19.2645 13.4509L19.3093 13.2816L19.1737 13.3958Z" fill="white"/>
</g>
</g>
</g>
</g>
<mask id="mask5_252_931" style="mask-type:luminance" maskUnits="userSpaceOnUse" x="19" y="10" width="11" height="11">
<path d="M19.1111 10.7554H30V20.8887H19.1111V10.7554Z" fill="white"/>
</mask>
<g mask="url(#mask5_252_931)">
<mask id="mask6_252_931" style="mask-type:luminance" maskUnits="userSpaceOnUse" x="18" y="7" width="14" height="15">
<path d="M19.8702 7.6001L31.6037 9.37371L29.82 21.173L18.0867 19.3994L19.8702 7.6001Z" fill="white"/>
</mask>
<g mask="url(#mask6_252_931)">
<mask id="mask7_252_931" style="mask-type:luminance" maskUnits="userSpaceOnUse" x="18" y="7" width="14" height="15">
<path d="M19.8702 7.6001L31.6037 9.37371L29.82 21.173L18.0867 19.3994L19.8702 7.6001Z" fill="white"/>
</mask>
<g mask="url(#mask7_252_931)">
<mask id="mask8_252_931" style="mask-type:luminance" maskUnits="userSpaceOnUse" x="18" y="7" width="14" height="15">
<path d="M19.8702 7.6001L31.6037 9.37371L29.82 21.173L18.0867 19.3994L19.8702 7.6001Z" fill="white"/>
</mask>
<g mask="url(#mask8_252_931)">
<path d="M29.9479 19.8474C29.9472 19.8528 29.944 19.8551 29.944 19.8551C29.9413 19.8547 29.9355 19.8566 29.9342 19.8481L29.8894 19.7617C29.8666 19.7663 29.8416 19.7681 29.8166 19.7698L29.814 19.841C29.8069 20.0709 29.7454 20.2953 29.6366 20.4879C29.6329 20.4927 29.6272 20.4946 29.6246 20.4943C29.6133 20.4596 29.6046 20.4252 29.597 20.3856L29.5673 20.2354L29.4947 20.3702C29.4095 20.5332 29.2861 20.6768 29.1347 20.786C29.1321 20.7856 29.1321 20.7856 29.1321 20.7856C29.127 20.7271 29.1276 20.6695 29.1361 20.6129L29.1555 20.4839L29.0503 20.5615C28.8123 20.7344 28.5324 20.8379 28.2425 20.8629C28.2399 20.8623 28.2399 20.8623 28.2399 20.8623C28.2399 20.8623 28.238 20.8566 28.2414 20.8518L28.3394 20.696L28.2144 20.721C28.0696 20.7514 27.9203 20.7564 27.7741 20.7398C27.7744 20.7372 27.7727 20.7313 27.7756 20.729C27.8199 20.6917 27.8567 20.6478 27.8914 20.6007L27.9553 20.5059L27.8409 20.5162C27.5703 20.5412 27.2939 20.4582 27.0833 20.2861C27.0809 20.283 27.0817 20.2776 27.0822 20.275L27.3031 20.2698L27.223 20.1808C27.0788 20.0242 26.976 19.8299 26.9227 19.6184C26.9258 19.6162 26.9286 19.6165 26.9289 19.6139L27.196 19.7587L27.1352 19.6148C27.0401 19.3887 26.9993 19.1488 27.0166 18.9066C27.0197 18.9044 27.0281 18.903 27.0277 18.9056C27.0376 18.9125 27.0446 18.9219 27.0545 18.9288L27.1602 19.0301L27.1506 18.8939C27.1413 18.7551 27.1513 18.6163 27.1774 18.4801L27.1935 18.3917L27.1067 18.4198C27.0979 18.424 27.096 18.4183 27.0937 18.4151C27.0656 18.3641 27.044 18.3059 27.0284 18.2457L26.9994 18.1287L26.9128 18.2641C26.9102 18.2636 26.9052 18.2601 26.9057 18.2575C26.8934 18.1924 26.8901 18.1231 26.8946 18.0578L26.9043 17.9382L26.669 18.1117C26.669 18.1117 26.6663 18.1113 26.664 18.1082C26.6618 18.1051 26.6618 18.1051 26.6649 18.1028L26.7953 17.7677L26.527 17.9224C26.5208 17.9269 26.518 17.9266 26.518 17.9266L26.5157 17.9235C26.567 17.8405 26.6022 17.7523 26.6244 17.6594L26.6592 17.5217L26.4718 17.6502C26.4718 17.6502 26.4687 17.6525 26.4664 17.6493C26.4642 17.6462 26.4642 17.6462 26.4645 17.6436C26.5 17.5554 26.5244 17.4656 26.5383 17.3742L26.5626 17.2129L26.2454 17.528C26.2392 17.5325 26.2338 17.5316 26.2338 17.5316C26.2338 17.5316 26.2338 17.5316 26.2343 17.529L26.2854 17.1545L26.0758 17.4665C26.0736 17.4634 26.0685 17.4599 26.069 17.4573C26.0763 17.3538 26.0873 17.2455 26.1057 17.141L26.1409 16.9264L25.9348 17.1978C25.9348 17.1978 25.9317 17.2 25.9291 17.1997C25.8838 17.0443 25.8559 16.8834 25.8447 16.7195L25.8315 16.5525L25.7439 16.6959C25.7217 16.7337 25.6944 16.7683 25.6675 16.7998L25.6645 16.8021C25.6618 16.8018 25.6595 16.7986 25.6576 16.7929L25.5432 16.3301L25.4765 16.3887C25.4416 16.4193 25.405 16.4439 25.3663 16.4629L25.3637 16.4625C25.3649 16.3445 25.377 16.228 25.3994 16.1158L25.4272 15.9688L25.3111 16.0641C25.2673 16.0986 25.2208 16.1328 25.1697 16.161C25.1675 16.1578 25.1678 16.1551 25.1684 16.1525L25.305 15.703L24.9904 15.9276C24.9904 15.9276 24.9878 15.9271 24.9881 15.9245L24.9885 15.9217C25.0295 15.8153 25.06 15.7044 25.0824 15.5922L25.1065 15.4695L24.8331 15.6398C24.83 15.642 24.83 15.642 24.83 15.642C24.83 15.642 24.8277 15.6389 24.8284 15.6335L24.9657 15.1622L24.844 15.24C24.7468 15.2995 24.6612 15.3747 24.5878 15.4597C24.5848 15.462 24.5821 15.4617 24.5824 15.4589L24.5302 15.0221L24.4508 15.2191C24.4156 15.3071 24.3906 15.3997 24.3741 15.4906C24.3741 15.4906 24.371 15.4929 24.3687 15.4898L24.1616 14.9856L24.1125 15.1101C24.0951 15.1516 24.0751 15.1926 24.0503 15.2301C24.0475 15.2295 24.0453 15.2264 24.0456 15.2238L23.9473 14.7634L23.8581 15.0992C23.8574 15.1045 23.8546 15.1042 23.8546 15.1042C23.8546 15.1042 23.852 15.1038 23.847 15.1002C23.706 15.013 23.5987 14.8676 23.5578 14.7018L23.5286 14.5847L23.4005 14.7771C23.3979 14.7766 23.3979 14.7766 23.3982 14.774C23.356 14.6714 23.3395 14.5617 23.3539 14.4483L23.3675 14.3403L23.1138 14.4889C23.1107 14.4913 23.1081 14.4908 23.1053 14.4905L23.1718 14.088L23.0885 14.1111C22.9246 14.1578 22.7769 14.2427 22.6574 14.3596C22.6539 14.3644 22.6512 14.3641 22.6512 14.3641C22.6512 14.3641 22.6489 14.361 22.6494 14.3584L22.669 13.9735L22.5744 14.0528C22.4737 14.1365 22.3795 14.2323 22.2987 14.3301C22.2987 14.3301 22.2956 14.3323 22.2928 14.332C22.2928 14.2412 22.2789 14.1511 22.2508 14.0643L22.2062 13.9228L22.1496 14.0599C22.1151 14.1427 22.0932 14.233 22.0897 14.3287L22.0871 14.3283C22.0076 14.253 21.9255 14.1773 21.8465 14.0995L21.6494 13.9101L21.6685 14.221C21.6685 14.221 21.6685 14.221 21.6682 14.2236C21.4913 14.12 21.3383 13.9841 21.2201 13.8205L21.1333 13.7028L21.1105 13.9799C21.1105 13.9799 21.1105 13.9799 21.1079 13.9795C21.0428 13.9367 20.9875 13.8844 20.9449 13.8202L20.8864 13.7342L20.8498 13.8306C20.8321 13.8747 20.8118 13.9183 20.7814 13.9549C20.7814 13.9549 20.7788 13.9545 20.7791 13.9518C20.7342 13.9038 20.6958 13.8485 20.6689 13.7894L20.6333 13.7153L20.376 13.9981C20.3671 13.9472 20.3637 13.8972 20.3713 13.8462L20.385 13.7382L20.2914 13.7929C20.1197 13.8906 19.9592 14.0066 19.8135 14.133L19.9685 13.799L19.4001 14.1915L19.4598 13.7964L19.1829 14.0268C19.1829 14.0268 19.1833 14.0242 19.1807 14.0236C19.1876 13.8323 19.2168 13.6387 19.2645 13.4507L19.3093 13.2814L19.1737 13.3957C19.1578 13.4097 19.1423 13.4212 19.1296 13.433C19.2079 13.2056 19.3029 12.978 19.41 12.7604L19.4656 12.6479L19.1659 12.7373C19.2579 12.5478 19.3805 12.3738 19.5307 12.2177L19.6222 12.1216L19.4894 12.1262C19.4286 12.128 19.3697 12.1356 19.31 12.1486C19.3935 12.0512 19.4842 11.9604 19.5822 11.8762L19.702 11.7761L19.5472 11.7802C19.4725 11.7827 19.3989 11.7964 19.3295 11.8188C19.5218 11.6939 19.7057 11.5512 19.8701 11.3919L19.9251 11.337C19.9307 11.3186 19.9362 11.3 19.9395 11.2787L19.7 11.3167C19.8286 11.138 19.9824 10.9771 20.1619 10.8448C20.168 10.8594 20.1687 10.8733 20.1692 10.8872C20.146 10.9139 20.1223 10.9433 20.1043 10.9709C20.1079 10.9658 20.1109 10.9636 20.1145 10.9585C20.1215 10.9486 20.1399 10.9542 20.1378 10.9676C20.1315 10.9913 20.1336 11.0137 20.1303 11.0353C20.1276 11.054 20.122 11.0724 20.1192 11.0913C20.1095 11.1365 20.0923 11.178 20.0777 11.2198C20.052 11.2983 20.0314 11.3804 20.0189 11.4637C19.9934 11.6139 19.9895 11.7674 20.0052 11.9183C20.0225 12.0584 20.0598 12.1933 20.1088 12.3243C20.156 12.4497 20.2177 12.5691 20.2946 12.6797C20.3329 12.7349 20.3769 12.7912 20.4184 12.8441C20.4598 12.8971 20.4986 12.9497 20.5406 13C20.5456 13.0037 20.5385 13.0136 20.5336 13.0101C20.4979 12.9908 20.4623 12.9717 20.4298 12.9504C20.3977 12.9262 20.3682 12.9025 20.3418 12.8766C20.2838 12.8238 20.2354 12.7615 20.1897 12.6995C20.1079 12.5854 20.0381 12.465 19.9864 12.3334C20.0303 12.571 20.08 12.8068 20.2227 13.0097C20.3475 13.1854 20.5284 13.3172 20.7289 13.3915C21.1663 13.5566 21.6449 13.5217 22.1005 13.5658C22.1277 13.5672 22.152 13.5709 22.1789 13.575C22.1628 13.5726 22.147 13.5674 22.134 13.5627C22.1237 13.5584 22.1111 13.5509 22.1003 13.5493C22.076 13.5457 22.0529 13.5531 22.0286 13.5495C21.9722 13.541 21.9164 13.5271 21.8631 13.5162C21.8097 13.5054 21.7559 13.4972 21.7029 13.4837C21.5993 13.4599 21.4932 13.4328 21.3904 13.4035C21.3401 13.3905 21.2909 13.3693 21.2383 13.353C21.1859 13.3368 21.1336 13.3179 21.0819 13.2964C21.0328 13.2752 20.9876 13.2464 20.939 13.2226C20.893 13.1992 20.8496 13.1761 20.8076 13.145C20.7953 13.1349 20.8067 13.1146 20.822 13.1224C20.8711 13.1436 20.9201 13.1648 20.9692 13.186C21.021 13.2075 21.0741 13.221 21.1265 13.2372C21.176 13.2556 21.2286 13.2719 21.2817 13.2853C21.3319 13.2985 21.3857 13.3066 21.4364 13.317C21.4899 13.3278 21.546 13.3391 21.5998 13.3472C21.7078 13.3608 21.8123 13.3794 21.9211 13.3875C21.9781 13.3934 22.0383 13.3943 22.0932 13.4136C22.1194 13.4229 22.1421 13.4181 22.1694 13.4195C22.1967 13.4209 22.2241 13.4222 22.251 13.4264C22.6494 13.4839 23.0378 13.5728 23.4156 13.7123C23.7805 13.8472 24.1315 14.0186 24.4578 14.2275C24.7843 14.4335 25.0828 14.6794 25.3611 14.9497C25.5001 15.0861 25.6355 15.2276 25.7583 15.3809C25.7883 15.4184 25.8157 15.4556 25.8458 15.4931C25.8755 15.5334 25.8972 15.5724 25.921 15.6144C25.9746 15.6969 26.0194 15.7834 26.0697 15.8679C26.0739 15.8769 26.0644 15.8865 26.0574 15.8771C26.0274 15.8396 25.9977 15.7993 25.9618 15.7637C25.9282 15.7311 25.8977 15.6962 25.8668 15.6641C25.8503 15.6452 25.8277 15.6306 25.8114 15.6117C25.7946 15.5953 25.7786 15.5738 25.7618 15.5575C25.6986 15.4846 25.6343 15.4172 25.568 15.3467C25.4376 15.2087 25.3008 15.0754 25.1572 14.9518C24.8668 14.7071 24.556 14.487 24.2298 14.2974C23.8984 14.1044 23.5458 13.9438 23.1815 13.8228C23.0454 13.7775 22.9111 13.7379 22.7762 13.7011C23.1447 13.8117 23.4998 13.9754 23.831 14.1684C24.3798 14.4879 24.8814 14.9019 25.3402 15.3426C25.6767 15.6656 25.9637 16.061 26.3637 16.3084C26.5574 16.4285 26.7819 16.5091 27.0083 16.4498C27.2203 16.3939 27.3532 16.2242 27.443 16.0316C27.6222 15.6462 27.6979 15.1462 27.6539 14.7271C27.6409 14.6123 27.6156 14.5068 27.5819 14.4026C27.6194 14.5733 27.6368 14.7492 27.6265 14.9264C27.6164 15.1202 27.5765 15.312 27.4973 15.4898C27.4185 15.665 27.3027 15.8123 27.1552 15.933C27.1489 15.9377 27.1421 15.9283 27.1456 15.9233C27.2697 15.7578 27.3625 15.5629 27.4248 15.3688C27.4784 15.1955 27.5133 15.0193 27.5159 14.8382C27.519 14.6544 27.4894 14.4684 27.4449 14.2886C27.4065 14.1424 27.3484 13.999 27.2842 13.8599C27.0927 13.5972 26.8649 13.3566 26.6824 13.0898C26.4659 12.7738 26.2678 12.4469 26.0876 12.1089C25.9975 11.9413 25.8984 11.7778 25.8046 11.6151C25.9581 12.0014 26.1383 12.375 26.3451 12.7363C26.4559 12.9318 26.5755 13.1231 26.7013 13.3099C26.7642 13.4045 26.83 13.4971 26.8961 13.5868C26.9597 13.6762 27.0286 13.7663 27.077 13.8644C27.0835 13.8764 27.0685 13.8851 27.0585 13.8781C26.9602 13.8 26.8795 13.6971 26.8038 13.5976C26.7256 13.495 26.6503 13.3929 26.5758 13.2854C26.3182 12.9137 26.0902 12.5108 25.905 12.0978C25.8125 11.8913 25.7288 11.6808 25.6565 11.4663C25.622 11.3676 25.5901 11.2693 25.5585 11.1683C25.5151 11.1094 25.4656 11.0552 25.4093 11.0082C25.3776 10.9814 25.342 10.9623 25.3095 10.9408C25.2946 10.9304 25.2831 10.915 25.2704 10.9075C25.2529 10.8966 25.2357 10.883 25.2177 10.8748C25.1901 10.8568 25.1888 10.8099 25.2282 10.8049C25.2532 10.8031 25.276 10.7983 25.3024 10.8051C25.3236 10.811 25.3432 10.8085 25.3616 10.8141C25.3748 10.8188 25.3904 10.8238 25.4031 10.8313C25.4039 10.8259 25.4074 10.821 25.4159 10.8195C25.4295 10.8023 25.4595 10.804 25.4836 10.8077C25.4842 10.8051 25.4871 10.8028 25.4871 10.8028C25.5046 10.778 25.5494 10.7736 25.5579 10.808C25.5602 10.8111 25.5593 10.8165 25.5618 10.8195C25.601 10.8144 25.6322 10.8439 25.6404 10.8809C25.6524 10.9295 25.6751 10.9797 25.6923 11.029C25.8298 11.4485 26.1156 11.7969 26.421 12.1071C26.7427 12.4361 27.0984 12.7401 27.3973 13.0934C27.5444 13.2669 27.6756 13.4544 27.7798 13.6571C27.9057 13.899 27.9781 14.1656 28.0086 14.437C28.073 15.0488 27.9293 15.654 27.8571 16.2591C27.7899 16.8127 27.7824 17.4082 28.0616 17.9097C28.0809 17.9457 28.0607 18.0058 28.0276 18.0255C27.8706 18.1174 27.7265 18.233 27.6038 18.3712C27.544 18.4391 27.4861 18.5129 27.4359 18.5905C27.389 18.6632 27.3322 18.7481 27.3138 18.8334C27.2967 18.9104 27.3408 18.9832 27.3744 19.0514C27.4104 19.1229 27.4468 19.1917 27.4885 19.2611C27.5744 19.4035 27.669 19.5415 27.7796 19.6655C27.9654 19.875 28.1979 20.0476 28.4623 20.1372C28.4572 20.1335 28.4496 20.1297 28.4442 20.1288C28.355 20.0823 28.2642 20.0275 28.1855 19.966C28.0307 19.8436 27.8968 19.6913 27.7835 19.5313C27.7244 19.4481 27.6762 19.3665 27.6324 19.2747C27.5907 19.186 27.5522 19.0948 27.5503 18.9983C27.5489 18.9898 27.5609 18.9834 27.568 18.99C27.5977 19.0302 27.6213 19.075 27.6451 19.1172C27.6713 19.1623 27.6918 19.2094 27.721 19.2523C27.78 19.3354 27.8305 19.4202 27.893 19.4983C27.9508 19.5703 28.0126 19.6347 28.081 19.6917C28.1496 19.7488 28.2241 19.8014 28.2987 19.8538C28.4533 19.9597 28.6333 20.0611 28.8206 20.0785C28.994 20.0966 29.175 20.0276 29.3083 19.9103C29.4451 19.7879 29.5081 19.6077 29.5534 19.4358C29.5585 19.4202 29.5812 19.4153 29.5869 19.4327C29.6663 19.6537 29.552 19.9004 29.3906 20.0575C29.4119 20.0441 29.4305 20.0304 29.4491 20.0169C29.5083 19.9707 29.5633 19.9158 29.6107 19.857C29.6194 19.8363 29.6303 19.8188 29.639 19.7979C29.6628 19.7493 29.6817 19.6972 29.7006 19.6452C29.7357 19.5405 29.7546 19.4332 29.7628 19.3245C29.7633 19.3026 29.767 19.2783 29.7649 19.2561C29.7666 19.2261 29.7762 19.2 29.7783 19.1674C29.7803 19.1538 29.7796 19.1401 29.7845 19.1271C29.7892 19.1141 29.7935 19.1037 29.796 19.0875C29.8003 19.058 29.7994 19.0276 29.7958 18.9967C29.7967 18.9913 29.8024 18.9896 29.8043 18.9953C29.8114 19.0212 29.8213 19.0474 29.831 19.0736C29.8348 19.0851 29.8385 19.0967 29.8449 19.1087C29.8513 19.1207 29.8586 19.1273 29.8625 19.1389C29.8699 19.162 29.8744 19.1873 29.8819 19.2104C29.8829 19.2217 29.8843 19.2302 29.8855 19.2413C29.9034 19.2495 29.9177 19.2655 29.9248 19.2912C29.9487 19.4049 29.9456 19.5172 29.9208 19.6261C29.9408 19.6401 29.9541 19.6615 29.9607 19.69C29.9656 19.7127 29.9677 19.7349 29.9694 19.7599C29.9581 19.7802 29.9527 19.8151 29.9479 19.8474Z" fill="#9AA7AF"/>
</g>
</g>
</g>
</g>
<mask id="mask9_252_931" style="mask-type:luminance" maskUnits="userSpaceOnUse" x="24" y="9" width="1" height="1">
<path d="M24.311 9.91113H24.3555V9.95558H24.311V9.91113Z" fill="white"/>
</mask>
<g mask="url(#mask9_252_931)">
<mask id="mask10_252_931" style="mask-type:luminance" maskUnits="userSpaceOnUse" x="18" y="7" width="14" height="15">
<path d="M19.8702 7.6001L31.6037 9.37371L29.82 21.173L18.0867 19.3994L19.8702 7.6001Z" fill="white"/>
</mask>
<g mask="url(#mask10_252_931)">
<mask id="mask11_252_931" style="mask-type:luminance" maskUnits="userSpaceOnUse" x="18" y="7" width="14" height="15">
<path d="M19.8702 7.6001L31.6037 9.37371L29.82 21.173L18.0867 19.3994L19.8702 7.6001Z" fill="white"/>
</mask>
<g mask="url(#mask11_252_931)">
<mask id="mask12_252_931" style="mask-type:luminance" maskUnits="userSpaceOnUse" x="18" y="7" width="14" height="15">
<path d="M19.8702 7.6001L31.6037 9.37371L29.82 21.173L18.0867 19.3994L19.8702 7.6001Z" fill="white"/>
</mask>
<g mask="url(#mask12_252_931)">
<path d="M24.3486 9.94336C24.3509 9.94666 24.3509 9.94666 24.3486 9.94336Z" fill="#DD1212"/>
</g>
</g>
</g>
</g>
<mask id="mask13_252_931" style="mask-type:luminance" maskUnits="userSpaceOnUse" x="23" y="10" width="1" height="1">
<path d="M23.7778 10.1333H23.8667V10.1777H23.7778V10.1333Z" fill="white"/>
</mask>
<g mask="url(#mask13_252_931)">
<mask id="mask14_252_931" style="mask-type:luminance" maskUnits="userSpaceOnUse" x="18" y="7" width="14" height="15">
<path d="M19.8702 7.6001L31.6037 9.37371L29.82 21.173L18.0867 19.3994L19.8702 7.6001Z" fill="white"/>
</mask>
<g mask="url(#mask14_252_931)">
<mask id="mask15_252_931" style="mask-type:luminance" maskUnits="userSpaceOnUse" x="18" y="7" width="14" height="15">
<path d="M19.8702 7.6001L31.6037 9.37371L29.82 21.173L18.0867 19.3994L19.8702 7.6001Z" fill="white"/>
</mask>
<g mask="url(#mask15_252_931)">
<mask id="mask16_252_931" style="mask-type:luminance" maskUnits="userSpaceOnUse" x="18" y="7" width="14" height="15">
<path d="M19.8702 7.6001L31.6037 9.37371L29.82 21.173L18.0867 19.3994L19.8702 7.6001Z" fill="white"/>
</mask>
<g mask="url(#mask16_252_931)">
<path d="M23.8215 10.1357C23.8239 10.139 23.8239 10.139 23.8215 10.1357Z" fill="#DD1212"/>
</g>
</g>
</g>
</g>
<mask id="mask17_252_931" style="mask-type:luminance" maskUnits="userSpaceOnUse" x="21" y="8" width="10" height="11">
<path d="M21.7334 8.44434H30.4001V18.0443H21.7334V8.44434Z" fill="white"/>
</mask>
<g mask="url(#mask17_252_931)">
<mask id="mask18_252_931" style="mask-type:luminance" maskUnits="userSpaceOnUse" x="18" y="7" width="14" height="15">
<path d="M19.8702 7.6001L31.6037 9.37371L29.82 21.173L18.0867 19.3994L19.8702 7.6001Z" fill="white"/>
</mask>
<g mask="url(#mask18_252_931)">
<mask id="mask19_252_931" style="mask-type:luminance" maskUnits="userSpaceOnUse" x="18" y="7" width="14" height="15">
<path d="M19.8702 7.6001L31.6037 9.37371L29.82 21.173L18.0867 19.3994L19.8702 7.6001Z" fill="white"/>
</mask>
<g mask="url(#mask19_252_931)">
<mask id="mask20_252_931" style="mask-type:luminance" maskUnits="userSpaceOnUse" x="18" y="7" width="14" height="15">
<path d="M19.8702 7.6001L31.6037 9.37371L29.82 21.173L18.0867 19.3994L19.8702 7.6001Z" fill="white"/>
</mask>
<g mask="url(#mask20_252_931)">
<path d="M30.3341 13.2516C30.3877 12.8967 30.4018 12.5304 30.295 12.1816C30.2414 12.0085 30.1537 11.8412 30.0313 11.7045C30.015 11.6856 29.9947 11.6741 29.9735 11.6682C29.9042 11.545 29.8258 11.4259 29.7351 11.316C29.6006 11.1498 29.4417 10.9995 29.2673 10.8795C29.1773 10.8193 29.0867 10.7642 28.9893 10.7165C28.8815 10.6644 28.7692 10.6255 28.6572 10.5839C28.5289 10.5398 28.4013 10.4929 28.2857 10.4205C28.2251 10.3839 28.1702 10.3287 28.1027 10.3021C28.0428 10.2792 27.9739 10.2799 27.9199 10.3101C27.9157 10.3012 27.9115 10.2924 27.9068 10.2861C27.8259 10.1116 27.7397 9.93647 27.6529 9.7639C27.6086 9.67467 27.564 9.58821 27.5166 9.50123C27.5041 9.47467 27.4888 9.44758 27.4763 9.42085C27.4685 9.40053 27.4601 9.38265 27.4515 9.36772C27.4306 9.32328 27.4032 9.28612 27.3726 9.25123C27.3726 9.25123 27.3726 9.25123 27.3704 9.2481C27.3056 9.16685 27.2237 9.10783 27.1279 9.06859C27.0789 9.04741 27.0285 9.03421 26.9782 9.02119C26.9279 9.008 26.8681 8.98526 26.8183 9.00522C26.8035 9.0113 26.7912 9.02033 26.7838 9.033C26.7461 9.02727 26.7084 9.02154 26.6713 9.01321C26.556 8.99307 26.4388 8.96703 26.3244 8.94151C26.1884 8.91269 26.0489 8.8889 25.9095 8.90088C25.8818 8.9021 25.8601 8.91807 25.8435 8.93751C25.819 8.91737 25.7945 8.89724 25.77 8.87692C25.6989 8.81946 25.62 8.77727 25.5376 8.74012C25.5299 8.7363 25.5223 8.7323 25.5145 8.72849C25.5105 8.71946 25.5058 8.71338 25.499 8.70401C25.4749 8.68109 25.4575 8.65105 25.4303 8.63039C25.4004 8.60939 25.3645 8.59289 25.3343 8.57467C25.2725 8.54602 25.2077 8.5198 25.1421 8.4988C25.0055 8.45626 24.8676 8.4573 24.7254 8.48803C24.5832 8.51894 24.4416 8.56338 24.3008 8.60262C24.1685 8.64046 24.0339 8.67501 23.9035 8.71859C23.7732 8.76217 23.6483 8.8231 23.519 8.87779C23.3959 8.92779 23.2699 8.96112 23.1414 8.99116C23.01 9.02345 22.8805 9.06164 22.7584 9.12293C22.6367 9.18161 22.5214 9.2521 22.4084 9.32588C22.2867 9.40366 22.1693 9.48769 22.0617 9.58144C22.0079 9.62814 21.9535 9.67779 21.9042 9.73074C21.8713 9.76703 21.8405 9.80644 21.8098 9.84585C21.7963 9.86303 21.7799 9.8797 21.7687 9.90001C21.7261 9.96234 21.8136 10.0389 21.8619 9.97467C21.8825 9.94758 21.9084 9.92119 21.9345 9.8948C21.9756 9.85991 22.0213 9.83092 22.0683 9.8106C22.069 9.82449 22.0673 9.83526 22.068 9.84897C22.0664 9.85974 22.0674 9.87102 22.0659 9.88178C22.0487 9.90383 22.0365 9.92953 22.0374 9.95991C22.0381 9.9738 22.0527 9.98699 22.066 9.98908C22.1202 9.99446 22.1622 9.95401 22.1983 9.91546C22.2339 9.8797 22.2669 9.84342 22.2976 9.80401C22.3143 9.78456 22.328 9.76737 22.3419 9.74741C22.3551 9.78803 22.3737 9.82918 22.3904 9.86477C22.407 9.90036 22.4263 9.93612 22.4487 9.9698C22.4662 10 22.4895 10.0283 22.524 10.0363L22.5263 10.0392C22.5331 10.0486 22.5466 10.0507 22.5558 10.0438C22.5621 10.0392 22.5683 10.0347 22.5718 10.0297C22.5869 10.021 22.597 10.0087 22.5997 9.98994C22.6002 9.98717 22.6037 9.9823 22.6041 9.97953C22.6131 9.95626 22.6195 9.93248 22.6263 9.90592C22.6355 9.86338 22.6445 9.82067 22.6537 9.77814L22.6542 9.77536C22.6641 9.78248 22.674 9.78942 22.6845 9.79376C22.7169 9.81512 22.7496 9.83664 22.7817 9.8606C22.811 9.88439 22.8437 9.90574 22.8726 9.93213C22.8872 9.94533 22.9016 9.95852 22.9166 9.96911C22.9338 9.98265 22.9522 9.98821 22.9702 9.99637C22.9798 10.0061 22.9921 10.0162 23.0074 10.024C23.0379 10.0396 23.0801 10.0158 23.0855 9.98092C23.0867 9.97276 23.0848 9.96703 23.086 9.95887C23.0862 9.97553 23.0872 9.95088 23.085 9.94776C23.0834 9.93925 23.0815 9.93352 23.0798 9.92779C23.0779 9.92189 23.0763 9.91355 23.0763 9.91355C23.0726 9.90192 23.0685 9.89307 23.0643 9.88421C23.1162 9.92224 23.1806 9.95123 23.2367 9.98178C23.247 9.98595 23.2542 9.99255 23.2647 9.99689C23.2669 10 23.2723 10.0009 23.2746 10.004C23.2772 10.0044 23.2822 10.0078 23.285 10.0082C23.3025 10.0191 23.3174 10.0297 23.3346 10.0432C23.3419 10.0498 23.3492 10.0564 23.3591 10.0634C23.3591 10.0634 23.3619 10.0639 23.3614 10.0665C23.3659 10.0728 23.3732 10.0794 23.3779 10.0856C23.385 10.0922 23.3923 10.0988 23.4027 10.103C23.4105 10.1235 23.4239 10.1448 23.441 10.1583C23.4709 10.1794 23.5079 10.1712 23.524 10.1379C23.5431 10.1023 23.5357 10.0599 23.5303 10.0233C23.524 9.9922 23.5207 9.95869 23.5148 9.92484C23.5143 9.91095 23.5108 9.89671 23.5107 9.88022C23.5183 9.88404 23.5287 9.88838 23.5358 9.89498C23.5386 9.89533 23.5383 9.8981 23.5383 9.8981C23.5431 9.90158 23.5459 9.90192 23.5508 9.90539C23.5586 9.90939 23.5657 9.91599 23.5707 9.91946C23.5857 9.93005 23.6029 9.94359 23.6178 9.95401C23.6522 9.98126 23.6839 10.008 23.7121 10.0398C23.7145 10.0429 23.7167 10.046 23.7216 10.0495C23.7216 10.0495 23.7263 10.0557 23.7289 10.0561C23.7358 10.0655 23.743 10.0721 23.7499 10.0813C23.764 10.0972 23.7817 10.108 23.8001 10.1136C23.8023 10.1167 23.8046 10.1198 23.8068 10.1229C23.8119 10.1264 23.8115 10.129 23.8141 10.1295C23.831 10.1458 23.8497 10.1486 23.8706 10.138C23.9042 10.1156 23.914 10.0703 23.9223 10.0332C23.9235 10.025 23.9247 10.017 23.9259 10.0089C23.9447 10.0309 23.9667 10.0481 23.9921 10.0629C23.9997 10.0669 24.0074 10.0707 24.015 10.0747C24.015 10.0747 24.015 10.0747 24.0178 10.075C24.02 10.0781 24.0254 10.079 24.0277 10.082C24.0299 10.0851 24.0327 10.0856 24.0322 10.0882L24.0346 10.0913C24.0391 10.0976 24.0437 10.1037 24.0482 10.1099C24.0506 10.113 24.0523 10.1188 24.0548 10.1219C24.0589 10.1307 24.0607 10.1365 24.0648 10.1453C24.0732 10.1632 24.0812 10.1835 24.0926 10.1991C24.0994 10.2083 24.107 10.2123 24.1174 10.2165C24.1239 10.2285 24.1397 10.2337 24.1534 10.233C24.1923 10.2307 24.2254 10.1945 24.249 10.1649C24.2662 10.1429 24.2864 10.1184 24.3035 10.0962C24.3046 10.1073 24.306 10.1158 24.307 10.1271C24.3077 10.1408 24.3088 10.1521 24.3095 10.1658C24.3086 10.1712 24.3074 10.1794 24.3093 10.1851C24.3081 10.1932 24.3096 10.2016 24.3084 10.2097C24.2978 10.2247 24.2888 10.2479 24.286 10.2669C24.2836 10.283 24.2888 10.303 24.3037 10.3136C24.3136 10.3205 24.3266 10.3252 24.3405 10.3245C24.3574 10.3215 24.3667 10.3148 24.3768 10.3026C24.3857 10.2985 24.395 10.2915 24.4039 10.2873C24.4065 10.2879 24.407 10.2851 24.4096 10.2854C24.4096 10.2854 24.4159 10.2809 24.4185 10.2814C24.4546 10.262 24.4928 10.2458 24.5287 10.2266C24.5496 10.216 24.5735 10.203 24.5943 10.1924C24.5923 10.2059 24.593 10.2198 24.5909 10.2332C24.589 10.2465 24.59 10.2578 24.5883 10.2686C24.5872 10.2573 24.5871 10.2766 24.5867 10.2794C24.5851 10.2901 24.5862 10.3012 24.5876 10.3097C24.5886 10.3208 24.5914 10.3212 24.5902 10.3294C24.5817 10.3858 24.6546 10.4132 24.691 10.3721C24.7011 10.3597 24.7131 10.3533 24.7313 10.3424C24.7374 10.3379 24.7464 10.3337 24.7525 10.3292C24.7525 10.3292 24.7645 10.3226 24.7619 10.3222C24.765 10.32 24.7739 10.3158 24.7711 10.3155C24.7711 10.3155 24.7805 10.3085 24.7831 10.309C24.7862 10.3066 24.789 10.3071 24.7919 10.3049C24.8009 10.3007 24.8098 10.2965 24.8187 10.2924C24.8275 10.2882 24.8364 10.284 24.8449 10.2825C24.848 10.2802 24.8534 10.2811 24.8565 10.2788C24.8565 10.2788 24.8622 10.2769 24.868 10.275C24.8707 10.2755 24.8739 10.2731 24.8739 10.2731C24.8739 10.2731 24.8765 10.2736 24.8792 10.274L24.8815 10.2771C24.8838 10.2802 24.8834 10.2828 24.8857 10.286C24.8857 10.286 24.8857 10.286 24.8853 10.2887C24.8853 10.2887 24.8867 10.2971 24.8864 10.2998C24.8864 10.2998 24.8858 10.3024 24.8855 10.3052C24.8723 10.3196 24.8588 10.3368 24.8456 10.3514C24.8353 10.3636 24.8252 10.3759 24.8148 10.3908C24.8077 10.4007 24.8039 10.4083 24.7942 10.4179C24.7752 10.4342 24.7657 10.4603 24.7813 10.4847C24.7919 10.5056 24.8226 10.5212 24.8438 10.5078C24.874 10.4905 24.9103 10.4684 24.9424 10.4568C24.9454 10.4545 24.9508 10.4554 24.9567 10.4535L24.9539 10.453C24.9593 10.4538 24.9652 10.4519 24.9706 10.4528C24.9817 10.4517 24.9905 10.4476 24.999 10.446C25.0187 10.4436 25.0379 10.4438 25.0549 10.4408L25.0575 10.4412C25.0603 10.4417 25.0629 10.442 25.0629 10.442C25.0711 10.4432 25.0791 10.4445 25.0845 10.4453C25.0898 10.446 25.0924 10.4465 25.0978 10.4472L25.1006 10.4478C25.1032 10.4481 25.1032 10.4481 25.106 10.4485C25.1086 10.449 25.1114 10.4493 25.1164 10.4528C25.1218 10.4537 25.124 10.4568 25.1294 10.4575C25.1103 10.474 25.0883 10.4925 25.0706 10.5009C25.0377 10.5179 25.0155 10.5557 25.032 10.5913C25.0487 10.6269 25.0848 10.6432 25.1226 10.6297C25.1252 10.6302 25.1426 10.6245 25.1426 10.6245C25.1511 10.6231 25.1627 10.6193 25.1707 10.6205C25.1792 10.6191 25.1874 10.6203 25.1985 10.6193C25.2011 10.6196 25.2039 10.62 25.2065 10.6205C25.2065 10.6205 25.2093 10.6208 25.2119 10.6212C25.2339 10.6219 25.253 10.6221 25.2746 10.6252C25.2827 10.6264 25.2907 10.6276 25.2961 10.6285C25.2989 10.6288 25.328 10.6361 25.3122 10.6309C25.315 10.6313 25.323 10.6325 25.3306 10.6365C25.3331 10.6396 25.3357 10.6399 25.3379 10.6431C25.3091 10.6524 25.2884 10.6795 25.2893 10.7099C25.2895 10.7457 25.3154 10.7743 25.3499 10.7823C25.3714 10.7856 25.3926 10.7915 25.4141 10.7948C25.4383 10.7985 25.466 10.7972 25.491 10.7955C25.5272 10.7927 25.5612 10.7868 25.5937 10.7724C25.5983 10.7952 25.6051 10.8236 25.6188 10.8422C25.6211 10.8453 25.6261 10.8488 25.6279 10.8547C25.6391 10.8894 25.6509 10.9214 25.6648 10.9564C25.7136 11.071 25.777 11.1797 25.8407 11.2856C25.9687 11.4946 26.1152 11.6899 26.2711 11.8785C26.4343 12.0736 26.6035 12.2642 26.7763 12.4498C26.8714 12.5495 26.9667 12.6464 27.0711 12.7392C27.1636 12.8191 27.2614 12.8998 27.3416 12.9891C27.4334 13.091 27.5018 13.203 27.5693 13.3205C27.6199 13.405 27.6763 13.5044 27.7582 13.5636C27.7699 13.5955 27.7846 13.6252 27.7963 13.6573C27.9023 13.9207 27.9817 14.1967 28.0187 14.48C28.0582 14.783 28.0391 15.0908 28.0098 15.3945C27.9937 15.5735 27.9749 15.7521 27.9535 15.9304C27.9431 16.0169 27.9298 16.1056 27.9195 16.1919C27.9126 16.2377 27.9088 16.2811 27.9072 16.3276C27.9067 16.3495 27.903 16.3736 27.9051 16.396C27.9039 16.404 27.9058 16.4099 27.9072 16.4182C27.8999 16.4667 27.8949 16.5182 27.8904 16.567C27.8553 16.8531 27.8496 17.1465 27.8976 17.4288C27.927 17.5983 27.985 17.761 28.0318 17.9248C28.0478 17.9821 28.1235 17.9908 28.1638 17.9613C28.2129 17.9274 28.27 17.9141 28.3266 17.9033C28.3579 17.8971 28.3886 17.8934 28.4195 17.8899C28.4195 17.8899 28.4195 17.8899 28.4221 17.8903C28.4251 17.9264 28.4475 17.9601 28.4931 17.967C28.5954 17.9825 28.6997 17.9653 28.8044 17.9646C28.8376 17.9641 28.873 17.9667 28.9101 17.975C28.9206 17.9794 28.9336 17.984 28.944 17.9884C28.9463 17.9915 28.9457 17.9941 28.9485 17.9946C28.9619 18.0158 28.986 18.0195 29.0065 18.0116C29.0119 18.0123 29.0145 18.0129 29.0199 18.0137C29.0388 18.0165 29.0631 18.0009 29.0633 17.9818C29.0647 17.9544 29.0652 17.9325 29.0466 17.9104L29.0442 17.9073C29.0438 17.855 29.0377 17.8045 29.0317 17.7542C29.0207 17.6811 29.0101 17.6052 29.0077 17.5306C28.9992 17.3863 29.0072 17.2419 29.0473 17.1049C29.0841 16.9702 29.1471 16.845 29.2074 16.7193C29.2714 16.586 29.3353 16.4554 29.3891 16.3179C29.4968 16.0425 29.5779 15.7606 29.6671 15.4799C29.7127 15.3412 29.7612 15.2026 29.8147 15.0677C29.8713 14.9306 29.9358 14.7946 29.9945 14.6604C30.0624 14.503 30.1173 14.3408 30.1562 14.1735C30.1765 14.0939 30.1917 14.0111 30.2067 13.9309C30.207 13.9281 30.207 13.9281 30.2075 13.9255C30.2159 13.8882 30.2242 13.8511 30.2296 13.816C30.268 13.6349 30.3053 13.4425 30.3341 13.2516Z" fill="#DD1212"/>
</g>
</g>
</g>
</g>
<mask id="mask21_252_931" style="mask-type:luminance" maskUnits="userSpaceOnUse" x="24" y="8" width="7" height="10">
<path d="M24.5779 8.84424H30.2223V17.9998H24.5779V8.84424Z" fill="white"/>
</mask>
<g mask="url(#mask21_252_931)">
<mask id="mask22_252_931" style="mask-type:luminance" maskUnits="userSpaceOnUse" x="18" y="7" width="14" height="15">
<path d="M19.8702 7.6001L31.6037 9.37371L29.82 21.173L18.0867 19.3994L19.8702 7.6001Z" fill="white"/>
</mask>
<g mask="url(#mask22_252_931)">
<mask id="mask23_252_931" style="mask-type:luminance" maskUnits="userSpaceOnUse" x="18" y="7" width="14" height="15">
<path d="M19.8702 7.6001L31.6037 9.37371L29.82 21.173L18.0867 19.3994L19.8702 7.6001Z" fill="white"/>
</mask>
<g mask="url(#mask23_252_931)">
<mask id="mask24_252_931" style="mask-type:luminance" maskUnits="userSpaceOnUse" x="18" y="7" width="14" height="15">
<path d="M19.8702 7.6001L31.6037 9.37371L29.82 21.173L18.0867 19.3994L19.8702 7.6001Z" fill="white"/>
</mask>
<g mask="url(#mask24_252_931)">
<path d="M29.7869 15.2144C29.7652 15.2496 29.7369 15.2729 29.6957 15.272C29.66 15.2722 29.6166 15.2491 29.6058 15.2118C29.5369 14.9758 29.468 14.7399 29.4017 14.5045C29.3388 14.2833 29.2765 14.0594 29.2425 13.8286C29.2148 13.6293 29.2176 13.429 29.2312 13.2304C29.2426 13.0449 29.2579 12.8713 29.247 12.6882C29.2412 12.5993 29.2286 12.5012 29.205 12.4206C29.1975 12.3975 29.1921 12.3774 29.1846 12.3543C29.1827 12.3486 29.181 12.3427 29.1763 12.3366C29.1737 12.3361 29.1706 12.3385 29.1678 12.338C29.1536 12.3413 29.1416 12.3479 29.127 12.3538C29.127 12.3538 29.1088 12.3649 29.1056 12.3672C29.0996 12.3717 29.093 12.379 29.0867 12.3835C29.0836 12.3857 29.0836 12.3857 29.0836 12.3857C29.0836 12.3857 29.0832 12.3885 29.0801 12.3908C29.0767 12.3958 29.0735 12.3981 29.0701 12.4029C29.06 12.4153 29.0494 12.4302 29.0388 12.4449C29.0385 12.4477 29.0359 12.4474 29.0353 12.45C29.0353 12.45 29.035 12.4528 29.0319 12.455C29.028 12.4627 29.024 12.4703 29.0202 12.4779C29.001 12.5135 28.9872 12.55 28.9758 12.5894C28.9754 12.5922 28.9749 12.5948 28.9749 12.5948C28.9746 12.5975 28.9746 12.5975 28.9742 12.6002C28.973 12.6083 28.9687 12.6186 28.9675 12.6267C28.965 12.6429 28.9602 12.6559 28.9577 12.672C28.9213 12.859 28.9058 13.0519 28.8994 13.2406C28.8925 13.4321 28.8994 13.6229 28.9143 13.8149C28.9239 13.9345 28.9386 14.055 28.9593 14.1736C28.9949 14.2835 29.0449 14.3901 29.0982 14.4916C29.1622 14.614 29.2425 14.7389 29.327 14.8535C29.3704 14.9121 29.4138 14.971 29.4598 15.0302C29.5063 15.0868 29.5532 15.1406 29.5931 15.2043C29.6372 15.2771 29.6612 15.3548 29.6624 15.4377C29.6633 15.5229 29.6452 15.6055 29.6246 15.6877C29.5829 15.8545 29.5204 16.0128 29.4503 16.1672C29.3183 16.458 29.1556 16.7331 29.0624 17.0408C28.9813 17.3035 28.9529 17.6017 29.0588 17.8651C29.0871 17.9326 29.0289 17.9899 28.9631 17.9882C28.8567 17.9831 28.7532 17.9757 28.6494 17.971C28.5975 17.9687 28.5456 17.9663 28.494 17.9613C28.4671 17.9573 28.4345 17.955 28.411 17.946C28.393 17.9378 28.3789 17.9219 28.3675 17.9064C28.2886 17.955 28.1751 17.9956 28.089 17.9469C28.0862 17.9463 28.0831 17.9486 28.0805 17.9482C28.0662 17.9515 28.049 17.938 28.0569 17.9227C28.0572 17.9199 28.0607 17.9151 28.0612 17.9123C28.051 17.8889 28.055 17.862 28.0794 17.8463C28.0914 17.8399 28.1006 17.8331 28.1126 17.8265C28.1227 17.8144 28.1324 17.8048 28.1425 17.7927C28.176 17.7536 28.2043 17.7113 28.2327 17.6687C28.3345 17.5054 28.3902 17.3186 28.4532 17.1383C28.5277 16.9187 28.6176 16.7068 28.7077 16.4922C28.7117 16.4845 28.7221 16.4889 28.7208 16.4969C28.6951 16.6305 28.6699 16.7614 28.636 16.8939C28.5824 17.1029 28.5208 17.3109 28.4357 17.5097C28.4223 17.5434 28.4067 17.5741 28.3905 17.6074C28.3937 17.6052 28.3942 17.6024 28.3973 17.6002C28.4043 17.5903 28.4112 17.5804 28.4187 17.5677C28.419 17.5649 28.419 17.5649 28.4218 17.5654L28.4221 17.5627C28.4256 17.5578 28.4261 17.555 28.4296 17.55C28.444 17.5274 28.4562 17.5019 28.4678 17.4788C28.5742 17.2666 28.6584 17.0375 28.7364 16.8127C28.819 16.575 28.8964 16.3364 28.9445 16.0908C28.9848 15.8797 28.9996 15.6729 28.985 15.459C28.9798 15.4389 28.9751 15.4161 28.9697 15.3962C28.9449 15.2878 28.9284 15.1781 28.9093 15.068C28.8975 15.0002 28.8859 14.9324 28.8735 14.8673C28.8612 14.8215 28.8485 14.7783 28.8362 14.7324C28.8329 14.7182 28.8372 14.7078 28.8438 14.7007C28.828 14.6047 28.8095 14.5085 28.7938 14.4127C28.76 14.2177 28.7256 14.0255 28.6919 13.8307C28.6572 13.6413 28.6199 13.4514 28.5968 13.2581C28.5737 13.0649 28.5727 12.8722 28.5768 12.6804C28.5786 12.5047 28.5793 12.3179 28.5458 12.1396C28.5152 11.9781 28.4563 11.8208 28.4006 11.6611C28.3431 11.4956 28.2937 11.3314 28.2647 11.1594C28.2419 11.0184 28.228 10.8732 28.197 10.7338C28.1951 10.7281 28.1951 10.7281 28.1954 10.7253C28.1954 10.7253 28.1958 10.7227 28.1935 10.7196C28.1921 10.7111 28.1879 10.7022 28.1869 10.6911C28.1834 10.6769 28.1775 10.6621 28.1714 10.6475C28.1598 10.6154 28.1451 10.5857 28.1333 10.5538C28.1084 10.5005 28.073 10.4429 28.0404 10.3857C28.0166 10.3436 28.052 10.2913 28.1015 10.3097C28.164 10.333 28.2124 10.376 28.2513 10.4286C28.2747 10.4377 28.2973 10.4521 28.3176 10.4633C28.3303 10.4708 28.3425 10.4809 28.3546 10.491C28.3817 10.4758 28.4157 10.4699 28.4414 10.4821C28.6794 10.5814 28.9298 10.6906 29.1336 10.8535C29.1777 10.8712 29.2206 10.8969 29.2574 10.9272C29.4213 11.062 29.5267 11.2566 29.599 11.4517C29.6383 11.5567 29.6685 11.6658 29.6961 11.7745C29.7251 11.8916 29.7574 12.0064 29.7806 12.1255C29.7817 12.1366 29.7678 12.1373 29.7636 12.1283C29.7043 12.0121 29.651 11.8913 29.6003 11.771C29.586 11.7385 29.5742 11.7066 29.56 11.6741C29.5746 11.8139 29.5784 11.9519 29.6017 12.0901C29.6268 12.2507 29.6918 12.4035 29.7982 12.5186C29.8551 12.5793 29.927 12.6316 29.9905 12.666C30.0388 12.6923 30.0871 12.7189 30.1192 12.7623C30.1537 12.8061 30.168 12.8576 30.1737 12.9107C30.194 13.1036 30.1997 13.3024 30.1978 13.4974C30.1978 13.6981 30.1892 13.9003 30.1619 14.0996C30.0984 14.4833 29.9874 14.8708 29.7869 15.2144ZM28.2872 14.6687C28.2801 14.7337 28.265 14.7974 28.2581 14.8623C28.256 14.8757 28.2367 14.8757 28.236 14.8618C28.2301 14.7922 28.2161 14.7212 28.2077 14.6484C28.2025 14.5927 28.1968 14.5396 28.1886 14.4833C28.1876 14.5821 28.1836 14.6805 28.1772 14.7786C28.1713 14.8354 28.1681 14.8927 28.16 14.9465C28.1518 15.0003 28.1383 15.0533 28.1275 15.1066C28.1183 15.1491 28.0517 15.1529 28.0478 15.1055C28.0421 15.0524 28.0364 14.9993 28.0338 14.9439C28.0202 14.7246 28.0284 14.5059 27.9984 14.2868C27.9688 14.0816 27.931 13.8944 27.8468 13.7057C27.8286 13.6618 27.8074 13.6199 27.7862 13.5783C27.7673 13.5397 27.7539 13.5184 27.7279 13.4732C27.6791 13.3944 27.627 13.3205 27.5718 13.2489C27.5143 13.1743 27.4537 13.1019 27.3928 13.0321C27.3622 12.9972 27.3317 12.9625 27.2982 12.9298C27.2695 12.9008 27.2485 12.8757 27.2126 12.8399C26.9431 12.5654 26.6548 12.3074 26.4048 12.0139C26.1246 11.6828 25.8966 11.3156 25.6958 10.9333C25.6553 10.8557 25.6152 10.7753 25.5746 10.6977C25.5711 10.7026 25.5671 10.7104 25.5636 10.7153C25.5562 10.7279 25.5492 10.7378 25.5369 10.747C25.5303 10.7543 25.5209 10.7611 25.5143 10.7684C25.4865 10.7889 25.4525 10.7948 25.4188 10.7814C25.4008 10.7732 25.3855 10.7654 25.3737 10.7526C25.3548 10.7498 25.3404 10.7366 25.3286 10.7238C25.3216 10.7144 25.3143 10.7078 25.3107 10.6963C25.3043 10.6844 25.3036 10.6705 25.3029 10.6566L25.302 10.662C25.3037 10.6321 25.3003 10.6012 25.2935 10.5727C25.294 10.5701 25.2916 10.567 25.2921 10.5642C25.2652 10.596 25.2362 10.6246 25.2025 10.647C25.1994 10.6493 25.1931 10.6538 25.1874 10.6557C25.1874 10.6557 25.1848 10.6552 25.1843 10.658C25.1786 10.6599 25.1751 10.6647 25.1692 10.6666C25.1025 10.6896 25.0338 10.616 25.0826 10.5491C25.086 10.5441 25.0892 10.5418 25.0926 10.5368C25.082 10.516 25.0772 10.4932 25.0831 10.4722C25.0581 10.4739 25.0338 10.4703 25.0077 10.4607C24.9871 10.4522 24.9734 10.4337 24.9654 10.4132C24.9565 10.4173 24.9477 10.4215 24.9414 10.426C24.9029 10.4449 24.8541 10.476 24.8135 10.4535C24.7855 10.4382 24.7944 10.3982 24.8088 10.3757C24.8197 10.3581 24.836 10.3413 24.8518 10.3272C24.8584 10.3199 24.8647 10.3154 24.8713 10.3081C24.832 10.3132 24.7977 10.3219 24.7617 10.3411C24.7227 10.3627 24.6895 10.3824 24.6466 10.3925C24.635 10.3962 24.626 10.3838 24.6218 10.375C24.6202 10.3665 24.6188 10.358 24.6197 10.3526C24.585 10.3446 24.5619 10.2972 24.601 10.2755C24.628 10.2604 24.6506 10.239 24.6749 10.2234C24.6989 10.2106 24.7228 10.1977 24.7468 10.1849C24.7947 10.1592 24.8449 10.1364 24.8928 10.1107C24.9227 10.096 24.9473 10.0778 24.964 10.0581C24.9723 10.0403 24.9833 10.0225 24.9937 10.0076C24.9971 10.0028 25.0011 9.99512 25.0046 9.99008C25.0098 9.97428 25.0126 9.95553 25.0128 9.93626C25.0119 9.85102 24.98 9.75258 24.9576 9.66404C24.9319 9.56109 24.9267 9.45033 24.9662 9.35189C24.9921 9.28974 25.0725 9.30467 25.0978 9.35519C25.1793 9.50779 25.2581 9.65988 25.3277 9.8189C25.3463 9.86022 25.3621 9.90119 25.3805 9.94234C25.3935 9.9663 25.4063 9.99026 25.4192 10.0142C25.4477 10.0625 25.4735 10.1104 25.4989 10.1611C25.5477 10.2564 25.5997 10.3495 25.6485 10.4449C25.7437 10.6352 25.844 10.8264 25.9487 11.0073C26.1188 11.3024 26.3043 11.5863 26.5208 11.8472C26.5048 11.8255 26.4883 11.8066 26.4751 11.7852C26.3369 11.5883 26.2178 11.3752 26.1015 11.1623C25.9846 10.9522 25.8763 10.7406 25.7652 10.5285C25.71 10.4212 25.6546 10.3139 25.6051 10.2047C25.5551 10.0981 25.4968 9.99303 25.4841 9.87567C25.4827 9.86717 25.4944 9.86335 25.4989 9.8696C25.5859 9.96803 25.6317 10.1014 25.6907 10.2203C25.7497 10.3392 25.8112 10.4613 25.8787 10.5786C25.9963 10.7835 26.1197 10.9863 26.2463 11.187C26.3728 11.3877 26.4963 11.5904 26.6378 11.7823C26.7775 11.9684 26.9362 12.1382 27.0949 12.308C27.1732 12.3913 27.2452 12.4791 27.3234 12.5625C27.4017 12.6458 27.4643 12.7404 27.5421 12.8265C27.5494 12.8331 27.5365 12.8449 27.5293 12.8383C27.4751 12.797 27.4173 12.7609 27.3626 12.7224C27.3602 12.7192 27.3576 12.7189 27.3553 12.7158C27.4006 12.7611 27.4458 12.8092 27.4885 12.8541C27.7039 13.0847 27.9017 13.3429 28.0308 13.6345C28.0039 13.5397 27.9688 13.4437 27.9303 13.3526C27.9062 13.2939 27.8852 13.2331 27.8583 13.1739C27.8379 13.1269 27.8056 13.067 27.8084 13.0125C27.8093 13.0071 27.8185 13.0003 27.8235 13.0038C27.8515 13.0189 27.869 13.0491 27.8895 13.0769C27.91 13.1048 27.9247 13.1345 27.9423 13.1647C27.9768 13.2276 28.0083 13.2929 28.0365 13.3604C28.1378 13.6012 28.2188 13.8472 28.2652 14.1045C28.2872 14.2316 28.2982 14.3597 28.298 14.4889C28.2947 14.5462 28.2935 14.6092 28.2872 14.6687ZM25.439 10.4297C25.431 10.4094 25.4232 10.3889 25.4152 10.3684C25.414 10.3764 25.4155 10.3849 25.4138 10.3956C25.4135 10.3984 25.4131 10.401 25.4122 10.4064C25.4225 10.4107 25.4294 10.4199 25.439 10.4297ZM25.5025 10.5741C25.4964 10.5594 25.4904 10.5448 25.4843 10.53C25.4878 10.5443 25.4883 10.5581 25.489 10.572C25.494 10.5755 25.4997 10.5736 25.5025 10.5741ZM26.0392 9.04373C26.082 9.0696 26.1235 9.08678 26.1711 9.09946C26.1905 9.11613 26.2102 9.13297 26.2291 9.15224C26.2914 9.21387 26.3532 9.27828 26.4154 9.33991C26.5444 9.46942 26.6711 9.59581 26.7975 9.72481C26.802 9.73106 26.807 9.73453 26.8121 9.738C26.8305 9.77932 26.849 9.82064 26.868 9.85935C26.9506 10.0231 27.0359 10.1871 27.1419 10.3406C27.201 10.4238 27.2635 10.5021 27.3352 10.5734C27.3711 10.609 27.4069 10.6448 27.4463 10.6753C27.4657 10.6922 27.4857 10.7061 27.5083 10.7205C27.5336 10.7354 27.5555 10.7359 27.5827 10.7373C27.6048 10.7378 27.6209 10.721 27.6135 10.6979C27.6056 10.6774 27.603 10.6578 27.5921 10.6397C27.5806 10.6243 27.5661 10.6111 27.5517 10.5979C27.5253 10.5719 27.4989 10.5458 27.473 10.5172C27.4214 10.4571 27.3732 10.3948 27.3282 10.3276C27.2431 10.1993 27.1676 10.0613 27.0975 9.92428C27.0615 9.85276 27.0234 9.77828 26.9904 9.70449C26.9839 9.69251 26.9803 9.68106 26.9737 9.66908C26.9852 9.68453 26.9944 9.69685 27.0058 9.71231C27.0527 9.76613 27.1062 9.81283 27.1565 9.86161C27.1661 9.87133 27.1789 9.85953 27.1751 9.8479C27.1456 9.78852 27.1246 9.72758 27.0977 9.66856C27.0713 9.60675 27.0333 9.54876 27.0006 9.49165C26.9942 9.47967 26.9872 9.47029 26.9808 9.45831C26.9871 9.4538 26.9933 9.44928 26.9994 9.44477C27.0412 9.42342 27.0803 9.43765 27.1187 9.45727C27.1622 9.47758 27.2056 9.50067 27.2489 9.52359C27.3369 9.57828 27.4154 9.64234 27.4902 9.71144C27.5265 9.74442 27.569 9.77272 27.6053 9.80571C27.6221 9.82203 27.6357 9.8406 27.6588 9.85241C27.6817 9.86404 27.7013 9.88071 27.7234 9.8979C27.7258 9.90102 27.7287 9.89859 27.7296 9.89321C27.7244 9.87324 27.7187 9.85588 27.7162 9.83626C27.7117 9.81092 27.7096 9.78852 27.6964 9.76734C27.6721 9.72793 27.6539 9.68383 27.6261 9.64946C27.6121 9.63349 27.598 9.61769 27.5838 9.60172C27.5836 9.58522 27.581 9.5656 27.5749 9.55085C27.5619 9.5104 27.5313 9.47567 27.5027 9.44651C27.474 9.41751 27.4451 9.39113 27.4129 9.36699C27.4043 9.35189 27.3959 9.33418 27.3902 9.31682C27.3463 9.22498 27.2928 9.14251 27.1985 9.09251C27.1426 9.06213 27.0789 9.04703 27.0181 9.02949C26.9576 9.01213 26.8961 9.00015 26.8346 8.988C26.714 8.96699 26.5958 8.96578 26.4751 8.96387C26.3954 8.96283 26.3161 8.95918 26.2421 8.93974C26.1945 8.90779 26.1428 8.88626 26.0859 8.88036C26.0428 8.87394 25.9977 8.89998 25.9853 8.94494C25.977 8.9821 25.9985 9.02116 26.0392 9.04373Z" fill="#910909"/>
</g>
</g>
</g>
</g>
<mask id="mask25_252_931" style="mask-type:luminance" maskUnits="userSpaceOnUse" x="19" y="8" width="12" height="13">
<path d="M19.0667 8.35547H30.4444V20.9332H19.0667V8.35547Z" fill="white"/>
</mask>
<g mask="url(#mask25_252_931)">
<mask id="mask26_252_931" style="mask-type:luminance" maskUnits="userSpaceOnUse" x="18" y="7" width="14" height="15">
<path d="M19.8702 7.6001L31.6037 9.37371L29.82 21.173L18.0867 19.3994L19.8702 7.6001Z" fill="white"/>
</mask>
<g mask="url(#mask26_252_931)">
<mask id="mask27_252_931" style="mask-type:luminance" maskUnits="userSpaceOnUse" x="18" y="7" width="14" height="15">
<path d="M19.8702 7.6001L31.6037 9.37371L29.82 21.173L18.0867 19.3994L19.8702 7.6001Z" fill="white"/>
</mask>
<g mask="url(#mask27_252_931)">
<mask id="mask28_252_931" style="mask-type:luminance" maskUnits="userSpaceOnUse" x="18" y="7" width="14" height="15">
<path d="M19.8702 7.6001L31.6037 9.37371L29.82 21.173L18.0867 19.3994L19.8702 7.6001Z" fill="white"/>
</mask>
<g mask="url(#mask28_252_931)">
<path d="M29.9382 19.057C29.963 19.0745 29.9878 19.0921 30.0128 19.1094C30.0602 19.1414 30.1325 19.1001 30.1057 19.041C30.0425 18.894 29.9618 18.7553 29.8627 18.6277L29.8762 18.6296C29.9349 18.6412 29.9634 18.5631 29.922 18.5266C29.7009 18.3337 29.4422 18.1874 29.1648 18.0931C29.1741 18.0864 29.1785 18.0759 29.1804 18.0626C29.1842 18.0383 29.1717 18.0117 29.1483 18.0027C29.1299 17.9971 29.1144 17.9893 29.096 17.9837C29.0965 17.9811 29.0972 17.9758 29.095 17.9726C29.0925 17.953 29.0872 17.9329 29.0851 17.9107C29.0778 17.8683 29.0731 17.8263 29.0687 17.7817C29.0595 17.6978 29.059 17.6098 29.0663 17.5256C29.0792 17.3489 29.1217 17.1765 29.1747 17.0084C29.2927 16.6468 29.4731 16.3084 29.5835 15.9428C29.5898 15.919 29.5962 15.8952 29.6052 15.8719C29.6208 15.8412 29.6365 15.8107 29.6498 15.7768C29.6726 15.7171 29.6927 15.6568 29.7128 15.5966C29.7523 15.4817 29.7946 15.3643 29.8394 15.2501C29.9295 15.019 30.0267 14.7945 30.1319 14.5711C30.1844 14.4608 30.2314 14.3497 30.2654 14.2337C30.3 14.1153 30.316 13.9912 30.3288 13.8695C30.3531 13.6174 30.3722 13.3645 30.3884 13.1112C30.396 12.9886 30.4038 12.8633 30.4087 12.7403C30.4132 12.62 30.4175 12.4997 30.4024 12.3818C30.3734 12.1548 30.2665 11.9516 30.15 11.7581C30.0403 11.5737 29.9309 11.3867 29.7906 11.2225C29.7205 11.1403 29.6441 11.0629 29.5578 10.9976C29.4663 10.9287 29.3641 10.8775 29.2757 10.8065C29.1873 10.7353 29.1026 10.6593 28.9998 10.6108C28.8922 10.5587 28.7747 10.5355 28.6613 10.5018C28.5535 10.469 28.45 10.4259 28.3503 10.3751C28.2479 10.3239 28.146 10.27 28.0543 10.2039C28.0245 10.1829 27.9946 10.1619 27.9616 10.1431C27.921 10.0655 27.8809 9.98514 27.8373 9.90979C27.7705 9.78705 27.7007 9.66639 27.6312 9.54312C27.5707 9.43496 27.5134 9.32194 27.4408 9.22021C27.3703 9.12159 27.2809 9.0393 27.1667 8.99451C27.042 8.94538 26.904 8.9301 26.7722 8.91014C26.4898 8.86743 26.2064 8.8301 25.9234 8.80927C25.8908 8.80718 25.8554 8.80458 25.8227 8.80232C25.8146 8.80111 25.8035 8.80215 25.7953 8.80093C25.7578 8.77611 25.7177 8.75076 25.6802 8.72576C25.5748 8.65771 25.4665 8.59173 25.3582 8.52593C25.2448 8.45649 25.1248 8.39434 24.9931 8.37437C24.8585 8.35406 24.7226 8.38027 24.5915 8.40996C24.4576 8.4393 24.3253 8.47698 24.195 8.52055C23.9373 8.60527 23.6958 8.72837 23.4404 8.81621C23.1939 8.89989 22.9391 8.94659 22.7069 9.06274C22.496 9.16569 22.3076 9.30215 22.13 9.45684C22.0382 9.53652 21.9545 9.61725 21.87 9.70354C21.7885 9.78739 21.712 9.87489 21.6354 9.96222C21.609 9.99121 21.5854 10.0207 21.5613 10.0528C21.5667 9.99868 21.572 9.94451 21.5771 9.89295C21.5809 9.84955 21.5184 9.82628 21.5007 9.87038C21.4111 10.0989 21.0549 10.144 20.9115 9.94625C20.8773 9.89989 20.8059 9.95232 20.8403 9.99885C20.87 10.039 20.8906 10.0834 20.9057 10.1298C20.7127 10.1143 20.5198 10.1346 20.3446 10.2016C20.3036 10.2174 20.3062 10.2728 20.3418 10.2919C20.3901 10.3185 20.4349 10.3501 20.4766 10.3837C20.2995 10.445 20.1436 10.548 20.0205 10.6888C19.9937 10.7206 20.0233 10.7799 20.066 10.77C20.1089 10.76 20.1507 10.7553 20.192 10.756C19.983 10.9004 19.8014 11.082 19.6547 11.2881C19.6302 11.3228 19.6543 11.3815 19.7021 11.3749C19.7446 11.3676 19.787 11.3603 19.8288 11.3556C19.6641 11.5176 19.4802 11.6603 19.2852 11.7848C19.2333 11.8183 19.2825 11.8945 19.3371 11.878C19.4066 11.8554 19.4745 11.8436 19.5464 11.8409C19.4453 11.9273 19.3514 12.0204 19.2644 12.1226C19.2377 12.1544 19.2663 12.2192 19.3118 12.2096C19.3715 12.1966 19.4309 12.1864 19.4917 12.1846C19.338 12.3456 19.2085 12.5294 19.1121 12.7294C19.0918 12.773 19.1361 12.8072 19.1762 12.7968C19.2368 12.7785 19.3002 12.7605 19.3611 12.7395C19.2535 12.9598 19.1585 13.1874 19.0771 13.4171C19.0616 13.4641 19.1116 13.5157 19.1582 13.4815C19.1767 13.4678 19.1925 13.4537 19.2115 13.4374C19.1634 13.628 19.1339 13.8244 19.126 14.0211C19.1253 14.0622 19.1712 14.1049 19.2118 14.0726C19.2684 14.0261 19.3253 13.977 19.3819 13.9306C19.3693 14.014 19.3562 14.0999 19.3437 14.1832C19.3363 14.2317 19.3924 14.262 19.4295 14.2348C19.5644 14.1424 19.6995 14.0501 19.8323 13.9546C19.808 14.006 19.7837 14.0574 19.7621 14.1091C19.7413 14.1554 19.8017 14.2114 19.8432 14.1735C19.9892 14.0443 20.1495 13.9311 20.3181 13.8357C20.3121 13.8924 20.3118 13.9501 20.3252 14.0072C20.3352 14.0499 20.3847 14.0685 20.4149 14.0317C20.4786 13.9561 20.5451 13.881 20.6083 13.8081C20.6398 13.8732 20.6806 13.9317 20.73 13.9858C20.7514 14.0084 20.7887 14.0167 20.8123 13.9874C20.8467 13.9429 20.8731 13.8947 20.8917 13.8454C20.9392 13.9129 20.9988 13.9742 21.0719 14.0183C21.1017 14.0393 21.1529 14.0278 21.1568 13.9844C21.1609 13.9383 21.1656 13.8895 21.1672 13.8429C21.2927 14.0133 21.4556 14.156 21.6401 14.2636C21.6781 14.2858 21.7172 14.245 21.7144 14.2089C21.7095 14.1504 21.7073 14.0924 21.7024 14.0339C21.8154 14.1417 21.9285 14.2495 22.0441 14.3577C22.0727 14.3869 22.1342 14.3631 22.1349 14.3219C22.1398 14.2348 22.1582 14.1495 22.1896 14.069C22.2154 14.1527 22.2302 14.2374 22.2279 14.3251C22.2283 14.3773 22.301 14.3883 22.3281 14.3539C22.4094 14.2535 22.5002 14.1627 22.5977 14.0811C22.5929 14.1685 22.5878 14.2556 22.583 14.3429C22.5799 14.4002 22.642 14.4261 22.6835 14.3884C22.7967 14.2763 22.9382 14.1959 23.0904 14.153L23.0368 14.4721C23.0286 14.5258 23.0858 14.5482 23.1274 14.527L23.2871 14.4357C23.2719 14.5544 23.2868 14.6749 23.3354 14.7895C23.3521 14.8249 23.4075 14.8416 23.4323 14.8041C23.4538 14.7716 23.4748 14.7417 23.4962 14.7093C23.541 14.8865 23.6547 15.044 23.8106 15.1417C23.8481 15.1666 23.8889 15.1508 23.9012 15.106C23.9127 15.0664 23.9212 15.0292 23.9326 14.9896C23.9509 15.0693 23.9663 15.1487 23.9842 15.2311C23.9941 15.274 24.0556 15.3053 24.0844 15.2601C24.1127 15.2176 24.1361 15.1718 24.1543 15.1249C24.2068 15.2511 24.2592 15.3773 24.3116 15.5034C24.334 15.5563 24.4099 15.5457 24.4207 15.4924C24.4345 15.4009 24.4613 15.3143 24.4932 15.2311C24.501 15.3067 24.5116 15.3824 24.5194 15.4579C24.5255 15.5082 24.5866 15.523 24.6196 15.4867C24.6899 15.4039 24.772 15.3337 24.8634 15.2761C24.8302 15.3865 24.7997 15.4975 24.766 15.6107C24.7498 15.6631 24.8007 15.7093 24.8521 15.6785C24.9069 15.6429 24.9642 15.6103 25.0191 15.5745C24.997 15.6841 24.9674 15.7895 24.9295 15.8938C24.9108 15.9459 24.9665 15.9957 25.0156 15.9619C25.0771 15.9188 25.1391 15.8733 25.2005 15.8303C25.1717 15.9304 25.1404 16.0275 25.1116 16.1275C25.1002 16.1671 25.1347 16.2301 25.1852 16.2048C25.242 16.1747 25.2943 16.1386 25.3415 16.099C25.3182 16.2166 25.3054 16.3384 25.3033 16.4617C25.3033 16.4975 25.3516 16.524 25.3814 16.5093C25.4262 16.4858 25.4687 16.4593 25.5068 16.4265C25.5372 16.5521 25.5677 16.6777 25.601 16.8037C25.6128 16.8523 25.6701 16.8747 25.7038 16.8331C25.7339 16.799 25.7615 16.762 25.784 16.7214C25.7974 16.8884 25.8248 17.0521 25.8717 17.2159C25.8844 17.2591 25.947 17.2631 25.9712 17.231C25.9953 17.1989 26.0198 17.1641 26.0467 17.1324C26.0304 17.2398 26.0172 17.3452 26.009 17.4539C26.0068 17.5058 26.0767 17.5521 26.1122 17.4997L26.1939 17.3773C26.1866 17.4258 26.1825 17.4719 26.1752 17.5202C26.1658 17.582 26.2394 17.6042 26.2783 17.566C26.3462 17.4994 26.4113 17.4322 26.4788 17.3681C26.4653 17.4568 26.4411 17.544 26.4066 17.6268C26.3847 17.6811 26.4458 17.7317 26.495 17.6978L26.5658 17.648C26.5443 17.7355 26.5094 17.8211 26.4618 17.899C26.4474 17.9216 26.459 17.9537 26.479 17.9676C26.5012 17.9848 26.5288 17.9834 26.5502 17.9702C26.5953 17.944 26.6406 17.9178 26.6858 17.8917C26.6622 17.9568 26.6363 18.019 26.6127 18.0841C26.5906 18.1386 26.6514 18.1917 26.701 18.1553C26.7474 18.1209 26.7939 18.0867 26.8403 18.0525C26.8351 18.1232 26.838 18.1952 26.8521 18.266C26.8618 18.3115 26.9262 18.3405 26.9576 18.2957C26.9651 18.2831 26.9752 18.2709 26.9821 18.261C26.9974 18.3237 27.0212 18.3851 27.0512 18.4419C27.0686 18.4719 27.1005 18.4796 27.129 18.4728C27.1021 18.6145 27.0939 18.7591 27.1029 18.9006C27.0906 18.8905 27.0788 18.8778 27.0667 18.8676C27.0321 18.8405 26.9689 18.8584 26.967 18.9075C26.9481 19.1605 26.9925 19.4119 27.0899 19.6412C27.0467 19.6181 27.001 19.5919 26.9578 19.569C26.9194 19.5494 26.8615 19.5874 26.8743 19.6304C26.929 19.8506 27.0391 20.0515 27.1896 20.2199C27.1538 20.22 27.1207 20.2206 27.0845 20.2233C27.0295 20.2232 27.0151 20.3008 27.0545 20.3315C27.2778 20.511 27.5672 20.5987 27.8517 20.573C27.8233 20.6153 27.7868 20.6567 27.7457 20.6917C27.7082 20.7218 27.7172 20.7891 27.771 20.7973C27.9252 20.815 28.0802 20.8082 28.2306 20.7787C28.2196 20.7964 28.2092 20.8112 28.2009 20.8292C28.1752 20.8721 28.1997 20.928 28.2529 20.9223C28.5536 20.899 28.8453 20.7891 29.0896 20.6115C29.0802 20.6735 29.079 20.7365 29.0835 20.7976C29.0877 20.8423 29.1422 20.8643 29.1766 20.8365C29.3314 20.7225 29.4585 20.5739 29.5476 20.4032C29.5554 20.4428 29.5635 20.4798 29.5771 20.5176C29.5936 20.5723 29.6641 20.561 29.6894 20.5207C29.8057 20.3157 29.8684 20.0831 29.8738 19.8475C29.8779 19.8563 29.8844 19.8683 29.8885 19.8772C29.9161 19.9308 29.9939 19.9261 30.0059 19.8647C30.0556 19.5917 30.0319 19.3105 29.9382 19.057ZM21.8189 9.91309C21.905 9.83531 21.9839 9.75093 22.0729 9.6709C22.242 9.51777 22.4205 9.3742 22.6174 9.25545C22.7139 9.19868 22.8151 9.14798 22.9229 9.10927C23.0457 9.0617 23.1743 9.02906 23.2981 8.99277C23.4274 8.95718 23.5524 8.91291 23.6755 8.86274C23.7986 8.81257 23.9172 8.75632 24.0427 8.70927C24.1681 8.66222 24.2958 8.6183 24.4222 8.58236C24.5488 8.54659 24.6776 8.51378 24.8094 8.49798C24.9406 8.48479 25.0578 8.51066 25.1753 8.56968C25.288 8.62524 25.3929 8.69607 25.4986 8.76152C25.5615 8.80128 25.6219 8.83791 25.6847 8.87767C25.6915 8.88705 25.701 8.89677 25.7146 8.89868C25.7172 8.8992 25.7172 8.8992 25.72 8.89955C26.0507 9.11448 26.3665 9.35475 26.6052 9.66864C26.7335 9.83913 26.8401 10.0258 26.9589 10.206C27.0727 10.3799 27.201 10.5506 27.3858 10.6582C27.4286 10.6839 27.4781 10.7025 27.5248 10.7206C27.5564 10.7308 27.5875 10.6888 27.5576 10.6678C27.47 10.6105 27.3986 10.5365 27.3219 10.4615C27.2474 10.3898 27.1826 10.3086 27.1236 10.2254C26.999 10.0499 26.8927 9.86048 26.771 9.68271C26.5628 9.38444 26.2932 9.1485 25.9997 8.94191C26.0431 8.94573 26.0866 8.94955 26.13 8.95337C26.2707 8.96899 26.4115 8.98479 26.5517 9.00337C26.6866 9.0209 26.8238 9.04173 26.9602 9.06777C27.0809 9.08878 27.1932 9.12784 27.2814 9.21812C27.3601 9.29868 27.4135 9.40024 27.4677 9.49642C27.5349 9.61656 27.6043 9.73982 27.6715 9.85996C27.797 10.0851 27.9279 10.3112 28.0061 10.5594C28.0477 10.6841 28.0752 10.8119 28.1083 10.9379C28.1411 11.0667 28.1825 11.194 28.2297 11.3193C28.2771 11.4419 28.3247 11.5646 28.3632 11.6914C28.4 11.8124 28.4278 11.9377 28.4444 12.064C28.479 12.3277 28.4587 12.5886 28.4575 12.8523C28.4568 12.9843 28.4646 13.1146 28.4889 13.2449C28.5132 13.3751 28.5519 13.5018 28.5847 13.6304C28.641 13.8591 28.6609 14.0903 28.6861 14.3251C28.699 14.4398 28.7142 14.5575 28.7356 14.6707C28.7597 14.7844 28.7931 14.8912 28.8465 14.9928C28.8719 15.0433 28.9007 15.089 28.9323 15.135C28.946 15.1535 28.9762 15.1362 28.9682 15.1157C28.9299 15.0054 28.9057 14.8917 28.8818 14.778C28.8573 14.6671 28.8411 14.5548 28.8252 14.4423C28.7974 14.2072 28.7835 13.9712 28.7389 13.7391C28.7141 13.6115 28.6755 13.4848 28.645 13.3591C28.6122 13.2304 28.5936 13.0983 28.5861 12.9653C28.5741 12.6995 28.6062 12.4322 28.5833 12.1646C28.5604 11.8973 28.4891 11.6417 28.3922 11.3905C28.3446 11.2679 28.2972 11.1452 28.2585 11.0185C28.2203 10.889 28.1906 10.7579 28.1556 10.6261C28.1252 10.5171 28.0861 10.412 28.0411 10.3091C28.0705 10.3327 28.1031 10.3542 28.1352 10.3784C28.2247 10.4414 28.3271 10.4926 28.4279 10.5353C28.5337 10.5815 28.6411 10.6171 28.7521 10.6476C28.8604 10.6777 28.9651 10.7127 29.0569 10.7789C29.1488 10.845 29.2309 10.9207 29.3262 10.9818C29.4193 11.0398 29.5069 11.0971 29.5891 11.1728C29.7437 11.3145 29.8569 11.4938 29.9653 11.6697C30.0779 11.8516 30.1958 12.0372 30.258 12.2445C30.3236 12.4662 30.2981 12.7072 30.2859 12.9336C30.2705 13.1815 30.2519 13.4317 30.2311 13.6787C30.2205 13.8035 30.2102 13.9258 30.1889 14.049C30.1682 14.1669 30.1351 14.2773 30.0884 14.3858C30.0413 14.4969 29.9866 14.6041 29.9373 14.7122C29.8875 14.8228 29.8378 14.9336 29.7934 15.0452C29.7545 15.1383 29.7181 15.2344 29.6845 15.3284C29.6786 15.1489 29.6335 14.9742 29.5799 14.8011C29.5217 14.6218 29.4693 14.4407 29.4311 14.2561C29.3931 14.0718 29.3691 13.8839 29.351 13.6942C29.3312 13.4794 29.3248 13.2667 29.3215 13.0516C29.3205 12.8398 29.3262 12.6207 29.2917 12.412C29.2868 12.3893 29.2542 12.387 29.2505 12.4112C29.2109 12.6006 29.2059 12.7978 29.2066 12.9931C29.2054 13.1827 29.2097 13.373 29.2193 13.5641C29.2389 13.944 29.2948 14.3209 29.405 14.6839C29.4601 14.8655 29.529 15.0464 29.5498 15.2365C29.5726 15.4325 29.5486 15.6268 29.4979 15.8171C29.4007 16.1874 29.217 16.5282 29.0937 16.889C29.0264 17.0796 28.9743 17.2778 28.9547 17.4811C28.9455 17.5787 28.9437 17.6803 28.9592 17.7789C28.9658 17.8266 28.9745 17.8775 28.9896 17.9237C28.9934 17.9353 28.9967 17.9495 29.0003 17.961C28.9102 17.9391 28.816 17.9249 28.7229 17.9219C28.6491 17.919 28.5767 17.9245 28.504 17.9327C28.5101 17.9282 28.5135 17.9232 28.5194 17.9214C28.5601 17.889 28.538 17.8169 28.4818 17.8249C28.3526 17.8412 28.2285 17.8801 28.1122 17.9395C28.1033 17.9436 28.097 17.9483 28.0882 17.9525C27.9899 17.6928 27.9259 17.4247 27.9073 17.1469C27.8892 16.8471 27.9097 16.5478 27.9464 16.2509C28.0241 15.6273 28.1642 14.9914 28.0644 14.3603C28.0193 14.0758 27.9248 13.8086 27.7837 13.5589C27.6559 13.3306 27.4944 13.1247 27.3201 12.9306C26.9648 12.5332 26.5585 12.1803 26.2252 11.7643C26.0332 11.5235 25.8771 11.2634 25.7455 10.9877C25.5964 10.682 25.4681 10.3657 25.3247 10.0581C25.2872 9.97802 25.247 9.89781 25.2069 9.81743C25.1941 9.79347 25.1616 9.80788 25.1691 9.83097C25.225 10.0072 25.2929 10.177 25.3582 10.3462C25.4116 10.4836 25.4628 10.6178 25.5196 10.7528C25.445 10.7362 25.3649 10.7377 25.2887 10.7509C25.3085 10.7292 25.3283 10.7075 25.3509 10.6862C25.3821 10.6607 25.3667 10.6171 25.3321 10.6091C25.237 10.5837 25.1403 10.5855 25.0483 10.6129C25.0774 10.565 25.112 10.5181 25.1512 10.4771C25.1745 10.4504 25.147 10.4134 25.1167 10.4143C25.0005 10.4186 24.8865 10.4454 24.7852 10.4961C24.7894 10.4858 24.7965 10.4758 24.8003 10.4681C24.8148 10.4456 24.8262 10.4252 24.8401 10.4054C24.8545 10.3829 24.8674 10.3711 24.8944 10.356C24.9153 10.3454 24.9201 10.3131 24.9122 10.2926C24.9021 10.269 24.8812 10.2605 24.8568 10.2594C24.821 10.2596 24.7797 10.278 24.7472 10.2924C24.709 10.3086 24.6734 10.3252 24.6401 10.345C24.6224 10.3534 24.6069 10.3646 24.5915 10.3761C24.6115 10.3159 24.629 10.2553 24.641 10.1938C24.6464 10.1589 24.6075 10.1421 24.5806 10.1572C24.4962 10.2049 24.4142 10.2558 24.3295 10.3063C24.3382 10.2306 24.3361 10.1534 24.3283 10.0778C24.3229 10.0412 24.279 10.0402 24.2611 10.0676C24.2279 10.1232 24.1944 10.1813 24.1639 10.2372C24.08 10.1365 23.9958 10.0386 23.9146 9.93826C23.8887 9.90962 23.8316 9.92298 23.8413 9.96847C23.8496 10.0219 23.85 10.0744 23.8398 10.1249C23.7415 10.0277 23.6339 9.93982 23.5182 9.86743C23.4806 9.84243 23.4373 9.87437 23.45 9.9176C23.4681 9.9808 23.4748 10.045 23.4731 10.1108C23.3481 10.0094 23.2125 9.92298 23.0693 9.8518C23.0332 9.83531 22.9917 9.87298 23.008 9.91118C23.0241 9.94955 23.0347 9.98948 23.042 10.0318C22.9269 9.93757 22.812 9.84312 22.6969 9.74868C22.6628 9.71882 22.6191 9.75354 22.6187 9.79191C22.6193 9.87993 22.5977 9.96743 22.5663 10.048C22.504 9.95059 22.4505 9.84902 22.4121 9.73878C22.4002 9.70944 22.3549 9.69972 22.3342 9.72698C22.2634 9.83166 22.1729 9.91986 22.0667 9.98618C22.0771 9.91639 22.0899 9.84955 22.1005 9.77958C22.1054 9.74729 22.0634 9.71621 22.0351 9.73948C21.9451 9.82489 21.8479 9.90371 21.751 9.97975C21.7714 9.95527 21.7937 9.93392 21.8189 9.91309ZM27.1512 18.3799C27.1069 18.2909 27.0823 18.199 27.0755 18.099C27.072 18.049 26.9983 18.027 26.9698 18.0693C26.966 18.077 26.9594 18.0843 26.9554 18.0919C26.9582 18.0374 26.9663 17.9836 26.9802 17.9278C26.9934 17.8777 26.9243 17.8424 26.8868 17.8726C26.8559 17.8954 26.8248 17.9181 26.7939 17.941C26.8154 17.8893 26.8344 17.8372 26.8564 17.7827C26.8788 17.7256 26.8163 17.6832 26.7681 17.7117C26.729 17.7332 26.6927 17.7553 26.6536 17.7768C26.6819 17.6987 26.7003 17.6134 26.7076 17.5292C26.7127 17.4777 26.6571 17.4447 26.6141 17.4739C26.5991 17.4825 26.5863 17.4943 26.5712 17.5032C26.5939 17.4075 26.6062 17.3077 26.6075 17.2089C26.6078 17.1511 26.534 17.1483 26.5045 17.1796C26.4429 17.2417 26.3785 17.3035 26.3163 17.3683C26.3274 17.2957 26.3361 17.22 26.347 17.1475C26.3552 17.0938 26.2762 17.0516 26.2439 17.1016L26.1516 17.239C26.166 17.1256 26.1884 17.0136 26.2132 16.9046C26.2274 16.8462 26.1443 16.8143 26.1101 16.8587C26.0583 16.9278 26.0066 16.9971 25.9552 17.0636C25.9083 16.864 25.8899 16.6577 25.8962 16.4525C25.8991 16.3785 25.7974 16.3605 25.7806 16.435C25.7627 16.5174 25.7293 16.5923 25.6856 16.6626C25.6569 16.5428 25.6252 16.4252 25.5965 16.3054C25.5842 16.2594 25.5279 16.2317 25.4936 16.2761C25.4731 16.3032 25.4502 16.3273 25.425 16.3482C25.4349 16.2094 25.4587 16.07 25.501 15.9362C25.5181 15.8784 25.4469 15.8207 25.4026 15.8773C25.3618 15.9289 25.3156 15.9798 25.2653 16.0216C25.2941 15.9214 25.326 15.819 25.355 15.7188C25.3712 15.6664 25.3186 15.6145 25.2689 15.6509C25.2101 15.6942 25.149 15.7344 25.0901 15.7778C25.1191 15.6777 25.1396 15.5791 25.1523 15.4765C25.1599 15.4254 25.1036 15.3976 25.0642 15.4219C25.0154 15.453 24.9641 15.4837 24.9153 15.515C24.9481 15.4072 24.9783 15.299 25.0109 15.1912C25.0229 15.149 24.9875 15.0914 24.9396 15.1171C24.821 15.1735 24.7161 15.2483 24.6205 15.3357C24.6078 15.2374 24.5983 15.137 24.5856 15.039C24.5779 14.9799 24.504 14.9771 24.4779 15.0226C24.4257 15.1138 24.3837 15.2091 24.3521 15.3087C24.2996 15.1827 24.2495 15.0596 24.197 14.9334C24.1769 14.8836 24.0965 14.8879 24.088 14.9443C24.0845 14.9851 24.0762 15.0225 24.062 15.0615C24.0391 14.9591 24.0191 14.8542 23.996 14.7518C23.9839 14.6867 23.9012 14.6879 23.8833 14.7513C23.8592 14.8383 23.8377 14.9258 23.813 15.0157C23.6759 14.9041 23.5932 14.7403 23.5901 14.5612C23.5889 14.5143 23.5153 14.4921 23.4899 14.5324C23.4646 14.5725 23.4366 14.6122 23.4116 14.6497C23.3904 14.553 23.3948 14.452 23.4255 14.3575C23.4448 14.3027 23.391 14.2589 23.3394 14.2896C23.2849 14.3226 23.2309 14.3528 23.1736 14.3855C23.1906 14.2917 23.2052 14.195 23.222 14.1013C23.2274 14.0664 23.1946 14.0284 23.1602 14.037C22.9931 14.0695 22.8424 14.1374 22.7089 14.2383C22.7134 14.1537 22.7179 14.0692 22.7224 13.9846C22.724 13.9381 22.6746 13.9004 22.6318 13.9296C22.5233 14.0094 22.4248 14.0962 22.3356 14.1956C22.322 14.1028 22.2943 14.0133 22.2523 13.9273C22.2352 13.8943 22.1809 13.8725 22.1556 13.9126C22.0974 14.0056 22.055 14.1037 22.0361 14.2108C21.9154 14.099 21.7948 13.9874 21.6745 13.8728C21.6385 13.8372 21.5828 13.8784 21.5875 13.9202C21.5908 13.9895 21.5967 14.0591 21.6 14.1284C21.4252 14.0112 21.2783 13.8542 21.1686 13.6699C21.1443 13.6304 21.0779 13.6508 21.0741 13.6942C21.0698 13.7594 21.0627 13.8244 21.0583 13.8898C21.0002 13.837 20.9523 13.7719 20.9198 13.6956C20.899 13.6511 20.8243 13.6537 20.8189 13.7079C20.8121 13.77 20.7951 13.828 20.7679 13.8817C20.7264 13.8285 20.6969 13.7692 20.6734 13.7051C20.6599 13.6673 20.6106 13.6653 20.5847 13.6917C20.5279 13.7574 20.4743 13.8207 20.4177 13.8864C20.421 13.8457 20.4299 13.8058 20.4467 13.7671C20.4635 13.7284 20.4224 13.6726 20.3776 13.6961C20.229 13.7699 20.0889 13.8587 19.9557 13.9568L20.0128 13.8334C20.0371 13.7822 19.9752 13.737 19.9319 13.769C19.7783 13.8751 19.6243 13.9837 19.4679 14.0893C19.4814 14.0006 19.4951 13.9093 19.5085 13.8206C19.5151 13.7775 19.4604 13.739 19.4227 13.769C19.3601 13.82 19.3 13.8714 19.2373 13.9225C19.2571 13.6999 19.3012 13.4811 19.3745 13.2695C19.3937 13.2146 19.3219 13.1626 19.2837 13.2145C19.2736 13.2268 19.2635 13.239 19.2529 13.2539C19.3262 13.0615 19.4123 12.8737 19.5061 12.69C19.5292 12.6466 19.4799 12.6089 19.4394 12.6221L19.2573 12.6798C19.3592 12.4973 19.4885 12.3325 19.6417 12.1935C19.6734 12.1653 19.6658 12.1063 19.6175 12.099C19.5578 12.0928 19.5005 12.0896 19.442 12.0945C19.5271 12.0056 19.6189 11.9261 19.7153 11.8527C19.7524 11.8252 19.7368 11.7652 19.691 11.7582C19.6425 11.7509 19.5906 11.7485 19.541 11.7492C19.7113 11.6239 19.8701 11.4829 20.0146 11.3287C20.0472 11.295 20.0123 11.2348 19.9672 11.2417C19.9163 11.2506 19.8628 11.2589 19.8123 11.265C19.9733 11.0556 20.1578 10.891 20.3701 10.761C20.4121 10.737 20.388 10.6784 20.3481 10.6697C20.3 10.6596 20.249 10.6518 20.1993 10.6527C20.3128 10.557 20.4443 10.489 20.5903 10.4504C20.6189 10.4438 20.6316 10.3962 20.6128 10.3742C20.5701 10.3292 20.5262 10.2923 20.4764 10.2574C20.6319 10.212 20.7904 10.2002 20.9519 10.2247C20.9788 10.2287 21.0071 10.2054 21.0035 10.1747C21.0009 10.1551 20.9957 10.1351 20.9901 10.1178C21.1503 10.186 21.3566 10.1511 21.4818 10.0325L21.4693 10.1874C21.4672 10.22 21.5024 10.2419 21.5299 10.224C21.6946 10.1169 21.8526 10.0006 21.9983 9.8742C21.9866 9.93288 21.9773 9.99468 21.9656 10.0534C21.9611 10.0831 21.9951 10.1129 22.0222 10.0978C22.1502 10.0346 22.2623 9.94712 22.3533 9.83705C22.3993 9.95128 22.4601 10.0594 22.5332 10.1584C22.5559 10.1895 22.5988 10.1794 22.6144 10.1487C22.6635 10.06 22.6943 9.96552 22.7066 9.86569C22.8267 9.96361 22.9495 10.0619 23.0691 10.1624C23.1035 10.1896 23.1464 10.1605 23.1441 10.1216C23.1432 10.0719 23.1371 10.0216 23.1252 9.97298C23.2524 10.0417 23.3717 10.1258 23.4807 10.2247C23.5047 10.2476 23.5488 10.2294 23.5536 10.1973C23.5618 10.1242 23.5613 10.0554 23.5526 9.98531C23.6521 10.0554 23.7427 10.1296 23.8259 10.2164C23.845 10.2358 23.8852 10.2419 23.896 10.2077C23.9109 10.1633 23.9233 10.1183 23.9252 10.0692C23.995 10.1539 24.0651 10.236 24.1347 10.3209C24.1557 10.3459 24.1896 10.3402 24.2049 10.3122C24.2274 10.2716 24.2474 10.2306 24.2705 10.1874C24.2736 10.24 24.2681 10.2942 24.2573 10.3476C24.254 10.3692 24.2781 10.3919 24.299 10.3813C24.3802 10.3358 24.4635 10.2935 24.5448 10.248C24.5253 10.3221 24.4977 10.3949 24.4621 10.4666C24.4422 10.5075 24.5012 10.5357 24.5253 10.5035C24.5339 10.5021 24.542 10.5034 24.5531 10.5023C24.57 10.4994 24.5856 10.4879 24.6007 10.4792C24.6307 10.4619 24.6613 10.4417 24.6915 10.4242C24.7097 10.4133 24.73 10.4053 24.751 10.3947C24.747 10.4023 24.7404 10.4096 24.7366 10.4173C24.7108 10.4601 24.6901 10.5065 24.6693 10.5528C24.6559 10.5865 24.6931 10.6141 24.7208 10.5936C24.8156 10.531 24.9207 10.4919 25.03 10.4782C24.983 10.5343 24.9432 10.5969 24.9111 10.6636C24.8911 10.7046 24.9418 10.7343 24.975 10.7146C25.0535 10.6686 25.1444 10.6494 25.2309 10.6598C25.1976 10.6987 25.1665 10.7407 25.1403 10.7864C25.1212 10.8219 25.1625 10.8584 25.1976 10.8445C25.3198 10.7997 25.4406 10.8015 25.5616 10.839C25.6847 11.116 25.8222 11.3898 25.9991 11.6393C26.3069 12.0791 26.7095 12.4369 27.0743 12.8275C27.4372 13.2124 27.7766 13.6431 27.9012 14.1652C28.0493 14.787 27.9273 15.4313 27.8387 16.053C27.7587 16.6377 27.7021 17.2671 27.9283 17.8265C27.9479 17.8791 27.9792 17.9277 28.008 17.9733C27.9929 17.982 27.9778 17.9907 27.9651 18.0025C27.967 17.9534 27.9123 17.9148 27.8635 17.9459C27.7599 18.0127 27.67 18.0982 27.5944 18.1968C27.5708 18.2261 27.5521 18.2591 27.5333 18.2921C27.5285 18.2336 27.5257 18.1782 27.5262 18.1204C27.5267 18.0627 27.4437 18.0475 27.413 18.0869C27.3441 18.1782 27.2929 18.2804 27.2654 18.389C27.2637 18.3832 27.2618 18.3775 27.2595 18.3744C27.2436 18.3334 27.1771 18.3372 27.1512 18.3799ZM29.8387 19.515C29.8234 19.4879 29.7986 19.4704 29.767 19.4794C29.7385 19.486 29.7148 19.5155 29.721 19.5466C29.7701 19.8042 29.7437 20.0699 29.6495 20.3114C29.6437 20.2582 29.6411 20.2028 29.6465 20.1487C29.6484 20.1186 29.6332 20.0916 29.604 20.0844C29.5802 20.078 29.5429 20.089 29.533 20.1176C29.4708 20.3282 29.3543 20.5169 29.1946 20.6633C29.2021 20.5956 29.2172 20.5318 29.2462 20.4676C29.2674 20.4185 29.2024 20.3565 29.1578 20.3964C28.9339 20.6046 28.6545 20.741 28.3528 20.789C28.3672 20.7664 28.3816 20.7438 28.3965 20.7186C28.4257 20.6707 28.3882 20.6101 28.3302 20.6289C28.1944 20.6716 28.0512 20.6912 27.9062 20.6857C27.947 20.6341 27.9828 20.5791 28.0087 20.5169C28.0255 20.4782 27.9925 20.4239 27.947 20.4334C27.7201 20.4789 27.4833 20.4431 27.2795 20.3353C27.2988 20.3355 27.3153 20.3351 27.3345 20.3353C27.3896 20.3353 27.4014 20.2574 27.3646 20.2272C27.2141 20.0943 27.1016 19.9289 27.0302 19.7449C27.0863 19.7752 27.1422 19.8058 27.1953 19.8358C27.2184 19.8475 27.25 19.8386 27.2667 19.8192C27.2839 19.7969 27.2825 19.7692 27.2696 19.7454C27.1519 19.5405 27.0861 19.3023 27.0807 19.065C27.099 19.0898 27.1174 19.1147 27.1321 19.1443C27.1472 19.1714 27.1748 19.1893 27.2061 19.1831C27.2345 19.1763 27.2583 19.1469 27.2519 19.1157C27.2227 18.9627 27.2156 18.8105 27.2307 18.656C27.2385 18.6765 27.2469 18.6942 27.2549 18.7147C27.2826 18.7848 27.3887 18.7568 27.3809 18.6815C27.3694 18.5752 27.383 18.4673 27.42 18.3683C27.4285 18.4219 27.4399 18.4732 27.451 18.527C27.4498 18.5351 27.4464 18.5402 27.4451 18.5482C27.4325 18.5957 27.4998 18.6225 27.529 18.5938C27.5543 18.5895 27.5741 18.5676 27.5653 18.536C27.5634 18.5303 27.5642 18.5249 27.5623 18.5192C27.6128 18.403 27.6868 18.2959 27.7776 18.2053C27.7774 18.2244 27.7858 18.2423 27.8033 18.253C27.8286 18.2679 27.8594 18.2643 27.8797 18.2398C27.9811 18.115 28.1264 18.027 28.2832 17.9737C28.2826 17.9763 28.28 17.9759 28.2797 17.9785C28.2323 18.0181 28.2714 18.0874 28.3316 18.0718C28.5217 18.0152 28.7337 18.0143 28.9307 18.0577C28.9017 18.0864 28.9101 18.1398 28.9604 18.153C29.22 18.2197 29.4665 18.3367 29.6849 18.4935C29.6547 18.511 29.6375 18.5523 29.6634 18.581C29.7507 18.6766 29.8288 18.7792 29.8944 18.8909C29.8747 18.877 29.8547 18.8629 29.8344 18.8516C29.8118 18.8372 29.7849 18.8331 29.7606 18.8487C29.742 18.8624 29.7286 18.8961 29.7415 18.92C29.8639 19.1475 29.9193 19.4006 29.9052 19.657C29.8833 19.6015 29.8595 19.5593 29.8387 19.515Z" fill="black"/>
</g>
</g>
</g>
</g>
</svg>
