<svg width="36" height="44" viewBox="0 0 36 44" fill="none" xmlns="http://www.w3.org/2000/svg">
<path d="M9.05436 21.8647H10.7849C10.8066 21.8647 10.8281 21.8668 10.8497 21.871C10.871 21.8753 10.8917 21.8816 10.9118 21.8899C10.932 21.8983 10.9511 21.9085 10.9693 21.9206C10.9873 21.9328 11.0042 21.9465 11.0195 21.962C11.0349 21.9772 11.0486 21.9941 11.0608 22.0121C11.0729 22.0304 11.0832 22.0495 11.0915 22.0696C11.0998 22.0897 11.1061 22.1104 11.1103 22.1318C11.1146 22.1531 11.1167 22.1748 11.1167 22.1965V31.7149C11.1167 31.7366 11.1146 31.7583 11.1103 31.7797C11.1061 31.801 11.0998 31.8217 11.0915 31.8418C11.0832 31.862 11.0729 31.8811 11.0608 31.8993C11.0486 31.9174 11.0349 31.9342 11.0195 31.9495C11.0042 31.9649 10.9873 31.9786 10.9693 31.9908C10.9511 32.0029 10.932 32.0132 10.9118 32.0215C10.8917 32.0299 10.871 32.0361 10.8497 32.0404C10.8281 32.0446 10.8066 32.0467 10.7849 32.0467H9.05436C9.03248 32.0467 9.01095 32.0446 8.9896 32.0404C8.96825 32.0361 8.94741 32.0299 8.92727 32.0215C8.90731 32.0132 8.88804 32.0029 8.86998 31.9908C8.85193 31.9786 8.83509 31.9649 8.81963 31.9495C8.80436 31.9342 8.79047 31.9174 8.77849 31.8993C8.76634 31.8811 8.75609 31.862 8.74776 31.8418C8.73943 31.8217 8.73318 31.801 8.72884 31.7797C8.72467 31.7583 8.72241 31.7366 8.72241 31.7149V22.1965C8.72241 22.1748 8.72467 22.1531 8.72884 22.1318C8.73318 22.1104 8.73943 22.0897 8.74776 22.0696C8.75609 22.0495 8.76634 22.0304 8.77849 22.0121C8.79047 21.9941 8.80436 21.9772 8.81963 21.962C8.83509 21.9465 8.85193 21.9328 8.86998 21.9206C8.88804 21.9085 8.90731 21.8983 8.92727 21.8899C8.94741 21.8816 8.96825 21.8753 8.9896 21.871C9.01095 21.8668 9.03248 21.8647 9.05436 21.8647Z" fill="#004BFF"/>
<path d="M11.3136 19.5164C11.3108 18.7002 10.7254 18.1084 9.91965 18.1084C9.11392 18.1084 8.5061 18.716 8.5061 19.5219C8.5061 19.8969 8.64308 20.2457 8.89117 20.5041C9.14638 20.7697 9.49777 20.9159 9.88041 20.9159C10.3044 20.9159 10.6828 20.7664 10.9462 20.4935C11.1929 20.2383 11.3231 19.8936 11.3137 19.5219C11.3137 19.5202 11.3136 19.5188 11.3136 19.5164Z" fill="#004BFF"/>
<path d="M20.7925 22.5339C19.9308 21.7632 18.9209 21.6479 18.3956 21.6479C17.6107 21.6479 16.8628 21.8577 16.2324 22.2547C15.9569 22.4282 15.7081 22.6339 15.4859 22.8717L15.4423 22.1749C15.4411 22.1539 15.4378 22.1334 15.4326 22.1131C15.4274 22.0927 15.4203 22.0731 15.4114 22.0542C15.4024 22.0353 15.3918 22.0174 15.3795 22.0004C15.3671 21.9834 15.3534 21.9677 15.3381 21.9535C15.3229 21.9391 15.3064 21.9264 15.2887 21.9151C15.2709 21.904 15.2524 21.8945 15.2329 21.8868C15.2133 21.8792 15.1933 21.8735 15.1727 21.8695C15.1522 21.8657 15.1314 21.8637 15.1105 21.8637H13.5774C13.5546 21.8637 13.5321 21.866 13.5097 21.8707C13.4873 21.8754 13.4656 21.8823 13.4447 21.8914C13.4237 21.9006 13.4039 21.9118 13.3854 21.925C13.3668 21.9382 13.3496 21.9532 13.3341 21.97C13.3187 21.9867 13.305 22.0049 13.2932 22.0243C13.2814 22.044 13.2718 22.0644 13.2642 22.086C13.2567 22.1077 13.2513 22.1297 13.2484 22.1523C13.2454 22.175 13.2449 22.1978 13.2465 22.2205C13.301 22.9469 13.3242 23.7101 13.3242 24.7719V31.7146C13.3242 31.7363 13.3263 31.758 13.3305 31.7794C13.3348 31.8007 13.3411 31.8214 13.3494 31.8415C13.3578 31.8617 13.368 31.8808 13.3801 31.899C13.3923 31.917 13.406 31.9339 13.4215 31.9492C13.4367 31.9646 13.4536 31.9783 13.4716 31.9905C13.4899 32.0026 13.509 32.0129 13.5291 32.0212C13.5492 32.0295 13.5699 32.0358 13.5913 32.0401C13.6126 32.0443 13.6343 32.0464 13.656 32.0464H15.3867C15.4084 32.0464 15.4301 32.0443 15.4515 32.0401C15.4729 32.0358 15.4935 32.0295 15.5137 32.0212C15.5338 32.0129 15.5531 32.0026 15.5711 31.9905C15.5892 31.9783 15.606 31.9646 15.6215 31.9492C15.6367 31.9339 15.6506 31.917 15.6626 31.899C15.6748 31.8808 15.685 31.8617 15.6933 31.8415C15.7017 31.8214 15.7079 31.8007 15.7123 31.7794C15.7164 31.758 15.7185 31.7363 15.7185 31.7146V25.9917C15.7185 25.7228 15.7543 25.4702 15.8166 25.2988C15.8185 25.2936 15.8203 25.2881 15.822 25.2823C16.056 24.519 16.7661 23.7471 17.8253 23.7471C18.4808 23.7471 18.9515 23.9712 19.264 24.4323C19.5461 24.8492 19.6954 25.47 19.6954 26.2275V31.7146C19.6954 31.7363 19.6977 31.758 19.7018 31.7794C19.706 31.8007 19.7124 31.8214 19.7208 31.8415C19.7291 31.8617 19.7393 31.8808 19.7513 31.899C19.7635 31.917 19.7772 31.9339 19.7926 31.9492C19.8081 31.9646 19.8248 31.9783 19.843 31.9905C19.8611 32.0026 19.8801 32.0129 19.9003 32.0212C19.9204 32.0295 19.9413 32.0358 19.9626 32.0401C19.984 32.0443 20.0055 32.0464 20.0274 32.0464H21.7579C21.7798 32.0464 21.8013 32.0443 21.8227 32.0401C21.844 32.0358 21.8649 32.0295 21.885 32.0212C21.9051 32.0129 21.9242 32.0026 21.9423 31.9905C21.9605 31.9783 21.9772 31.9646 21.9926 31.9492C22.0081 31.9339 22.0218 31.917 22.034 31.899C22.0461 31.8808 22.0562 31.8617 22.0645 31.8415C22.073 31.8214 22.0793 31.8007 22.0834 31.7794C22.0878 31.758 22.0899 31.7363 22.0899 31.7146V26.0311C22.0899 25.2214 21.9675 24.5037 21.7262 23.8981C21.5095 23.3533 21.1953 22.8943 20.7925 22.5339Z" fill="#004BFF"/>
<mask id="mask0_252_1315" style="mask-type:luminance" maskUnits="userSpaceOnUse" x="3" y="13" width="24" height="24">
<path d="M3.59985 13.3794H26.9999V36.7794H3.59985V13.3794Z" fill="white"/>
</mask>
<g mask="url(#mask0_252_1315)">
<path d="M23.9504 13.3794H6.64569C4.96617 13.3794 3.59985 14.7457 3.59985 16.4252V33.7299C3.59985 35.4093 4.96617 36.7757 6.64569 36.7757H23.9504C25.6297 36.7757 26.9962 35.4093 26.9962 33.7299V16.4252C26.9962 14.7457 25.6297 13.3794 23.9504 13.3794ZM24.8575 16.5726V33.5823C24.8575 33.6169 24.8558 33.6513 24.8523 33.6856C24.849 33.72 24.8438 33.7542 24.837 33.7881C24.8302 33.8219 24.8219 33.8553 24.8118 33.8884C24.8018 33.9214 24.7901 33.9539 24.7769 33.9858C24.7637 34.0176 24.749 34.0488 24.7327 34.0792C24.7163 34.1098 24.6986 34.1393 24.6794 34.1679C24.6603 34.1968 24.6396 34.2244 24.6177 34.2511C24.5959 34.2778 24.5728 34.3034 24.5483 34.3278C24.5238 34.3521 24.4983 34.3754 24.4716 34.3973C24.445 34.4192 24.4172 34.4396 24.3886 34.4589C24.3597 34.478 24.3302 34.4959 24.2999 34.512C24.2693 34.5284 24.2382 34.5431 24.2063 34.5565C24.1743 34.5697 24.1419 34.5813 24.1089 34.5914C24.0759 34.6014 24.0424 34.6098 24.0085 34.6165C23.9747 34.6233 23.9405 34.6284 23.9061 34.6318C23.8719 34.6353 23.8374 34.637 23.8028 34.637H6.79326C6.75871 34.637 6.72416 34.6353 6.68978 34.6318C6.65558 34.6284 6.62138 34.6233 6.58753 34.6165C6.55367 34.6098 6.52017 34.6014 6.48718 34.5914C6.45419 34.5813 6.42173 34.5697 6.38978 34.5565C6.35784 34.5431 6.32676 34.5284 6.29621 34.512C6.26583 34.4959 6.23631 34.478 6.20749 34.4589C6.17885 34.4396 6.15107 34.4192 6.12451 34.3973C6.09777 34.3754 6.07225 34.3521 6.04777 34.3278C6.02329 34.3034 6.0002 34.2778 5.97833 34.2511C5.95645 34.2244 5.93579 34.1968 5.91669 34.1679C5.89742 34.1393 5.87971 34.1098 5.8634 34.0792C5.84708 34.0488 5.83232 34.0176 5.81912 33.9858C5.80593 33.9539 5.7943 33.9214 5.78423 33.8884C5.77416 33.8553 5.76583 33.8219 5.75905 33.7881C5.75228 33.7542 5.74708 33.72 5.74378 33.6856C5.7403 33.6513 5.73857 33.6169 5.73857 33.5823V16.5726C5.73857 16.5381 5.7403 16.5037 5.74378 16.4693C5.74708 16.435 5.75228 16.4009 5.75905 16.3671C5.76583 16.3332 5.77416 16.2997 5.78423 16.2667C5.7943 16.2336 5.80593 16.2011 5.81912 16.1693C5.83232 16.1374 5.84708 16.1061 5.8634 16.0757C5.87971 16.0454 5.89742 16.0157 5.91669 15.987C5.93579 15.9584 5.95645 15.9306 5.97833 15.9039C6.0002 15.8773 6.02329 15.8516 6.04777 15.8273C6.07225 15.8028 6.09777 15.7797 6.12451 15.7579C6.15107 15.7358 6.17885 15.7153 6.20749 15.6961C6.23631 15.677 6.26583 15.6593 6.29621 15.6429C6.32676 15.6266 6.35784 15.6119 6.38978 15.5987C6.42173 15.5855 6.45419 15.5737 6.48718 15.5638C6.52017 15.5537 6.55367 15.5452 6.58753 15.5384C6.62138 15.5317 6.65558 15.5266 6.68978 15.5231C6.72416 15.5198 6.75871 15.5181 6.79326 15.5181H23.8028C23.8374 15.5181 23.8719 15.5198 23.9061 15.5231C23.9405 15.5266 23.9747 15.5317 24.0085 15.5384C24.0424 15.5452 24.0759 15.5537 24.1089 15.5638C24.1419 15.5737 24.1743 15.5855 24.2063 15.5987C24.2382 15.6119 24.2693 15.6266 24.2999 15.6429C24.3302 15.6593 24.3597 15.677 24.3886 15.6961C24.4172 15.7153 24.445 15.7358 24.4716 15.7577C24.4983 15.7797 24.5238 15.8028 24.5483 15.8273C24.5728 15.8516 24.5959 15.8773 24.6177 15.9039C24.6396 15.9306 24.6603 15.9584 24.6794 15.987C24.6986 16.0157 24.7163 16.0454 24.7327 16.0757C24.749 16.1061 24.7637 16.1374 24.7769 16.1693C24.7901 16.2011 24.8018 16.2336 24.8118 16.2667C24.8219 16.2997 24.8302 16.3332 24.837 16.3671C24.8438 16.4009 24.849 16.435 24.8523 16.4693C24.8558 16.5037 24.8575 16.5381 24.8575 16.5726Z" fill="#004BFF"/>
</g>
<mask id="mask1_252_1315" style="mask-type:luminance" maskUnits="userSpaceOnUse" x="19" y="8" width="13" height="13">
<path d="M19.5554 8.04443H31.1554V20.8889H19.5554V8.04443Z" fill="white"/>
</mask>
<g mask="url(#mask1_252_1315)">
<mask id="mask2_252_1315" style="mask-type:luminance" maskUnits="userSpaceOnUse" x="18" y="7" width="15" height="15">
<path d="M20.3414 7.22461L32.4044 9.04805L30.5711 21.1769L18.5081 19.3534L20.3414 7.22461Z" fill="white"/>
</mask>
<g mask="url(#mask2_252_1315)">
<mask id="mask3_252_1315" style="mask-type:luminance" maskUnits="userSpaceOnUse" x="18" y="7" width="15" height="15">
<path d="M20.3414 7.22461L32.4044 9.04805L30.5711 21.1769L18.5081 19.3534L20.3414 7.22461Z" fill="white"/>
</mask>
<g mask="url(#mask3_252_1315)">
<mask id="mask4_252_1315" style="mask-type:luminance" maskUnits="userSpaceOnUse" x="18" y="7" width="15" height="15">
<path d="M20.3414 7.22461L32.4044 9.04805L30.5711 21.1769L18.5081 19.3534L20.3414 7.22461Z" fill="white"/>
</mask>
<g mask="url(#mask4_252_1315)">
<path d="M19.6256 13.182C19.6093 13.1966 19.5935 13.2082 19.5803 13.2204C19.6609 12.9867 19.7584 12.7527 19.8687 12.5291L19.9258 12.4134L19.6176 12.5053C19.7123 12.3105 19.8383 12.1317 19.9926 11.9713L20.0867 11.8723L19.9503 11.8772C19.8878 11.8791 19.8272 11.8869 19.7657 11.9003C19.8515 11.8001 19.9449 11.7068 20.0456 11.6202L20.1687 11.5173L20.0097 11.5216C19.9329 11.524 19.8572 11.5381 19.7859 11.5612C19.9834 11.4327 20.1725 11.2862 20.3416 11.1223L20.4675 10.9999L20.1661 11.0476C20.3133 10.841 20.4959 10.6622 20.7053 10.5129L20.8536 10.411L20.6725 10.4119C20.6301 10.4112 20.5897 10.4164 20.5461 10.4239C20.6647 10.2949 20.8154 10.1961 20.9828 10.1365L21.0753 10.1053L21.0029 10.0407C20.9578 10.0029 20.9117 9.97039 20.8621 9.94313C21.0267 9.88324 21.2109 9.86292 21.3947 9.88237L21.4781 9.89209L21.4534 9.81206C21.4461 9.78549 21.4355 9.76119 21.4223 9.73671C21.5057 9.80303 21.6197 9.83428 21.7381 9.81831C21.8621 9.8032 21.9678 9.74001 22.0298 9.64765L22.0046 9.92647L22.1197 9.78272C22.1473 9.75008 22.1716 9.71987 22.1956 9.69244L22.2367 9.64487C22.2987 9.5723 22.3638 9.4973 22.4334 9.42872C22.5272 9.33272 22.6161 9.25008 22.6979 9.17751C22.8933 9.0065 23.0828 8.87681 23.2781 8.78202C23.431 8.70615 23.5876 8.66188 23.7562 8.61397C23.8449 8.58775 23.9366 8.56206 24.0262 8.53046C24.1543 8.48758 24.2786 8.43289 24.3992 8.38324C24.5289 8.32942 24.6652 8.27074 24.802 8.22647C24.9301 8.18376 25.0661 8.14487 25.2036 8.11483C25.3324 8.08619 25.4668 8.05841 25.594 8.07768L25.5966 8.07803C25.7239 8.0973 25.8418 8.16032 25.9531 8.22803C26.0617 8.29539 26.1732 8.3631 26.2847 8.43081C26.3232 8.4565 26.3645 8.48254 26.4031 8.50806L26.4183 8.51883L26.4354 8.51865C26.4437 8.51987 26.4524 8.51831 26.4579 8.51917C26.4861 8.52056 26.514 8.52195 26.5421 8.52351L26.5588 8.52595C26.8189 8.54556 27.1027 8.57716 27.4286 8.62924C27.448 8.63202 27.4701 8.63549 27.4894 8.63845C27.6029 8.65546 27.719 8.67299 27.823 8.71431C27.9194 8.75147 28.0046 8.82369 28.0793 8.9282C28.1352 9.00737 28.1843 9.094 28.2308 9.18011C28.244 9.20476 28.2572 9.22924 28.2706 9.2539L28.3333 9.3624C28.3821 9.45164 28.4336 9.5414 28.4828 9.62803C28.5319 9.71466 28.5736 9.79435 28.6078 9.86744L28.6144 9.87976L28.6274 9.8874C28.6609 9.90928 28.692 9.9282 28.7199 9.94938C28.8045 10.0074 28.9005 10.0643 29.0321 10.1294C29.1373 10.182 29.2492 10.2273 29.3598 10.2638C29.3977 10.2751 29.4355 10.2865 29.4706 10.2975C29.552 10.3211 29.6281 10.341 29.6994 10.3744C29.7788 10.4119 29.8439 10.4669 29.9147 10.5228C29.9352 10.5372 29.9524 10.5541 29.9729 10.5685C30.0232 10.61 30.0801 10.644 30.1345 10.6777C30.181 10.7072 30.2251 10.7338 30.2656 10.7654C30.3442 10.8253 30.4211 10.8963 30.498 10.9871C30.6324 11.1457 30.7428 11.332 30.8519 11.5096L30.8631 11.5284C30.9692 11.7055 31.0847 11.9152 31.1145 12.1487C31.1296 12.2725 31.1275 12.3994 31.1223 12.5088C31.1161 12.6435 31.1071 12.7779 31.1015 12.89C31.0845 13.1702 31.0631 13.4242 31.0406 13.6667C31.0286 13.7836 31.0149 13.9115 30.98 14.0306C30.9489 14.1417 30.9022 14.245 30.8439 14.369C30.7275 14.6143 30.6305 14.8456 30.5423 15.0725C30.4963 15.1898 30.4527 15.3105 30.4117 15.4315C30.4057 15.4532 30.3972 15.4718 30.3911 15.4935C30.3765 15.5336 30.3644 15.577 30.3473 15.614C30.3376 15.6409 30.322 15.6695 30.3055 15.7037L30.3019 15.7089L30.3012 15.7145C30.2946 15.7388 30.288 15.7633 30.2819 15.785C30.2209 15.9822 30.1407 16.1763 30.0612 16.365C29.9907 16.5324 29.9194 16.7055 29.8617 16.8805C29.798 17.0772 29.7598 17.2551 29.7454 17.4253C29.7376 17.5147 29.7407 17.6055 29.7496 17.6973C29.752 17.7372 29.7597 17.7808 29.7659 17.8325C29.7675 17.8414 29.7685 17.8529 29.7729 17.8619C29.7739 17.8733 29.7782 17.8825 29.7769 17.8909C29.7765 17.8937 29.7765 17.8937 29.776 17.8963L29.7753 17.9386L29.8159 17.9504C29.8322 17.9556 29.8484 17.961 29.8645 17.9662L29.7984 18.0298L29.8871 18.0601C30.1696 18.1565 30.4248 18.3025 30.6475 18.4945C30.6475 18.4945 30.6503 18.4949 30.6498 18.4976C30.6494 18.5004 30.6491 18.5032 30.6491 18.5032L30.4921 18.4739L30.5822 18.5891C30.6793 18.7141 30.763 18.8539 30.8255 19.0018C30.8222 19.0042 30.8163 19.0062 30.8111 19.0025L30.5904 18.8532L30.6508 19.015C30.7453 19.2695 30.7656 19.5468 30.7117 19.81C30.7109 19.8155 30.7078 19.818 30.7078 19.818C30.705 19.8174 30.6989 19.8195 30.6975 19.8107L30.5817 19.5841L30.5769 19.8037C30.5694 20.0402 30.5062 20.2709 30.3944 20.4687C30.3907 20.4739 30.3848 20.4758 30.3821 20.4754C30.3704 20.4397 30.3616 20.4044 30.3536 20.3636L30.3232 20.2093L30.2486 20.3478C30.1609 20.5154 30.034 20.6629 29.8784 20.7753C29.8756 20.7747 29.8756 20.7747 29.8756 20.7747C29.8706 20.7147 29.8711 20.6553 29.8798 20.5973L29.8999 20.4647L29.7916 20.5443C29.547 20.7223 29.2593 20.8285 28.9612 20.8542C28.9584 20.8537 28.9584 20.8537 28.9584 20.8537C28.9584 20.8537 28.9565 20.8478 28.9602 20.8428L29.0607 20.6827L28.9322 20.7084C28.7833 20.7397 28.6298 20.7447 28.4796 20.7277C28.48 20.7249 28.4781 20.719 28.4814 20.7166C28.5267 20.6782 28.5647 20.6331 28.6003 20.5848L28.6659 20.4872L28.5484 20.4978C28.2701 20.5235 27.9859 20.4383 27.7694 20.2614C27.767 20.2581 27.7678 20.2527 27.7682 20.2499L27.9953 20.2447L27.913 20.153C27.7647 19.9921 27.6591 19.7924 27.6043 19.5749C27.6076 19.5726 27.6104 19.573 27.6107 19.5702L27.8852 19.7192L27.8227 19.5713C27.7249 19.3388 27.6829 19.0923 27.7008 18.8433C27.7039 18.841 27.7126 18.8395 27.7123 18.8423C27.7225 18.8494 27.7295 18.8589 27.7397 18.8662L27.8486 18.9702L27.8385 18.8303C27.8289 18.6874 27.8392 18.5449 27.8661 18.4048L27.8826 18.314L27.7933 18.3428C27.7843 18.3471 27.7824 18.3412 27.78 18.3381C27.7512 18.2857 27.7291 18.2258 27.713 18.164L27.6831 18.0435L27.5822 18.1865C27.5795 18.1862 27.5744 18.1825 27.5748 18.1798C27.5623 18.1129 27.5588 18.0417 27.5633 17.9746L27.5734 17.8516L27.3315 18.0299C27.3315 18.0299 27.3288 18.0296 27.3263 18.0263C27.3241 18.0232 27.3241 18.0232 27.3272 18.0209L27.4614 17.6765L27.1855 17.8355C27.1791 17.8402 27.1763 17.8397 27.1763 17.8397L27.1741 17.8365C27.2265 17.7513 27.2628 17.6607 27.2857 17.5652L27.3213 17.4235L27.1288 17.5555C27.1288 17.5555 27.1256 17.5579 27.1232 17.5548C27.1209 17.5515 27.1209 17.5515 27.1213 17.5487C27.1578 17.4581 27.1829 17.3659 27.1972 17.272L27.2222 17.1062L26.8959 17.4299C26.8897 17.4346 26.8841 17.4338 26.8841 17.4338C26.8841 17.4338 26.8841 17.4338 26.8845 17.431L26.9371 17.0461L26.7216 17.3667C26.7194 17.3636 26.7142 17.36 26.7147 17.3572C26.7222 17.2509 26.7334 17.1397 26.7524 17.0322L26.7887 16.8115L26.5767 17.0905C26.5767 17.0905 26.5736 17.0928 26.5708 17.0924C26.5242 16.9327 26.4954 16.7673 26.4841 16.5989L26.4704 16.4272L26.3803 16.5746C26.3574 16.6136 26.3295 16.6489 26.3019 16.6815L26.2987 16.6838C26.2959 16.6834 26.2937 16.6803 26.2918 16.6744L26.1741 16.1987L26.1055 16.2589C26.0697 16.2902 26.0319 16.3157 25.9921 16.335L25.9894 16.3346C25.9907 16.2133 26.0032 16.0937 26.0263 15.9784L26.0548 15.8273L25.9354 15.9251C25.8904 15.9607 25.8426 15.9959 25.7902 16.0247C25.7878 16.0214 25.7883 16.0187 25.7887 16.016L25.9293 15.5539L25.6058 15.7848C25.6058 15.7848 25.6031 15.7845 25.6034 15.7817L25.6038 15.7789C25.6459 15.6693 25.6772 15.5553 25.7003 15.4402L25.7251 15.3138L25.444 15.489C25.4407 15.4914 25.4407 15.4914 25.4407 15.4914C25.4407 15.4914 25.4385 15.4881 25.4394 15.4827L25.5805 14.998L25.4551 15.078C25.3553 15.1393 25.2673 15.2164 25.192 15.3039C25.1887 15.3063 25.1859 15.3058 25.1864 15.303L25.1326 14.8541L25.0512 15.0565C25.0147 15.1471 24.989 15.2421 24.9722 15.3357C24.9722 15.3357 24.9689 15.3381 24.9666 15.3348L24.7536 14.8166L24.7031 14.9445C24.6854 14.9871 24.6649 15.0292 24.6392 15.0678C24.6364 15.0673 24.6341 15.0641 24.6345 15.0614L24.5334 14.5881L24.4416 14.9332C24.4409 14.9388 24.4381 14.9384 24.4381 14.9384C24.4381 14.9384 24.4354 14.9379 24.4301 14.9345C24.2854 14.8447 24.1749 14.695 24.1329 14.5247L24.1029 14.4044L23.9713 14.6022C23.9685 14.6016 23.9685 14.6016 23.9689 14.5989C23.9255 14.4935 23.9084 14.3806 23.9234 14.2641L23.9373 14.1532L23.6765 14.306C23.6734 14.3084 23.6706 14.3079 23.6678 14.3075L23.7361 13.8938L23.6503 13.9176C23.4819 13.9657 23.33 14.053 23.2072 14.1728C23.2036 14.178 23.2008 14.1775 23.2008 14.1775C23.2008 14.1775 23.1986 14.1744 23.1989 14.1716L23.219 13.7761L23.122 13.8575C23.0183 13.9437 22.9215 14.0421 22.8385 14.1426C22.8385 14.1426 22.8352 14.1449 22.8324 14.1445C22.8324 14.0513 22.8182 13.9586 22.7892 13.8693L22.7433 13.724L22.6852 13.865C22.6496 13.9501 22.6272 14.0428 22.6236 14.1412L22.6208 14.1407C22.5392 14.0634 22.4548 13.9857 22.3736 13.9055L22.1709 13.711L22.1906 14.0305C22.1906 14.0305 22.1906 14.0305 22.1902 14.0332C22.0083 13.9266 21.8512 13.7871 21.7295 13.6188L21.6402 13.4978L21.617 13.7827C21.617 13.7827 21.617 13.7827 21.6142 13.7822C21.5473 13.7383 21.4904 13.6845 21.4466 13.6185L21.3864 13.5301L21.3487 13.6291C21.3307 13.6744 21.3097 13.7193 21.2786 13.757C21.2786 13.757 21.2758 13.7565 21.2762 13.7537C21.23 13.7044 21.1904 13.6475 21.1628 13.5869L21.1263 13.5107L20.8616 13.8013C20.8525 13.7492 20.8491 13.6976 20.8571 13.6452L20.8709 13.5343L20.7748 13.5904C20.5984 13.6909 20.4331 13.8101 20.2834 13.9402L20.4428 13.5968L19.8584 14.0003L19.9199 13.594L19.6352 13.8308C19.6352 13.8308 19.6355 13.828 19.6328 13.8277C19.6399 13.6308 19.6699 13.4318 19.719 13.2386L19.765 13.0647L19.6256 13.182Z" fill="white"/>
</g>
</g>
</g>
</g>
<mask id="mask5_252_1315" style="mask-type:luminance" maskUnits="userSpaceOnUse" x="19" y="10" width="12" height="11">
<path d="M19.5554 10.4888H30.7554V20.8888H19.5554V10.4888Z" fill="white"/>
</mask>
<g mask="url(#mask5_252_1315)">
<mask id="mask6_252_1315" style="mask-type:luminance" maskUnits="userSpaceOnUse" x="18" y="7" width="15" height="15">
<path d="M20.3414 7.22461L32.4044 9.04805L30.5711 21.1769L18.5081 19.3534L20.3414 7.22461Z" fill="white"/>
</mask>
<g mask="url(#mask6_252_1315)">
<mask id="mask7_252_1315" style="mask-type:luminance" maskUnits="userSpaceOnUse" x="18" y="7" width="15" height="15">
<path d="M20.3414 7.22461L32.4044 9.04805L30.5711 21.1769L18.5081 19.3534L20.3414 7.22461Z" fill="white"/>
</mask>
<g mask="url(#mask7_252_1315)">
<mask id="mask8_252_1315" style="mask-type:luminance" maskUnits="userSpaceOnUse" x="18" y="7" width="15" height="15">
<path d="M20.3414 7.22461L32.4044 9.04805L30.5711 21.1769L18.5081 19.3534L20.3414 7.22461Z" fill="white"/>
</mask>
<g mask="url(#mask8_252_1315)">
<path d="M30.7025 19.8142C30.7017 19.8197 30.6986 19.822 30.6986 19.822C30.6958 19.8216 30.6899 19.8235 30.6883 19.8149L30.6423 19.726C30.619 19.7308 30.5932 19.7326 30.5675 19.7345L30.565 19.8076C30.5576 20.0438 30.4944 20.2746 30.3824 20.4725C30.3788 20.4775 30.3729 20.4794 30.3701 20.4791C30.3584 20.4433 30.3498 20.4081 30.3418 20.3673L30.3114 20.2129L30.2366 20.3515C30.1491 20.5192 30.022 20.6668 29.8664 20.7789C29.8637 20.7784 29.8637 20.7784 29.8637 20.7784C29.8586 20.7183 29.8591 20.6591 29.868 20.601L29.888 20.4683L29.7798 20.5482C29.535 20.726 29.2473 20.8322 28.9492 20.8579C28.9465 20.8574 28.9465 20.8574 28.9465 20.8574C28.9465 20.8574 28.9446 20.8515 28.9482 20.8465L29.0487 20.6864L28.9204 20.7123C28.7715 20.7433 28.6178 20.7484 28.4676 20.7313C28.4682 20.7286 28.4663 20.7227 28.4694 20.7202C28.5149 20.682 28.5527 20.6369 28.5883 20.5885L28.6539 20.4911L28.5364 20.5015C28.2581 20.5274 27.9739 20.4419 27.7574 20.265C27.7551 20.2619 27.7558 20.2563 27.7564 20.2536L27.9834 20.2484L27.9012 20.1567C27.7529 19.9958 27.6473 19.7961 27.5925 19.5787C27.5956 19.5763 27.5984 19.5767 27.5987 19.5741L27.8734 19.7228L27.8109 19.5749C27.713 19.3425 27.6711 19.0959 27.6888 18.847C27.6921 18.8447 27.7008 18.8432 27.7003 18.8459C27.7105 18.853 27.7176 18.8626 27.7279 18.8699L27.8366 18.9739L27.8267 18.834C27.8171 18.6911 27.8274 18.5485 27.8541 18.4084L27.8708 18.3176L27.7815 18.3466C27.7723 18.3508 27.7704 18.3449 27.7682 18.3418C27.7392 18.2893 27.7171 18.2294 27.701 18.1676L27.6711 18.0471L27.5822 18.1864C27.5795 18.186 27.5744 18.1824 27.5748 18.1796C27.5623 18.1128 27.5588 18.0416 27.5633 17.9744L27.5734 17.8515L27.3315 18.0298C27.3315 18.0298 27.3288 18.0294 27.3263 18.0261C27.3241 18.023 27.3241 18.023 27.3272 18.0208L27.4614 17.6763L27.1855 17.8353C27.1791 17.84 27.1763 17.8395 27.1763 17.8395L27.1741 17.8364C27.2265 17.7511 27.2628 17.6605 27.2857 17.565L27.3213 17.4234L27.1288 17.5553C27.1288 17.5553 27.1256 17.5577 27.1232 17.5546C27.1209 17.5513 27.1209 17.5513 27.1213 17.5485C27.1578 17.4579 27.1829 17.3657 27.1972 17.2718L27.2222 17.106L26.8959 17.4298C26.8897 17.4345 26.8841 17.4336 26.8841 17.4336C26.8841 17.4336 26.8841 17.4336 26.8845 17.4308L26.9371 17.0459L26.7216 17.3666C26.7194 17.3635 26.7142 17.3598 26.7147 17.357C26.7222 17.2508 26.7334 17.1395 26.7524 17.032L26.7887 16.8114L26.5767 17.0904C26.5767 17.0904 26.5736 17.0926 26.5708 17.0923C26.5242 16.9326 26.4954 16.7671 26.4841 16.5987L26.4704 16.427L26.3803 16.5744C26.3574 16.6135 26.3295 16.6487 26.3019 16.6813L26.2987 16.6836C26.2959 16.6833 26.2937 16.6801 26.2918 16.6742L26.1741 16.1985L26.1055 16.2588C26.0697 16.29 26.0319 16.3155 25.9921 16.3348L25.9894 16.3345C25.9907 16.2131 26.0032 16.0935 26.0263 15.9782L26.0548 15.8272L25.9354 15.9249C25.8904 15.9605 25.8426 15.9958 25.7902 16.0246C25.7878 16.0213 25.7883 16.0185 25.7887 16.0159L25.9293 15.5537L25.6058 15.7846C25.6058 15.7846 25.6031 15.7843 25.6034 15.7815L25.6038 15.7787C25.6459 15.6692 25.6772 15.5551 25.7003 15.44L25.7251 15.3136L25.444 15.4888C25.4407 15.4912 25.4407 15.4912 25.4407 15.4912C25.4407 15.4912 25.4385 15.4879 25.4394 15.4826L25.5805 14.9978L25.4551 15.0779C25.3553 15.1392 25.2673 15.2162 25.192 15.3037C25.1887 15.3062 25.1859 15.3057 25.1864 15.3029L25.1326 14.8539L25.0512 15.0563C25.0147 15.147 24.989 15.2419 24.9722 15.3355C24.9722 15.3355 24.9689 15.3379 24.9666 15.3346L24.7536 14.8164L24.7031 14.9444C24.6854 14.9869 24.6649 15.0291 24.6392 15.0676C24.6364 15.0671 24.6341 15.064 24.6345 15.0612L24.5334 14.5879L24.4416 14.9331C24.4409 14.9386 24.4381 14.9383 24.4381 14.9383C24.4381 14.9383 24.4354 14.9378 24.4301 14.9343C24.2854 14.8445 24.1749 14.6949 24.1329 14.5246L24.1029 14.4043L23.9713 14.602C23.9685 14.6015 23.9685 14.6015 23.9689 14.5987C23.9255 14.4933 23.9084 14.3805 23.9234 14.264L23.9373 14.153L23.6765 14.3058C23.6734 14.3083 23.6706 14.3077 23.6678 14.3074L23.7361 13.8937L23.6503 13.9175C23.4819 13.9655 23.33 14.0529 23.2072 14.1727C23.2036 14.1779 23.2008 14.1774 23.2008 14.1774C23.2008 14.1774 23.1986 14.1742 23.1989 14.1715L23.219 13.776L23.122 13.8574C23.0183 13.9435 22.9215 14.0419 22.8385 14.1425C22.8385 14.1425 22.8352 14.1447 22.8324 14.1444C22.8324 14.0511 22.8182 13.9584 22.7892 13.8692L22.7433 13.7239L22.6852 13.8649C22.6496 13.9499 22.6272 14.0426 22.6236 14.1411L22.6208 14.1405C22.5392 14.0633 22.4548 13.9855 22.3736 13.9053L22.1709 13.7109L22.1906 14.0303C22.1906 14.0303 22.1906 14.0303 22.1902 14.0331C22.0083 13.9265 21.8512 13.7869 21.7295 13.6187L21.6402 13.4977L21.617 13.7826C21.617 13.7826 21.617 13.7826 21.6142 13.782C21.5473 13.7381 21.4904 13.6843 21.4466 13.6183L21.3864 13.53L21.3487 13.6289C21.3307 13.6742 21.3097 13.7192 21.2786 13.7569C21.2786 13.7569 21.2758 13.7563 21.2762 13.7536C21.23 13.7043 21.1904 13.6473 21.1628 13.5867L21.1263 13.5105L20.8616 13.8011C20.8525 13.7491 20.8491 13.6975 20.8571 13.6451L20.8709 13.5341L20.7748 13.5902C20.5984 13.6907 20.4331 13.81 20.2834 13.94L20.4428 13.5966L19.8584 14.0001L19.9199 13.5938L19.6352 13.8307C19.6352 13.8307 19.6355 13.8279 19.6328 13.8275C19.6399 13.6307 19.6699 13.4317 19.719 13.2385L19.765 13.0645L19.6256 13.1819C19.6093 13.1965 19.5935 13.2081 19.5803 13.2202C19.6609 12.9866 19.7584 12.7525 19.8687 12.5289L19.9258 12.4133L19.6176 12.5051C19.7123 12.3103 19.8383 12.1315 19.9926 11.9711L20.0867 11.8721L19.9503 11.877C19.8878 11.8789 19.8272 11.8867 19.7657 11.9001C19.8515 11.7999 19.9449 11.7067 20.0456 11.6201L20.1687 11.5171L20.0097 11.5215C19.9329 11.5239 19.8572 11.5379 19.7859 11.561C19.9834 11.4326 20.1725 11.286 20.3416 11.1221L20.3982 11.0657C20.4039 11.0468 20.4097 11.0279 20.413 11.0057L20.1666 11.0447C20.2989 10.8612 20.4569 10.6958 20.6416 10.5598C20.6479 10.5748 20.6486 10.589 20.6491 10.6032C20.6251 10.6308 20.6008 10.661 20.5824 10.6893C20.5861 10.6841 20.5892 10.6819 20.5928 10.6767C20.5999 10.6666 20.6189 10.6721 20.6168 10.686C20.6104 10.7105 20.6124 10.7334 20.6091 10.7555C20.6062 10.7749 20.6005 10.7938 20.5977 10.8131C20.5878 10.8596 20.5701 10.9022 20.555 10.9452C20.5286 11.026 20.5074 11.1105 20.4944 11.1961C20.4683 11.3504 20.4644 11.5081 20.4805 11.6633C20.4982 11.8072 20.5367 11.9459 20.5871 12.0807C20.6355 12.2096 20.6989 12.3322 20.7779 12.4459C20.8175 12.5027 20.8624 12.5605 20.9051 12.615C20.9479 12.6695 20.9878 12.7235 21.0308 12.7753C21.0361 12.7789 21.0288 12.7892 21.0237 12.7855C20.9871 12.7659 20.9505 12.7461 20.917 12.7242C20.884 12.6994 20.8536 12.6751 20.8267 12.6484C20.767 12.594 20.7171 12.53 20.6703 12.4664C20.5861 12.3491 20.5144 12.2251 20.4612 12.09C20.5064 12.3341 20.5574 12.5765 20.7041 12.7853C20.8324 12.9657 21.0183 13.1013 21.2246 13.1777C21.6742 13.3475 22.1663 13.3116 22.6347 13.3569C22.6628 13.3583 22.6876 13.3621 22.7152 13.3662C22.6987 13.3638 22.6826 13.3584 22.669 13.3536C22.6584 13.3492 22.6454 13.3416 22.6343 13.3399C22.6095 13.3362 22.5857 13.3438 22.5609 13.34C22.5027 13.3313 22.4454 13.3169 22.3906 13.3058C22.3357 13.2947 22.2803 13.2864 22.226 13.2725C22.1192 13.2478 22.0104 13.2201 21.9046 13.19C21.8529 13.1765 21.8024 13.1548 21.7484 13.1381C21.6942 13.1215 21.6406 13.102 21.5874 13.08C21.5369 13.0581 21.4906 13.0286 21.4404 13.0039C21.3932 12.98 21.3487 12.9562 21.3053 12.9242C21.2928 12.9138 21.3045 12.893 21.3203 12.901C21.3708 12.9228 21.4211 12.9445 21.4716 12.9662C21.5248 12.9885 21.5793 13.0024 21.6334 13.019C21.6843 13.0379 21.7383 13.0546 21.7928 13.0685C21.8446 13.082 21.8998 13.0904 21.952 13.1011C22.0069 13.1123 22.0645 13.1237 22.1199 13.132C22.2308 13.1461 22.3383 13.1652 22.4501 13.1735C22.5086 13.1796 22.5708 13.1805 22.6272 13.2003C22.6539 13.21 22.6774 13.2051 22.7055 13.2065C22.7336 13.2079 22.7616 13.2093 22.7894 13.2135C23.1991 13.2727 23.5982 13.364 23.9867 13.5076C24.3617 13.6463 24.7227 13.8223 25.0581 14.0371C25.3939 14.2489 25.7006 14.5017 25.9869 14.7794C26.1298 14.9197 26.269 15.0652 26.3951 15.2228C26.426 15.2614 26.4543 15.2996 26.4852 15.3381C26.5157 15.3794 26.538 15.4195 26.5624 15.4629C26.6176 15.5475 26.6635 15.6364 26.7154 15.7234C26.7197 15.7326 26.7098 15.7425 26.7027 15.7329C26.6718 15.6942 26.6413 15.6529 26.6045 15.6162C26.5699 15.5827 26.5385 15.5468 26.5067 15.5138C26.4899 15.4944 26.4666 15.4794 26.4498 15.46C26.4326 15.4432 26.4161 15.4209 26.3987 15.4043C26.3338 15.3294 26.2678 15.26 26.1996 15.1876C26.0654 15.0458 25.9249 14.9086 25.7772 14.7817C25.4786 14.5301 25.1591 14.3039 24.8237 14.109C24.4831 13.9105 24.1204 13.7454 23.7461 13.6211C23.606 13.5744 23.4678 13.5338 23.3293 13.4959C23.7083 13.6096 24.0732 13.7779 24.4138 13.9763C24.9781 14.3048 25.4935 14.7303 25.9654 15.1833C26.3112 15.5154 26.6064 15.9218 27.0176 16.1761C27.2168 16.2996 27.4475 16.3824 27.6803 16.3216C27.8982 16.264 28.035 16.0897 28.1272 15.8916C28.3114 15.4954 28.3892 14.9815 28.344 14.5506C28.3307 14.4327 28.3046 14.3242 28.2699 14.2173C28.3084 14.3926 28.3263 14.5734 28.3159 14.7555C28.3055 14.9546 28.2644 15.152 28.1831 15.3346C28.102 15.5147 27.9829 15.6662 27.8312 15.7904C27.8249 15.7951 27.8178 15.7855 27.8215 15.7803C27.9491 15.6103 28.0444 15.4098 28.1084 15.2103C28.1637 15.0322 28.1996 14.8511 28.2022 14.6649C28.2053 14.476 28.1748 14.2848 28.1293 14.0999C28.0897 13.9498 28.03 13.8022 27.9638 13.6593C27.767 13.3893 27.5329 13.1419 27.3453 12.8676C27.1227 12.5428 26.9189 12.2069 26.7338 11.8595C26.6411 11.6871 26.5392 11.519 26.4428 11.3518C26.6006 11.7489 26.7857 12.1329 26.9984 12.5043C27.1123 12.7053 27.2354 12.9018 27.3647 13.0938C27.4293 13.1912 27.4968 13.2864 27.565 13.3786C27.6303 13.4704 27.7012 13.5631 27.751 13.664C27.7576 13.6761 27.7421 13.6852 27.7319 13.678C27.6308 13.5977 27.5479 13.4919 27.4699 13.3897C27.3897 13.2843 27.3123 13.1793 27.2355 13.0687C26.9708 12.6867 26.7364 12.2725 26.5459 11.848C26.4508 11.6357 26.3647 11.4192 26.2906 11.1989C26.255 11.0973 26.2222 10.9963 26.1897 10.8925C26.1451 10.832 26.094 10.7761 26.0364 10.7279C26.0038 10.7004 25.9671 10.6807 25.9336 10.6586C25.9183 10.6478 25.9065 10.632 25.8935 10.6244C25.8755 10.6131 25.8578 10.5992 25.8392 10.5907C25.8109 10.5723 25.8097 10.5241 25.8501 10.5188C25.8758 10.5171 25.8992 10.5121 25.9265 10.519C25.9482 10.5253 25.9683 10.5227 25.9873 10.5282C26.0006 10.5331 26.017 10.5385 26.0298 10.5461C26.0307 10.5405 26.0343 10.5353 26.043 10.534C26.0571 10.5162 26.0878 10.518 26.1128 10.5218C26.1131 10.519 26.1164 10.5168 26.1164 10.5168C26.1343 10.4912 26.1803 10.4867 26.1892 10.522C26.1914 10.5253 26.1906 10.5308 26.193 10.534C26.2333 10.5287 26.2656 10.5591 26.2739 10.5971C26.2862 10.647 26.3095 10.6985 26.3274 10.7492C26.4687 11.1805 26.7624 11.5386 27.0763 11.8576C27.4071 12.1958 27.7729 12.5083 28.0801 12.8713C28.2314 13.0496 28.3663 13.2425 28.4734 13.451C28.6027 13.6994 28.6774 13.9735 28.7088 14.2525C28.7749 14.8815 28.627 15.5036 28.5529 16.1256C28.4838 16.6945 28.4762 17.3069 28.7631 17.8221C28.7831 17.8591 28.7624 17.9211 28.7282 17.9412C28.5668 18.0357 28.4187 18.1546 28.2926 18.2966C28.2312 18.3664 28.1716 18.4423 28.1199 18.5221C28.0718 18.5968 28.0133 18.6841 27.9946 18.7716C27.9769 18.851 28.0222 18.9256 28.0567 18.9959C28.0937 19.0694 28.1312 19.14 28.1741 19.2116C28.2623 19.3577 28.3597 19.4996 28.4734 19.627C28.6644 19.8425 28.9034 20.0199 29.1753 20.1119C29.1701 20.1083 29.1623 20.1043 29.1567 20.1034C29.0649 20.0557 28.9716 19.9991 28.8906 19.936C28.7314 19.8102 28.5939 19.6537 28.4772 19.4892C28.4166 19.4036 28.3671 19.3199 28.322 19.2254C28.2791 19.1341 28.2395 19.0405 28.2376 18.9412C28.2361 18.9326 28.2484 18.926 28.2558 18.9327C28.2864 18.9741 28.3105 19.0201 28.3352 19.0635C28.3621 19.1098 28.3829 19.1583 28.4131 19.2024C28.4737 19.2879 28.5256 19.3749 28.5899 19.4553C28.6494 19.5293 28.713 19.5954 28.7833 19.6541C28.8536 19.7128 28.9303 19.7668 29.0071 19.8208C29.1661 19.9296 29.3512 20.034 29.5435 20.0517C29.7218 20.0701 29.9079 19.9994 30.0451 19.8787C30.1857 19.753 30.2505 19.5678 30.297 19.3911C30.3022 19.3749 30.3256 19.3699 30.3314 19.3878C30.413 19.615 30.2954 19.8685 30.1296 20.03C30.1515 20.0164 30.1706 20.0024 30.1897 19.9883C30.2506 19.9409 30.3072 19.8845 30.356 19.8241C30.3649 19.8027 30.376 19.7846 30.385 19.7633C30.4095 19.7133 30.4289 19.6598 30.4484 19.6062C30.4843 19.4985 30.5038 19.3885 30.5123 19.2767C30.5128 19.2541 30.5166 19.2293 30.5144 19.2063C30.5163 19.1754 30.526 19.1487 30.5282 19.115C30.5303 19.1013 30.5296 19.0871 30.5345 19.0737C30.5394 19.0602 30.5437 19.0496 30.5463 19.0331C30.5508 19.0027 30.5499 18.9715 30.5461 18.9397C30.547 18.9341 30.5531 18.9322 30.555 18.9383C30.5623 18.9647 30.5723 18.9918 30.5824 19.0187C30.5862 19.0307 30.59 19.0425 30.5966 19.0548C30.6034 19.0671 30.6109 19.0739 30.6147 19.0857C30.6223 19.1095 30.6269 19.1357 30.6347 19.1595C30.6357 19.1709 30.6373 19.1796 30.6383 19.1911C30.6569 19.1996 30.6713 19.2159 30.6786 19.2425C30.7034 19.3593 30.7001 19.4746 30.6748 19.5867C30.6953 19.6011 30.7088 19.6228 30.7157 19.6522C30.7208 19.6756 30.7229 19.6985 30.7246 19.7242C30.713 19.7451 30.7076 19.781 30.7025 19.8142Z" fill="#9AA7AF"/>
</g>
</g>
</g>
</g>
<mask id="mask9_252_1315" style="mask-type:luminance" maskUnits="userSpaceOnUse" x="24" y="9" width="1" height="1">
<path d="M24.9333 9.59961H24.9778V9.64405H24.9333V9.59961Z" fill="white"/>
</mask>
<g mask="url(#mask9_252_1315)">
<mask id="mask10_252_1315" style="mask-type:luminance" maskUnits="userSpaceOnUse" x="18" y="7" width="15" height="15">
<path d="M20.3414 7.22461L32.4044 9.04805L30.5711 21.1769L18.5081 19.3534L20.3414 7.22461Z" fill="white"/>
</mask>
<g mask="url(#mask10_252_1315)">
<mask id="mask11_252_1315" style="mask-type:luminance" maskUnits="userSpaceOnUse" x="18" y="7" width="15" height="15">
<path d="M20.3414 7.22461L32.4044 9.04805L30.5711 21.1769L18.5081 19.3534L20.3414 7.22461Z" fill="white"/>
</mask>
<g mask="url(#mask11_252_1315)">
<mask id="mask12_252_1315" style="mask-type:luminance" maskUnits="userSpaceOnUse" x="18" y="7" width="15" height="15">
<path d="M20.3414 7.22461L32.4044 9.04805L30.5711 21.1769L18.5081 19.3534L20.3414 7.22461Z" fill="white"/>
</mask>
<g mask="url(#mask12_252_1315)">
<path d="M24.946 9.63281C24.949 9.63684 24.949 9.63684 24.946 9.63281Z" fill="#DD1212"/>
</g>
</g>
</g>
</g>
<mask id="mask13_252_1315" style="mask-type:luminance" maskUnits="userSpaceOnUse" x="24" y="9" width="1" height="1">
<path d="M24.4001 9.82227H24.4446V9.86671H24.4001V9.82227Z" fill="white"/>
</mask>
<g mask="url(#mask13_252_1315)">
<mask id="mask14_252_1315" style="mask-type:luminance" maskUnits="userSpaceOnUse" x="18" y="7" width="15" height="15">
<path d="M20.3414 7.22461L32.4044 9.04805L30.5711 21.1769L18.5081 19.3534L20.3414 7.22461Z" fill="white"/>
</mask>
<g mask="url(#mask14_252_1315)">
<mask id="mask15_252_1315" style="mask-type:luminance" maskUnits="userSpaceOnUse" x="18" y="7" width="15" height="15">
<path d="M20.3414 7.22461L32.4044 9.04805L30.5711 21.1769L18.5081 19.3534L20.3414 7.22461Z" fill="white"/>
</mask>
<g mask="url(#mask15_252_1315)">
<mask id="mask16_252_1315" style="mask-type:luminance" maskUnits="userSpaceOnUse" x="18" y="7" width="15" height="15">
<path d="M20.3414 7.22461L32.4044 9.04805L30.5711 21.1769L18.5081 19.3534L20.3414 7.22461Z" fill="white"/>
</mask>
<g mask="url(#mask16_252_1315)">
<path d="M24.4038 9.83105C24.4068 9.83509 24.4068 9.83509 24.4038 9.83105Z" fill="#DD1212"/>
</g>
</g>
</g>
</g>
<mask id="mask17_252_1315" style="mask-type:luminance" maskUnits="userSpaceOnUse" x="22" y="8" width="10" height="10">
<path d="M22.2666 8.08887H31.1555V17.9555H22.2666V8.08887Z" fill="white"/>
</mask>
<g mask="url(#mask17_252_1315)">
<mask id="mask18_252_1315" style="mask-type:luminance" maskUnits="userSpaceOnUse" x="18" y="7" width="15" height="15">
<path d="M20.3414 7.22461L32.4044 9.04805L30.5711 21.1769L18.5081 19.3534L20.3414 7.22461Z" fill="white"/>
</mask>
<g mask="url(#mask18_252_1315)">
<mask id="mask19_252_1315" style="mask-type:luminance" maskUnits="userSpaceOnUse" x="18" y="7" width="15" height="15">
<path d="M20.3414 7.22461L32.4044 9.04805L30.5711 21.1769L18.5081 19.3534L20.3414 7.22461Z" fill="white"/>
</mask>
<g mask="url(#mask19_252_1315)">
<mask id="mask20_252_1315" style="mask-type:luminance" maskUnits="userSpaceOnUse" x="18" y="7" width="15" height="15">
<path d="M20.3414 7.22461L32.4044 9.04805L30.5711 21.1769L18.5081 19.3534L20.3414 7.22461Z" fill="white"/>
</mask>
<g mask="url(#mask20_252_1315)">
<path d="M31.0996 13.0339C31.1548 12.6691 31.1693 12.2925 31.0595 11.9339C31.0043 11.7559 30.9144 11.584 30.7885 11.4434C30.7717 11.424 30.7507 11.4123 30.729 11.4063C30.6576 11.2795 30.5771 11.1571 30.4838 11.0441C30.3456 10.8734 30.1823 10.7188 30.0029 10.5955C29.9104 10.5335 29.8172 10.4769 29.717 10.428C29.6064 10.3743 29.4908 10.3344 29.3755 10.2915C29.2439 10.2462 29.1125 10.1979 28.9936 10.1234C28.9314 10.0858 28.875 10.0292 28.8055 10.0017C28.7439 9.97831 28.6732 9.979 28.6175 10.0101C28.6132 10.0011 28.609 9.99185 28.6043 9.98543C28.521 9.80609 28.4323 9.62588 28.3432 9.44862C28.2976 9.35678 28.2517 9.26789 28.2029 9.17866C28.1901 9.15122 28.1745 9.12345 28.1616 9.09602C28.1535 9.07501 28.1449 9.05678 28.1359 9.04133C28.1146 8.99567 28.0864 8.95747 28.055 8.92171C28.055 8.92171 28.055 8.92171 28.0528 8.91841C27.9861 8.83491 27.9019 8.77414 27.8035 8.73386C27.7529 8.71199 27.7012 8.69862 27.6495 8.68508C27.5977 8.67154 27.5363 8.6481 27.4851 8.66876C27.4699 8.67484 27.4573 8.68421 27.4496 8.69723C27.4109 8.6915 27.3722 8.6856 27.3338 8.67692C27.2154 8.65626 27.0949 8.62952 26.9772 8.60331C26.8375 8.57362 26.6941 8.54914 26.5507 8.56147C26.5222 8.56268 26.5 8.57918 26.4828 8.59914C26.4576 8.57848 26.4324 8.55765 26.4074 8.53682C26.3342 8.47779 26.2531 8.43438 26.1684 8.39619C26.1606 8.3922 26.1526 8.3882 26.1448 8.38421C26.1404 8.37501 26.1357 8.36859 26.1288 8.35904C26.104 8.3356 26.0861 8.30452 26.0581 8.28334C26.0274 8.26182 25.9904 8.24497 25.9594 8.22605C25.8958 8.19671 25.8292 8.16963 25.7618 8.1481C25.6213 8.10435 25.4797 8.10557 25.3335 8.13716C25.1871 8.16876 25.0417 8.21459 24.8969 8.25487C24.7609 8.29376 24.6226 8.32935 24.4885 8.37397C24.3545 8.41876 24.2262 8.48143 24.0932 8.53751C23.9667 8.58907 23.837 8.62327 23.705 8.65418C23.5698 8.68751 23.4366 8.72657 23.3111 8.78959C23.1861 8.84984 23.0675 8.92241 22.9514 8.9981C22.8262 9.07813 22.7057 9.16459 22.5949 9.26077C22.5396 9.30904 22.4837 9.35991 22.4331 9.41442C22.3991 9.45175 22.3675 9.4922 22.3359 9.53265C22.322 9.55036 22.3052 9.56754 22.2936 9.58838C22.25 9.65244 22.3399 9.73109 22.3896 9.66511C22.4107 9.63716 22.4375 9.61008 22.4642 9.58317C22.5064 9.54706 22.5533 9.51737 22.6017 9.49654C22.6024 9.51077 22.6007 9.52171 22.6014 9.53595C22.5998 9.54706 22.6009 9.55852 22.5991 9.56963C22.5816 9.59237 22.5691 9.61876 22.5699 9.65001C22.5706 9.66425 22.5856 9.67779 22.5995 9.67987C22.6552 9.68543 22.6982 9.64393 22.7354 9.60435C22.772 9.56754 22.8059 9.53022 22.8375 9.48977C22.8547 9.4698 22.8687 9.45209 22.8831 9.43161C22.8967 9.47327 22.9156 9.51563 22.9328 9.55227C22.9498 9.58872 22.9698 9.62553 22.9929 9.66025C23.0107 9.69116 23.0347 9.72015 23.0701 9.72848L23.0726 9.73161C23.0797 9.74116 23.0934 9.74324 23.1029 9.73612C23.1094 9.73143 23.1158 9.72675 23.1193 9.72171C23.1349 9.71268 23.1451 9.70018 23.1481 9.68091C23.1486 9.67813 23.1521 9.67293 23.1526 9.67015C23.1618 9.64619 23.1684 9.62171 23.1753 9.59445C23.1847 9.5507 23.1943 9.50695 23.2036 9.46303L23.2042 9.46043C23.2142 9.46754 23.2245 9.47466 23.2352 9.47918C23.2686 9.50122 23.3021 9.52327 23.3351 9.54793C23.3654 9.57241 23.3988 9.59428 23.4286 9.62154C23.4436 9.63508 23.4585 9.64862 23.4738 9.65938C23.4915 9.67345 23.5104 9.679 23.529 9.68751C23.5389 9.69758 23.5514 9.70782 23.5672 9.71598C23.5986 9.73195 23.642 9.70747 23.6474 9.67154C23.6486 9.6632 23.6467 9.6573 23.6479 9.64897C23.6482 9.66598 23.6493 9.64063 23.6469 9.63751C23.6453 9.62883 23.6434 9.62293 23.6415 9.61685C23.6396 9.61095 23.638 9.60227 23.638 9.60227C23.6342 9.59046 23.63 9.58126 23.6257 9.57206C23.6792 9.61129 23.7453 9.64116 23.8029 9.67241C23.8135 9.67692 23.821 9.68369 23.8316 9.68803C23.834 9.69116 23.8396 9.69202 23.8418 9.69532C23.8446 9.69567 23.8498 9.69932 23.8524 9.69966C23.8706 9.71095 23.8859 9.72171 23.9036 9.7356C23.9111 9.74254 23.9186 9.74932 23.9288 9.75643C23.9288 9.75643 23.9316 9.75678 23.9311 9.75956C23.9357 9.76598 23.9432 9.77275 23.9479 9.77918C23.9554 9.78595 23.9628 9.79272 23.9736 9.79706C23.9818 9.81807 23.9953 9.83994 24.013 9.854C24.0437 9.87553 24.0818 9.8672 24.0982 9.833C24.1179 9.79636 24.1104 9.75279 24.1047 9.71529C24.0982 9.68317 24.0949 9.64879 24.0889 9.6139C24.0884 9.59966 24.0849 9.58508 24.0845 9.56807C24.0925 9.57206 24.1031 9.5764 24.1106 9.58317C24.1134 9.58369 24.1128 9.58647 24.1128 9.58647C24.118 9.58994 24.1208 9.59046 24.1259 9.59411C24.1338 9.5981 24.1413 9.60487 24.1463 9.60852C24.1616 9.61928 24.1793 9.63317 24.1948 9.64393C24.23 9.67188 24.2627 9.69949 24.2917 9.73213C24.2941 9.73543 24.2963 9.73855 24.3015 9.7422C24.3015 9.7422 24.3062 9.74845 24.309 9.74897C24.316 9.75852 24.3234 9.76529 24.3305 9.77484C24.3451 9.79116 24.3632 9.80227 24.3821 9.808C24.3844 9.81112 24.3868 9.81442 24.3892 9.81754C24.3943 9.82119 24.3939 9.82397 24.3967 9.82432C24.4139 9.84116 24.4333 9.84393 24.4547 9.83317C24.4892 9.81008 24.4991 9.76355 24.5078 9.72518C24.509 9.71702 24.5102 9.70869 24.5114 9.70036C24.5307 9.7231 24.5535 9.74063 24.5795 9.75591C24.5873 9.75991 24.5953 9.7639 24.6031 9.76789C24.6031 9.76789 24.6031 9.76789 24.6059 9.76841C24.6083 9.77154 24.6139 9.77241 24.6161 9.77553C24.6186 9.77866 24.6213 9.77918 24.6208 9.78195L24.6232 9.78508C24.6279 9.7915 24.6326 9.79775 24.6373 9.80418C24.6396 9.8073 24.6415 9.81338 24.6439 9.8165C24.6482 9.8257 24.6502 9.83161 24.6543 9.84063C24.663 9.85886 24.6712 9.88004 24.6828 9.89584C24.6899 9.90539 24.6977 9.90938 24.7083 9.9139C24.7151 9.92622 24.7312 9.93143 24.7455 9.93074C24.7854 9.92831 24.8193 9.89098 24.8437 9.86077C24.8613 9.83803 24.8821 9.81286 24.8996 9.79011C24.9007 9.80157 24.9022 9.81025 24.9033 9.82171C24.904 9.83595 24.9052 9.84758 24.9059 9.86182C24.905 9.8672 24.9038 9.87553 24.9057 9.88143C24.9043 9.88977 24.9059 9.89845 24.9047 9.90678C24.8939 9.92206 24.8845 9.94619 24.8816 9.96546C24.8792 9.98213 24.8845 10.0026 24.8998 10.0136C24.9101 10.0207 24.9234 10.0255 24.9377 10.0248C24.9552 10.0219 24.9647 10.0148 24.9752 10.0023C24.9842 9.99793 24.9937 9.99098 25.0029 9.98664C25.0057 9.98699 25.0061 9.98438 25.0088 9.98473C25.0088 9.98473 25.0153 9.98004 25.018 9.98039C25.055 9.9606 25.0943 9.94393 25.1312 9.92414C25.1526 9.9132 25.1772 9.90001 25.1988 9.88907C25.1967 9.90279 25.1974 9.91702 25.1953 9.93091C25.193 9.9448 25.1943 9.95626 25.1925 9.9672C25.1915 9.95574 25.1913 9.97553 25.191 9.97831C25.1892 9.98942 25.1903 10.0009 25.1918 10.0096C25.1929 10.021 25.1956 10.0214 25.1944 10.0297C25.1856 10.0877 25.2606 10.116 25.2981 10.0736C25.3085 10.0611 25.3208 10.0545 25.3396 10.0432C25.3458 10.0386 25.355 10.0342 25.3614 10.0295C25.3614 10.0295 25.3736 10.0229 25.371 10.0224C25.3741 10.0201 25.3831 10.0158 25.3805 10.0155C25.3805 10.0155 25.3901 10.0083 25.3927 10.0089C25.396 10.0064 25.3988 10.007 25.4019 10.0045C25.4111 10.0004 25.4201 9.99602 25.4293 9.99168C25.4384 9.98751 25.4476 9.98317 25.4562 9.98161C25.4595 9.97935 25.4649 9.98022 25.4682 9.97779C25.4682 9.97779 25.4741 9.97588 25.48 9.97397C25.4828 9.97432 25.4861 9.97206 25.4861 9.97206C25.4861 9.97206 25.4889 9.97241 25.4915 9.97293L25.4939 9.97605C25.4963 9.97918 25.4958 9.98195 25.4982 9.98525C25.4982 9.98525 25.4982 9.98525 25.4977 9.98803C25.4977 9.98803 25.4993 9.99671 25.4989 9.99949C25.4989 9.99949 25.4984 10.0023 25.4981 10.005C25.4845 10.0198 25.4705 10.0375 25.4569 10.0524C25.4465 10.0649 25.4361 10.0776 25.4253 10.0929C25.4182 10.1031 25.414 10.1109 25.4042 10.1208C25.3847 10.1377 25.375 10.1644 25.391 10.1894C25.4019 10.2109 25.4333 10.2269 25.4552 10.2134C25.4863 10.1953 25.5236 10.1728 25.5566 10.1608C25.5597 10.1585 25.5653 10.1592 25.5712 10.1573L25.5684 10.157C25.5739 10.1578 25.5798 10.1559 25.5854 10.1566C25.5969 10.1556 25.6061 10.1512 25.6147 10.1498C25.6349 10.1472 25.6547 10.1474 25.6722 10.1443L25.675 10.1448C25.6778 10.1451 25.6804 10.1457 25.6804 10.1457C25.6887 10.1469 25.697 10.1481 25.7026 10.149C25.7081 10.1498 25.7109 10.1502 25.7165 10.1511L25.7193 10.1514C25.7219 10.1519 25.7219 10.1519 25.7246 10.1523C25.7274 10.1528 25.7302 10.1531 25.7354 10.1568C25.741 10.1575 25.7432 10.1608 25.7488 10.1616C25.7293 10.1785 25.7066 10.1976 25.6884 10.2061C25.6545 10.2236 25.6316 10.2625 25.6488 10.2991C25.666 10.3356 25.7029 10.3524 25.7418 10.3386C25.7446 10.3391 25.7625 10.3332 25.7625 10.3332C25.7712 10.3318 25.783 10.3278 25.7913 10.3292C25.8 10.3276 25.8083 10.3288 25.8198 10.3278C25.8226 10.3281 25.8253 10.3287 25.8281 10.329C25.8281 10.329 25.8309 10.3295 25.8337 10.3299C25.8562 10.3304 25.876 10.3306 25.8981 10.334C25.9064 10.3353 25.9147 10.3365 25.9203 10.3373C25.9229 10.3377 25.9529 10.3451 25.9368 10.3398C25.9396 10.3403 25.9479 10.3415 25.9557 10.3455C25.9581 10.3486 25.9609 10.3491 25.9632 10.3523C25.9335 10.362 25.9123 10.3898 25.9132 10.421C25.9134 10.4578 25.9399 10.4873 25.9755 10.4955C25.9977 10.4988 26.0194 10.5049 26.0415 10.5083C26.0663 10.512 26.0949 10.5108 26.1206 10.5089C26.1578 10.5061 26.1927 10.5 26.226 10.4853C26.2309 10.5087 26.2378 10.538 26.2519 10.5571C26.2543 10.5603 26.2594 10.5639 26.2613 10.5698C26.2729 10.6054 26.2849 10.6384 26.2993 10.6745C26.3493 10.7922 26.4146 10.9038 26.48 11.0127C26.6116 11.2276 26.7623 11.4285 26.9226 11.6222C27.0903 11.8229 27.2644 12.0188 27.442 12.2096C27.5397 12.312 27.6378 12.4116 27.7451 12.507C27.8401 12.5892 27.9408 12.6722 28.0231 12.7639C28.1175 12.8686 28.1878 12.9837 28.2573 13.1045C28.3092 13.1915 28.3673 13.2936 28.4515 13.3543C28.4635 13.3872 28.4786 13.4177 28.4906 13.4507C28.5996 13.7215 28.6812 14.0052 28.7193 14.2965C28.7599 14.608 28.7403 14.9243 28.7102 15.2365C28.6936 15.4205 28.6743 15.6042 28.6524 15.7873C28.6417 15.8762 28.6279 15.9674 28.6173 16.0563C28.6102 16.1031 28.6064 16.1478 28.6047 16.1957C28.6042 16.2182 28.6005 16.2431 28.6026 16.266C28.6014 16.2743 28.6033 16.2802 28.6048 16.2889C28.5972 16.3387 28.5922 16.3917 28.5873 16.4417C28.5514 16.7359 28.5455 17.0375 28.5949 17.3276C28.6252 17.5017 28.6847 17.6691 28.7328 17.8375C28.7493 17.8965 28.8272 17.9054 28.8686 17.875C28.9191 17.8401 28.9778 17.8264 29.0361 17.8155C29.068 17.809 29.0998 17.8054 29.1314 17.8016C29.1314 17.8016 29.1314 17.8016 29.1342 17.8021C29.1371 17.8392 29.1602 17.8738 29.2071 17.8809C29.3123 17.8967 29.4196 17.8792 29.5272 17.8785C29.5613 17.878 29.5976 17.8806 29.6359 17.8892C29.6465 17.8936 29.6599 17.8984 29.6706 17.903C29.6729 17.9061 29.6726 17.9089 29.6753 17.9092C29.689 17.9311 29.7139 17.9349 29.7349 17.9267C29.7404 17.9276 29.7432 17.928 29.7488 17.9288C29.768 17.9318 29.7932 17.9158 29.7932 17.896C29.7948 17.8679 29.7953 17.8455 29.776 17.8228L29.7738 17.8196C29.7734 17.7658 29.767 17.7139 29.7607 17.6622C29.7495 17.587 29.7387 17.509 29.7361 17.4323C29.7274 17.284 29.7357 17.1354 29.7767 16.9946C29.8147 16.8563 29.8793 16.7274 29.9413 16.5984C30.0073 16.4613 30.0729 16.3271 30.1283 16.1856C30.2389 15.9028 30.3222 15.6129 30.414 15.3243C30.4611 15.1816 30.5107 15.0394 30.5658 14.9007C30.6238 14.7596 30.6903 14.6198 30.7507 14.482C30.8205 14.3201 30.8767 14.1535 30.9168 13.9814C30.9377 13.8997 30.9535 13.8144 30.9687 13.732C30.9691 13.7292 30.9691 13.7292 30.9696 13.7264C30.9781 13.6882 30.9868 13.65 30.9922 13.6141C31.0316 13.4278 31.0701 13.23 31.0996 13.0339Z" fill="#DD1212"/>
</g>
</g>
</g>
</g>
<mask id="mask21_252_1315" style="mask-type:luminance" maskUnits="userSpaceOnUse" x="25" y="8" width="6" height="10">
<path d="M25.1555 8.5332H30.9777V17.911H25.1555V8.5332Z" fill="white"/>
</mask>
<g mask="url(#mask21_252_1315)">
<mask id="mask22_252_1315" style="mask-type:luminance" maskUnits="userSpaceOnUse" x="18" y="7" width="15" height="15">
<path d="M20.3414 7.22461L32.4044 9.04805L30.5711 21.1769L18.5081 19.3534L20.3414 7.22461Z" fill="white"/>
</mask>
<g mask="url(#mask22_252_1315)">
<mask id="mask23_252_1315" style="mask-type:luminance" maskUnits="userSpaceOnUse" x="18" y="7" width="15" height="15">
<path d="M20.3414 7.22461L32.4044 9.04805L30.5711 21.1769L18.5081 19.3534L20.3414 7.22461Z" fill="white"/>
</mask>
<g mask="url(#mask23_252_1315)">
<mask id="mask24_252_1315" style="mask-type:luminance" maskUnits="userSpaceOnUse" x="18" y="7" width="15" height="15">
<path d="M20.3414 7.22461L32.4044 9.04805L30.5711 21.1769L18.5081 19.3534L20.3414 7.22461Z" fill="white"/>
</mask>
<g mask="url(#mask24_252_1315)">
<path d="M30.5373 15.052C30.5147 15.0883 30.4857 15.1121 30.4433 15.1114C30.4065 15.1116 30.3621 15.0878 30.3508 15.0494C30.28 14.8069 30.2091 14.5643 30.1411 14.3223C30.0765 14.0949 30.0123 13.8647 29.9774 13.6277C29.9489 13.4227 29.9518 13.2168 29.9657 13.0126C29.9775 12.8222 29.9932 12.6435 29.9821 12.4553C29.976 12.364 29.963 12.2631 29.9388 12.1803C29.931 12.1565 29.9256 12.1359 29.918 12.1121C29.9159 12.1062 29.914 12.1003 29.9093 12.0939C29.9065 12.0933 29.9034 12.0958 29.9006 12.0954C29.886 12.0987 29.8737 12.1055 29.8586 12.1116C29.8586 12.1116 29.8399 12.1228 29.8367 12.1253C29.8303 12.13 29.8235 12.1374 29.8171 12.1421C29.814 12.1444 29.814 12.1444 29.814 12.1444C29.814 12.1444 29.8137 12.1472 29.8104 12.1496C29.8069 12.1546 29.8036 12.157 29.8001 12.1621C29.7897 12.1748 29.7789 12.19 29.768 12.2053C29.7676 12.2081 29.7649 12.2077 29.7645 12.2103C29.7645 12.2103 29.764 12.2131 29.7609 12.2156C29.7569 12.2234 29.7529 12.2314 29.7487 12.2392C29.7291 12.2758 29.715 12.3131 29.7032 12.3537C29.7027 12.3565 29.7024 12.3593 29.7024 12.3593C29.7018 12.3621 29.7018 12.3621 29.7015 12.3649C29.7003 12.3732 29.6958 12.3838 29.6946 12.3921C29.6921 12.4086 29.6873 12.422 29.6847 12.4386C29.6472 12.6308 29.6314 12.8291 29.6246 13.0232C29.6175 13.2199 29.6246 13.4161 29.64 13.6135C29.6498 13.7364 29.665 13.8603 29.6862 13.9822C29.7229 14.0951 29.7742 14.2046 29.8291 14.3091C29.8949 14.435 29.9774 14.5633 30.0643 14.681C30.109 14.7414 30.1536 14.8018 30.2008 14.8628C30.2487 14.9209 30.2968 14.9761 30.338 15.0418C30.3831 15.1164 30.4079 15.1965 30.4091 15.2815C30.41 15.3692 30.3916 15.4541 30.3703 15.5385C30.3274 15.71 30.2631 15.8728 30.1911 16.0315C30.0555 16.3303 29.8881 16.6133 29.7923 16.9294C29.709 17.1996 29.6796 17.506 29.7887 17.7768C29.8178 17.8463 29.7579 17.9051 29.6904 17.9034C29.5808 17.898 29.4744 17.8906 29.3676 17.8857C29.3143 17.8833 29.2609 17.8808 29.2079 17.8756C29.1803 17.8715 29.1466 17.8692 29.1227 17.86C29.1041 17.8515 29.0895 17.8352 29.0779 17.8192C28.9968 17.8692 28.8801 17.9109 28.7916 17.8607C28.7888 17.8603 28.7855 17.8626 28.7828 17.8623C28.7682 17.8657 28.7505 17.8517 28.7584 17.836C28.759 17.8333 28.7624 17.8281 28.763 17.8253C28.7524 17.8011 28.7567 17.7735 28.7817 17.7576C28.794 17.751 28.8036 17.7439 28.8159 17.7373C28.8263 17.7248 28.8362 17.7149 28.8466 17.7024C28.881 17.6623 28.9102 17.6187 28.9393 17.5749C29.044 17.407 29.1013 17.215 29.1661 17.0298C29.2426 16.8039 29.335 16.5862 29.4277 16.3656C29.4317 16.3577 29.4425 16.3621 29.4411 16.3704C29.4147 16.5077 29.3887 16.6423 29.3539 16.7784C29.2989 16.9933 29.2355 17.207 29.148 17.4116C29.1343 17.4461 29.1182 17.4777 29.1017 17.5119C29.1048 17.5097 29.1053 17.5069 29.1084 17.5044C29.1157 17.4942 29.1229 17.484 29.1305 17.4711C29.1308 17.4683 29.1308 17.4683 29.1336 17.4687L29.1341 17.4659C29.1378 17.4609 29.1381 17.4581 29.1418 17.4529C29.1565 17.4298 29.169 17.4034 29.181 17.3798C29.2904 17.1617 29.377 16.926 29.4571 16.6951C29.5421 16.4506 29.6216 16.2055 29.6711 15.9529C29.7124 15.7359 29.7275 15.5234 29.7128 15.3034C29.7074 15.2827 29.7024 15.2595 29.697 15.2388C29.6715 15.1275 29.6546 15.0149 29.6348 14.9015C29.6229 14.8319 29.6107 14.7623 29.5982 14.6954C29.5855 14.6482 29.5723 14.6037 29.5597 14.5567C29.5564 14.5419 29.5607 14.5314 29.5675 14.5239C29.5513 14.4255 29.5322 14.3263 29.5161 14.2279C29.4814 14.0275 29.4461 13.83 29.4112 13.6298C29.3756 13.435 29.3373 13.2397 29.3135 13.0411C29.2899 12.8425 29.2887 12.6445 29.293 12.4473C29.2949 12.2666 29.2956 12.0746 29.261 11.8912C29.2296 11.7255 29.1692 11.5636 29.1119 11.3994C29.0527 11.2294 29.0018 11.0607 28.972 10.8836C28.9487 10.7388 28.9345 10.5897 28.9024 10.4463C28.9005 10.4404 28.9005 10.4404 28.9008 10.4376C28.9008 10.4376 28.9013 10.4348 28.8989 10.4317C28.8973 10.423 28.8932 10.4138 28.8921 10.4024C28.8887 10.3878 28.8824 10.3727 28.8762 10.3576C28.8642 10.3248 28.8491 10.2942 28.8369 10.2612C28.8114 10.2065 28.7749 10.1473 28.7414 10.0885C28.717 10.0452 28.7534 9.99142 28.8043 10.0103C28.8685 10.0341 28.9183 10.0784 28.9583 10.1326C28.9824 10.1418 29.0055 10.1567 29.0265 10.1683C29.0393 10.176 29.052 10.1862 29.0645 10.1966C29.0925 10.1812 29.1272 10.1751 29.1536 10.1876C29.3985 10.2895 29.6558 10.402 29.8654 10.5694C29.9107 10.5874 29.9548 10.614 29.9926 10.6451C30.1612 10.7836 30.2696 10.9838 30.3439 11.1843C30.3841 11.2921 30.4154 11.4043 30.4437 11.5161C30.4735 11.6364 30.5067 11.7544 30.5307 11.8768C30.5317 11.8883 30.5175 11.889 30.5131 11.8798C30.452 11.7603 30.3972 11.6362 30.3453 11.5124C30.3305 11.4791 30.3185 11.4461 30.3038 11.413C30.3187 11.5565 30.3227 11.6984 30.3465 11.8406C30.3725 12.0055 30.4393 12.1626 30.5487 12.281C30.6072 12.3435 30.681 12.397 30.7465 12.4324C30.7961 12.4597 30.8458 12.4869 30.8786 12.5315C30.9142 12.5765 30.9288 12.6296 30.9347 12.6841C30.9557 12.8824 30.9616 13.0867 30.9595 13.2871C30.9595 13.4935 30.9506 13.7013 30.9225 13.9062C30.8572 14.3006 30.7433 14.6989 30.5373 15.052ZM28.9954 14.4911C28.9881 14.5579 28.9725 14.6234 28.9652 14.69C28.9631 14.7039 28.9433 14.7037 28.9428 14.6895C28.9366 14.618 28.9222 14.5451 28.9137 14.4702C28.9081 14.413 28.9022 14.3584 28.894 14.3006C28.8928 14.4022 28.8888 14.5034 28.8821 14.6041C28.8762 14.6624 28.8729 14.7215 28.8645 14.7767C28.8562 14.8319 28.8423 14.8864 28.8312 14.9412C28.8216 14.985 28.7532 14.9888 28.7492 14.9402C28.7433 14.8855 28.7374 14.831 28.7348 14.7741C28.7208 14.5485 28.7293 14.3237 28.6982 14.0985C28.6678 13.8876 28.6291 13.6952 28.5425 13.5011C28.5239 13.456 28.502 13.4131 28.4801 13.3702C28.4607 13.3305 28.447 13.3088 28.4201 13.2623C28.3701 13.1812 28.3166 13.1053 28.2598 13.0317C28.2006 12.955 28.1383 12.8805 28.0756 12.8088C28.0444 12.773 28.013 12.7371 27.9784 12.7036C27.9489 12.6737 27.9274 12.6478 27.8906 12.6112C27.6135 12.3291 27.317 12.0638 27.0598 11.7621C26.7718 11.4216 26.5376 11.0442 26.331 10.6513C26.2893 10.5715 26.248 10.4888 26.2064 10.4091C26.2027 10.4142 26.1987 10.4222 26.1953 10.4272C26.1876 10.4402 26.1803 10.4505 26.1676 10.4598C26.1609 10.4673 26.1513 10.4742 26.1446 10.4817C26.1159 10.5029 26.081 10.5088 26.0463 10.4951C26.0277 10.4867 26.0121 10.4786 25.9998 10.4656C25.9805 10.4626 25.9656 10.4491 25.9534 10.4359C25.9463 10.4263 25.9388 10.4195 25.935 10.4077C25.9284 10.3954 25.9277 10.3812 25.927 10.3669L25.9262 10.3723C25.9281 10.3416 25.9244 10.31 25.9175 10.2807C25.9178 10.2779 25.9156 10.2748 25.9159 10.272C25.8885 10.3044 25.8584 10.334 25.8239 10.3569C25.8208 10.3593 25.8143 10.364 25.8084 10.3659C25.8084 10.3659 25.8057 10.3656 25.8051 10.3683C25.7992 10.3702 25.7956 10.3753 25.7897 10.3772C25.7211 10.4008 25.6505 10.3251 25.7005 10.2564C25.7041 10.2511 25.7072 10.2489 25.7109 10.2437C25.6999 10.2223 25.6951 10.1989 25.7012 10.1772C25.6755 10.1791 25.6505 10.1753 25.6237 10.1656C25.6024 10.1567 25.5883 10.1376 25.5801 10.1166C25.5709 10.1209 25.5619 10.1251 25.5555 10.1298C25.5157 10.1492 25.4657 10.1812 25.4239 10.1579C25.3953 10.1423 25.4043 10.1013 25.419 10.0781C25.4303 10.06 25.447 10.0428 25.4633 10.0282C25.4703 10.0208 25.4765 10.0161 25.4833 10.0086C25.443 10.0138 25.4076 10.0227 25.3708 10.0425C25.3305 10.0647 25.2965 10.085 25.2524 10.0952C25.2406 10.0992 25.2312 10.0864 25.2268 10.0774C25.2253 10.0687 25.2237 10.0598 25.2246 10.0544C25.1892 10.0461 25.1654 9.99733 25.2055 9.9751C25.2333 9.95965 25.2564 9.9376 25.2815 9.92163C25.3062 9.90844 25.3307 9.89507 25.3553 9.88187C25.4046 9.85548 25.4562 9.83222 25.5055 9.80566C25.536 9.79055 25.5616 9.7718 25.5788 9.75167C25.5873 9.73326 25.5984 9.71521 25.6091 9.69976C25.6128 9.69472 25.6168 9.68691 25.6204 9.6817C25.6256 9.66555 25.6286 9.64628 25.6288 9.62649C25.6279 9.53864 25.5951 9.4376 25.5722 9.34646C25.5456 9.24073 25.5402 9.12684 25.581 9.02562C25.6076 8.96173 25.6902 8.97719 25.7163 9.0291C25.8001 9.18587 25.881 9.34229 25.9525 9.50583C25.9716 9.54819 25.988 9.59021 26.0069 9.63274C26.0203 9.65739 26.0334 9.68187 26.0466 9.70653C26.076 9.75618 26.1024 9.80548 26.1286 9.85739C26.1788 9.95548 26.2322 10.0511 26.2824 10.1492C26.3801 10.3449 26.4834 10.5414 26.5911 10.7274C26.7659 11.0307 26.9565 11.3225 27.1791 11.5907C27.1628 11.5683 27.1459 11.5489 27.1322 11.527C26.9902 11.3248 26.8678 11.1055 26.748 10.8867C26.6279 10.6708 26.5166 10.4532 26.4024 10.2352C26.3456 10.1249 26.2887 10.0145 26.2378 9.90219C26.1864 9.79264 26.1263 9.68465 26.1135 9.56399C26.1119 9.55531 26.1239 9.55149 26.1286 9.55792C26.218 9.65896 26.265 9.79611 26.3258 9.91833C26.3866 10.0406 26.4496 10.1661 26.519 10.2867C26.64 10.4973 26.767 10.7058 26.897 10.9121C27.027 11.1183 27.1539 11.3268 27.2996 11.5241C27.4432 11.7154 27.6064 11.8899 27.7696 12.0643C27.8499 12.1499 27.9239 12.2404 28.0045 12.326C28.0848 12.4116 28.1492 12.509 28.2293 12.5973C28.2367 12.6043 28.2235 12.6162 28.2161 12.6095C28.1604 12.5671 28.1008 12.53 28.0446 12.4904C28.0423 12.4871 28.0395 12.4867 28.0371 12.4836C28.0838 12.5301 28.1301 12.5796 28.1741 12.6258C28.3956 12.8628 28.5989 13.1281 28.7317 13.4281C28.7039 13.3307 28.668 13.2319 28.6284 13.1383C28.6036 13.0781 28.5819 13.0154 28.5543 12.9546C28.5334 12.9062 28.5003 12.8447 28.5031 12.7886C28.5039 12.7831 28.5135 12.776 28.5185 12.7796C28.5473 12.7952 28.5652 12.8263 28.5864 12.855C28.6076 12.8836 28.6227 12.9142 28.6406 12.9451C28.6762 13.0098 28.7084 13.0768 28.7376 13.1463C28.8416 13.3939 28.9249 13.6466 28.9727 13.911C28.9954 14.0418 29.0065 14.1734 29.0064 14.3062C29.0031 14.365 29.0018 14.43 28.9954 14.4911ZM26.067 10.1336C26.0588 10.1126 26.0506 10.0916 26.0426 10.0706C26.0413 10.0789 26.0428 10.0876 26.0411 10.0987C26.0407 10.1013 26.0404 10.1041 26.0395 10.1097C26.0501 10.1142 26.0572 10.1237 26.067 10.1336ZM26.1322 10.282C26.126 10.2669 26.1199 10.2518 26.1137 10.2367C26.1171 10.2515 26.1178 10.2657 26.1183 10.28C26.1235 10.2834 26.1295 10.2815 26.1322 10.282ZM26.684 8.70896C26.7281 8.73552 26.7708 8.75323 26.8197 8.76625C26.8397 8.78344 26.8597 8.80062 26.8793 8.82059C26.9433 8.88396 27.0069 8.9501 27.0708 9.01347C27.2034 9.14646 27.3338 9.27649 27.4637 9.40913C27.4683 9.41555 27.4734 9.41903 27.4786 9.42267C27.4977 9.46521 27.5166 9.50757 27.536 9.54733C27.6209 9.71555 27.7086 9.8843 27.8178 10.0421C27.8784 10.1275 27.9426 10.2079 28.0164 10.2814C28.0532 10.318 28.0902 10.3546 28.1307 10.3862C28.1506 10.4034 28.1711 10.4178 28.1944 10.4326C28.2204 10.4478 28.243 10.4484 28.2709 10.4498C28.2935 10.4505 28.3104 10.4331 28.3025 10.4093C28.2944 10.3883 28.2918 10.3682 28.2805 10.3496C28.2687 10.3336 28.2538 10.3201 28.239 10.3065C28.2119 10.2798 28.1848 10.2531 28.1581 10.2235C28.1051 10.1619 28.0555 10.0978 28.0093 10.0287C27.9218 9.8968 27.8442 9.75496 27.7722 9.61399C27.7352 9.54055 27.6958 9.46399 27.6619 9.3883C27.6553 9.37597 27.6515 9.36399 27.6449 9.35167C27.6567 9.36764 27.6661 9.38031 27.6777 9.39628C27.726 9.45167 27.781 9.49958 27.8328 9.54976C27.8426 9.55965 27.8557 9.5475 27.8518 9.53569C27.8215 9.47458 27.7999 9.41191 27.7723 9.35114C27.7451 9.28778 27.706 9.22805 27.6725 9.16937C27.6659 9.15705 27.6588 9.1475 27.6522 9.13517C27.6586 9.13048 27.6649 9.1258 27.6713 9.12111C27.7142 9.09941 27.7545 9.11382 27.7939 9.13396C27.8387 9.15496 27.8833 9.17858 27.9277 9.20236C28.0183 9.25844 28.0989 9.32423 28.1758 9.39524C28.2131 9.4291 28.2567 9.45844 28.294 9.49229C28.3114 9.50896 28.3255 9.52805 28.3491 9.54021C28.3727 9.55219 28.3928 9.56937 28.4156 9.58691C28.418 9.59021 28.4211 9.58778 28.422 9.58222C28.4166 9.56173 28.4107 9.54385 28.4081 9.52371C28.4036 9.4975 28.4015 9.47458 28.3878 9.45271C28.3628 9.41226 28.3442 9.36694 28.3156 9.33153C28.301 9.31521 28.2866 9.29889 28.272 9.28257C28.2718 9.26555 28.2692 9.24542 28.263 9.23031C28.2494 9.18882 28.2182 9.15288 28.1887 9.12302C28.1593 9.09316 28.1295 9.06608 28.0963 9.04125C28.0874 9.0258 28.0788 9.00739 28.073 8.98969C28.0279 8.89524 27.9729 8.81052 27.876 8.75913C27.8183 8.72788 27.7529 8.71226 27.6906 8.69437C27.6282 8.67649 27.565 8.66417 27.5018 8.65167C27.3777 8.63014 27.2564 8.62875 27.1321 8.62701C27.0503 8.6258 26.9687 8.62198 26.8926 8.60201C26.8439 8.5692 26.7906 8.54698 26.7321 8.54108C26.6878 8.5343 26.6413 8.56121 26.6288 8.60739C26.6201 8.64559 26.6423 8.68569 26.684 8.70896Z" fill="#910909"/>
</g>
</g>
</g>
</g>
<mask id="mask25_252_1315" style="mask-type:luminance" maskUnits="userSpaceOnUse" x="19" y="8" width="13" height="13">
<path d="M19.5112 8H31.2001V20.9333H19.5112V8Z" fill="white"/>
</mask>
<g mask="url(#mask25_252_1315)">
<mask id="mask26_252_1315" style="mask-type:luminance" maskUnits="userSpaceOnUse" x="18" y="7" width="15" height="15">
<path d="M20.3414 7.22461L32.4044 9.04805L30.5711 21.1769L18.5081 19.3534L20.3414 7.22461Z" fill="white"/>
</mask>
<g mask="url(#mask26_252_1315)">
<mask id="mask27_252_1315" style="mask-type:luminance" maskUnits="userSpaceOnUse" x="18" y="7" width="15" height="15">
<path d="M20.3414 7.22461L32.4044 9.04805L30.5711 21.1769L18.5081 19.3534L20.3414 7.22461Z" fill="white"/>
</mask>
<g mask="url(#mask27_252_1315)">
<mask id="mask28_252_1315" style="mask-type:luminance" maskUnits="userSpaceOnUse" x="18" y="7" width="15" height="15">
<path d="M20.3414 7.22461L32.4044 9.04805L30.5711 21.1769L18.5081 19.3534L20.3414 7.22461Z" fill="white"/>
</mask>
<g mask="url(#mask28_252_1315)">
<path d="M30.6924 19.0017C30.7179 19.0196 30.7436 19.0377 30.7692 19.0557C30.8179 19.0885 30.8923 19.046 30.8646 18.9852C30.7997 18.8342 30.7167 18.6915 30.6148 18.5602L30.6287 18.5623C30.6891 18.5743 30.7183 18.4939 30.6758 18.4564C30.4483 18.2581 30.1825 18.1076 29.8973 18.0109C29.9068 18.0038 29.9114 17.9932 29.9134 17.9793C29.9173 17.9545 29.9044 17.9271 29.8803 17.9179C29.8614 17.9121 29.8456 17.9042 29.8266 17.8984C29.827 17.8956 29.8278 17.8901 29.8256 17.887C29.823 17.8668 29.8176 17.8462 29.8153 17.8233C29.8079 17.7797 29.803 17.7366 29.7987 17.6906C29.789 17.6045 29.7886 17.5139 29.7961 17.4274C29.8093 17.2456 29.853 17.0686 29.9075 16.8958C30.0287 16.5241 30.2143 16.1762 30.3277 15.8005C30.3341 15.776 30.3407 15.7515 30.3499 15.7276C30.366 15.696 30.3822 15.6646 30.3959 15.6298C30.4193 15.5684 30.44 15.5066 30.4607 15.4446C30.5011 15.3264 30.5449 15.2059 30.5909 15.0884C30.6834 14.8509 30.7832 14.62 30.8916 14.3904C30.9456 14.2771 30.9938 14.1628 31.0289 14.0437C31.0643 13.9219 31.0806 13.7944 31.094 13.6691C31.119 13.4101 31.1384 13.1502 31.1551 12.8897C31.1629 12.7637 31.1711 12.6349 31.1761 12.5085C31.1806 12.3849 31.1851 12.2611 31.1695 12.1401C31.1396 11.9066 31.0298 11.6977 30.91 11.4988C30.7971 11.3094 30.6848 11.117 30.5405 10.9483C30.4685 10.8639 30.39 10.7842 30.3011 10.717C30.2072 10.6463 30.102 10.5937 30.0112 10.5206C29.9204 10.4476 29.8332 10.3693 29.7275 10.3194C29.6169 10.266 29.4959 10.242 29.3796 10.2075C29.2686 10.1738 29.1622 10.1293 29.0598 10.0771C28.9546 10.0245 28.8497 9.96908 28.7554 9.9012C28.7247 9.8795 28.694 9.85797 28.6601 9.8387C28.6185 9.75884 28.5771 9.67638 28.5324 9.59895C28.4638 9.47256 28.3919 9.34877 28.3206 9.22204C28.2582 9.11075 28.1994 8.99461 28.1247 8.88992C28.0523 8.78853 27.9603 8.70398 27.8429 8.65797C27.7146 8.60745 27.5728 8.59165 27.4374 8.57117C27.1469 8.52742 26.8556 8.48888 26.5646 8.46752C26.5311 8.46526 26.4947 8.46266 26.4612 8.4604C26.4528 8.45919 26.4414 8.46023 26.4331 8.45901C26.3945 8.43332 26.3532 8.40728 26.3146 8.38176C26.2063 8.31162 26.095 8.24391 25.9836 8.1762C25.8671 8.10485 25.7438 8.04113 25.6082 8.02065C25.4699 7.99964 25.3301 8.02655 25.1954 8.05711C25.0579 8.08714 24.9218 8.12603 24.7877 8.17065C24.5228 8.2578 24.2745 8.38436 24.012 8.47464C23.7586 8.56075 23.4966 8.60867 23.2579 8.72811C23.041 8.83384 22.8473 8.97412 22.6648 9.13315C22.5706 9.21492 22.4844 9.29808 22.3975 9.38662C22.3136 9.4729 22.235 9.56283 22.1563 9.65259C22.1292 9.68245 22.1049 9.71266 22.0801 9.74565C22.0857 9.69009 22.0912 9.63436 22.0964 9.58141C22.1002 9.53679 22.036 9.51301 22.0179 9.55832C21.9258 9.79304 21.5594 9.8394 21.412 9.63627C21.3768 9.58853 21.3035 9.64252 21.3388 9.69026C21.3693 9.73158 21.3907 9.77724 21.4061 9.82481C21.2077 9.80884 21.0093 9.82985 20.8292 9.8986C20.7872 9.91492 20.7898 9.97186 20.8265 9.99148C20.8761 10.0187 20.9221 10.0512 20.965 10.0859C20.7829 10.1489 20.6226 10.2547 20.4961 10.3995C20.4685 10.4321 20.4988 10.4932 20.5428 10.4828C20.5869 10.4726 20.6299 10.4679 20.6723 10.4686C20.4575 10.617 20.2709 10.8036 20.12 11.0154C20.0949 11.0512 20.1197 11.1114 20.1688 11.1047C20.2124 11.0972 20.256 11.0896 20.299 11.0849C20.1296 11.2514 19.9405 11.3981 19.7402 11.526C19.6869 11.5604 19.7372 11.6387 19.7936 11.6219C19.865 11.5988 19.9348 11.5866 20.0087 11.5837C19.9048 11.6726 19.8082 11.7682 19.7188 11.8734C19.6912 11.9059 19.7207 11.9726 19.7676 11.9627C19.8289 11.9495 19.89 11.9389 19.9525 11.937C19.7945 12.1024 19.6612 12.2915 19.5622 12.497C19.5414 12.5418 19.587 12.5771 19.6282 12.5663C19.6905 12.5476 19.7554 12.529 19.8181 12.5075C19.7075 12.7338 19.61 12.9679 19.5261 13.2038C19.5103 13.2524 19.5617 13.3054 19.6094 13.2701C19.6285 13.2561 19.6449 13.2417 19.6645 13.2248C19.615 13.4208 19.5846 13.6226 19.5766 13.8248C19.5758 13.8672 19.623 13.9111 19.6648 13.8778C19.723 13.83 19.7815 13.7795 19.8396 13.7318C19.8266 13.8175 19.8133 13.9059 19.8004 13.9915C19.7928 14.0413 19.8502 14.0726 19.8884 14.0444C20.0273 13.9495 20.1662 13.8547 20.3027 13.7566C20.2777 13.8094 20.2527 13.8621 20.2306 13.9153C20.2093 13.9628 20.2712 14.0203 20.314 13.9816C20.4641 13.8488 20.6287 13.7323 20.802 13.6342C20.7961 13.6927 20.7956 13.7519 20.8093 13.8106C20.8197 13.8545 20.8706 13.8734 20.9016 13.8358C20.9673 13.758 21.0355 13.6807 21.1006 13.6057C21.1329 13.6729 21.1747 13.733 21.2256 13.7887C21.2476 13.8118 21.2858 13.8203 21.3103 13.7901C21.3454 13.7446 21.3728 13.695 21.3917 13.6441C21.4407 13.7137 21.5018 13.7767 21.577 13.822C21.6077 13.8436 21.6605 13.8318 21.6643 13.7871C21.6686 13.7397 21.6735 13.6896 21.6751 13.6418C21.8042 13.8167 21.9714 13.9635 22.1614 14.0743C22.2002 14.097 22.2405 14.0552 22.2377 14.0179C22.2327 13.9578 22.2303 13.8981 22.2252 13.838C22.3416 13.9488 22.4577 14.0597 22.5766 14.171C22.6061 14.2009 22.6692 14.1764 22.6699 14.1342C22.6749 14.0444 22.6938 13.9569 22.7261 13.8741C22.7528 13.9601 22.7679 14.0472 22.7657 14.1373C22.766 14.1911 22.8407 14.2024 22.8686 14.167C22.9521 14.0637 23.0454 13.9705 23.1457 13.8866C23.1407 13.9764 23.1357 14.0661 23.1306 14.1557C23.1273 14.2146 23.1912 14.2413 23.2339 14.2024C23.3502 14.0871 23.4957 14.0047 23.6523 13.9604L23.5971 14.2885C23.5888 14.3437 23.6475 14.3667 23.6903 14.345L23.8546 14.251C23.839 14.3731 23.8541 14.4969 23.9042 14.6147C23.9214 14.6512 23.9782 14.6682 24.0037 14.6297C24.0258 14.5963 24.0475 14.5656 24.0695 14.5323C24.1155 14.7144 24.2324 14.8764 24.3926 14.9769C24.4311 15.0024 24.4733 14.9863 24.4858 14.9401C24.4976 14.8995 24.5063 14.8611 24.5181 14.8206C24.5369 14.9026 24.5528 14.984 24.5711 15.0689C24.5815 15.1128 24.6445 15.145 24.674 15.0986C24.7034 15.0548 24.7275 15.0076 24.7461 14.9595C24.7999 15.0892 24.8539 15.2191 24.9079 15.3488C24.9308 15.4031 25.0087 15.3922 25.0199 15.3373C25.0341 15.2434 25.0617 15.1543 25.0945 15.0687C25.1025 15.1463 25.1134 15.2243 25.1214 15.3019C25.1278 15.3536 25.1905 15.3687 25.2245 15.3316C25.2968 15.2463 25.3811 15.1743 25.4751 15.1151C25.4409 15.2286 25.4094 15.3425 25.3749 15.4588C25.3582 15.5128 25.4105 15.5604 25.4634 15.5288C25.5199 15.492 25.5787 15.4585 25.6351 15.4219C25.6126 15.5344 25.582 15.6429 25.5431 15.75C25.5237 15.8036 25.581 15.8547 25.6315 15.82C25.6949 15.7757 25.7584 15.7288 25.8218 15.6847C25.7921 15.7877 25.76 15.8873 25.7303 15.9903C25.7185 16.0309 25.7539 16.0956 25.806 16.0696C25.8643 16.0389 25.9181 16.0017 25.9667 15.9609C25.9428 16.0818 25.9294 16.2069 25.9273 16.3338C25.9273 16.3706 25.977 16.3979 26.0075 16.3826C26.0537 16.3585 26.0975 16.3312 26.1365 16.2976C26.1678 16.4267 26.1992 16.5559 26.2334 16.6854C26.2457 16.7352 26.3044 16.7583 26.3391 16.7154C26.3699 16.6805 26.3983 16.6425 26.4216 16.6007C26.4353 16.7724 26.4636 16.9406 26.5117 17.109C26.5247 17.1535 26.5893 17.1575 26.614 17.1245C26.6388 17.0915 26.664 17.0557 26.6916 17.0231C26.6749 17.1337 26.6613 17.2418 26.6528 17.3536C26.6506 17.4069 26.7225 17.4547 26.7589 17.4009L26.8429 17.275C26.8355 17.3248 26.8311 17.3722 26.8237 17.4219C26.8141 17.4854 26.8898 17.5081 26.9298 17.4691C26.9995 17.4003 27.0666 17.3314 27.1358 17.2656C27.1221 17.3568 27.0971 17.4463 27.0617 17.5314C27.0391 17.5873 27.102 17.6392 27.1525 17.6045L27.2252 17.5533C27.2032 17.6432 27.1673 17.7311 27.1185 17.8113C27.1035 17.8345 27.1155 17.8673 27.136 17.8818C27.1589 17.8993 27.1874 17.8981 27.2093 17.8844C27.2556 17.8575 27.3021 17.8305 27.3487 17.8036C27.3244 17.8706 27.2978 17.9345 27.2735 18.0015C27.2509 18.0575 27.3134 18.1121 27.3643 18.0746C27.412 18.0394 27.4598 18.0042 27.5075 17.9691C27.5023 18.0417 27.5053 18.1156 27.5197 18.1885C27.5296 18.2352 27.5957 18.2651 27.6282 18.2191C27.6358 18.2061 27.6462 18.1936 27.6534 18.1833C27.6692 18.2479 27.6935 18.3109 27.7244 18.3693C27.7423 18.4002 27.7751 18.408 27.8044 18.4012C27.7766 18.5469 27.7683 18.6953 27.7775 18.8408C27.765 18.8305 27.7528 18.8173 27.7402 18.8069C27.7048 18.779 27.6398 18.7974 27.6377 18.8481C27.6183 19.108 27.6641 19.3665 27.7643 19.6021C27.7197 19.5783 27.673 19.5516 27.6284 19.5278C27.589 19.5078 27.5294 19.5467 27.5424 19.5911C27.5989 19.8173 27.7119 20.0238 27.8667 20.197C27.8299 20.197 27.7959 20.1976 27.7587 20.2005C27.7021 20.2003 27.6872 20.28 27.7277 20.3116C27.9574 20.4962 28.2548 20.5864 28.5473 20.5599C28.5181 20.6036 28.4806 20.646 28.4384 20.6819C28.3997 20.7128 28.4091 20.7821 28.4645 20.7904C28.623 20.8088 28.7824 20.8017 28.9369 20.7715C28.9258 20.7896 28.9148 20.8048 28.9065 20.8234C28.8799 20.8673 28.9053 20.925 28.9598 20.9191C29.269 20.8951 29.569 20.7823 29.82 20.5996C29.8105 20.6632 29.8091 20.7281 29.8138 20.791C29.8181 20.8368 29.8742 20.8594 29.9096 20.8309C30.0686 20.7135 30.1994 20.5609 30.2909 20.3854C30.2989 20.4262 30.3074 20.4642 30.3212 20.5029C30.3381 20.5592 30.4107 20.5476 30.4367 20.5064C30.5563 20.2955 30.6207 20.0564 30.6261 19.8142C30.6304 19.8233 30.637 19.8356 30.6414 19.8448C30.6699 19.9 30.7497 19.8951 30.762 19.8319C30.8131 19.5512 30.7888 19.2621 30.6924 19.0017ZM22.345 9.60207C22.4336 9.52221 22.5145 9.4354 22.6061 9.35311C22.7799 9.19565 22.9634 9.04825 23.1657 8.9262C23.2652 8.8677 23.3692 8.81561 23.4799 8.77586C23.6061 8.72707 23.7384 8.69339 23.8657 8.65606C23.9985 8.61961 24.1271 8.57395 24.2537 8.52238C24.3803 8.47099 24.5021 8.41301 24.6311 8.36474C24.7601 8.31631 24.8914 8.27117 25.0214 8.23436C25.1515 8.19738 25.2839 8.1637 25.4193 8.14738C25.5542 8.13401 25.6747 8.16058 25.7957 8.22134C25.9115 8.27846 26.0193 8.3512 26.128 8.41856C26.1926 8.45936 26.2548 8.49704 26.3193 8.53783C26.3263 8.54738 26.3362 8.55745 26.3499 8.55954C26.3527 8.55988 26.3527 8.55988 26.3554 8.5604C26.6956 8.78141 27.0202 9.02829 27.2657 9.35086C27.3976 9.5262 27.5072 9.71804 27.6292 9.90329C27.7464 10.0821 27.8784 10.2576 28.0681 10.3682C28.1122 10.3946 28.1631 10.4137 28.2112 10.4323C28.2435 10.4427 28.2756 10.3996 28.2449 10.3779C28.1548 10.3191 28.0813 10.243 28.0025 10.1661C27.9259 10.0923 27.8593 10.0088 27.7987 9.92325C27.6704 9.7427 27.5612 9.54825 27.436 9.36526C27.2221 9.05884 26.9449 8.81613 26.6431 8.60381C26.6877 8.6078 26.7325 8.61162 26.7771 8.61561C26.9218 8.63176 27.0664 8.64808 27.2107 8.667C27.3494 8.68506 27.4903 8.70641 27.6306 8.73332C27.7548 8.75485 27.8702 8.79495 27.9608 8.88783C28.0417 8.97065 28.0966 9.07516 28.1525 9.17395C28.2214 9.29756 28.2928 9.42412 28.3619 9.54773C28.4909 9.77915 28.6256 10.0114 28.7058 10.2667C28.7487 10.3948 28.777 10.5262 28.811 10.6557C28.8449 10.788 28.8872 10.9189 28.9357 11.0477C28.9846 11.1738 29.0334 11.3 29.073 11.4302C29.1108 11.5547 29.1395 11.6835 29.1567 11.8132C29.1921 12.0842 29.1712 12.3524 29.1699 12.6236C29.1692 12.7592 29.1773 12.8932 29.2023 13.0271C29.2273 13.1609 29.2671 13.2913 29.3008 13.4236C29.3586 13.6585 29.3792 13.8962 29.4051 14.1375C29.4183 14.2554 29.4339 14.3764 29.456 14.4929C29.4808 14.6097 29.515 14.7194 29.57 14.8238C29.5961 14.8759 29.6258 14.9227 29.6582 14.97C29.6723 14.989 29.7034 14.9712 29.6952 14.9502C29.6558 14.8368 29.631 14.72 29.6061 14.6031C29.581 14.4892 29.5645 14.3736 29.548 14.258C29.5195 14.0163 29.5053 13.7739 29.4593 13.5351C29.4339 13.4042 29.3942 13.2738 29.3627 13.1446C29.3291 13.0123 29.31 12.8765 29.3023 12.7397C29.2898 12.4665 29.323 12.1917 29.2994 11.9168C29.2759 11.6418 29.2025 11.3792 29.1028 11.121C29.0541 10.995 29.0051 10.8689 28.9655 10.7385C28.9261 10.6054 28.8956 10.4706 28.8594 10.3352C28.8284 10.2231 28.7881 10.1153 28.7419 10.0094C28.7721 10.0337 28.8056 10.0557 28.8386 10.0805C28.9306 10.1453 29.0358 10.1979 29.1395 10.2418C29.2483 10.2894 29.3587 10.3259 29.4728 10.3573C29.5843 10.3882 29.6919 10.4243 29.7864 10.4922C29.8806 10.5602 29.9652 10.638 30.0631 10.7009C30.1587 10.7606 30.2489 10.8194 30.3332 10.8972C30.4924 11.0427 30.6087 11.2271 30.72 11.4078C30.836 11.595 30.9572 11.7858 31.0211 11.9989C31.0884 12.2267 31.0624 12.4745 31.0499 12.7071C31.0339 12.962 31.0148 13.2191 30.9935 13.4731C30.9825 13.6014 30.9721 13.7271 30.9501 13.8538C30.9289 13.975 30.8947 14.0885 30.8468 14.2C30.7985 14.3142 30.7421 14.4245 30.6914 14.5354C30.6403 14.6493 30.5891 14.763 30.5435 14.8778C30.5035 14.9734 30.466 15.0724 30.4317 15.1689C30.4256 14.9842 30.3791 14.8048 30.324 14.6269C30.2641 14.4425 30.2103 14.2564 30.1711 14.0667C30.1318 13.8771 30.1072 13.684 30.0886 13.4889C30.0683 13.2682 30.0617 13.0496 30.0584 12.8286C30.0574 12.6108 30.0631 12.3856 30.0277 12.171C30.0226 12.1476 29.989 12.1453 29.9853 12.1703C29.9445 12.3647 29.9393 12.5675 29.9402 12.7684C29.939 12.9632 29.9433 13.1588 29.9532 13.3554C29.9735 13.7456 30.0308 14.1331 30.1442 14.5064C30.2008 14.693 30.2718 14.879 30.2931 15.0745C30.3164 15.2759 30.2919 15.4757 30.2396 15.6713C30.1396 16.0519 29.9509 16.4021 29.8242 16.7731C29.7549 16.9689 29.7015 17.1729 29.6813 17.3818C29.6718 17.4821 29.67 17.5864 29.6858 17.6878C29.6926 17.7368 29.7018 17.789 29.7171 17.8366C29.7211 17.8486 29.7245 17.8632 29.7284 17.8752C29.6355 17.8526 29.5388 17.838 29.4431 17.8347C29.3671 17.8318 29.2928 17.8375 29.2179 17.846C29.2242 17.8413 29.2278 17.8361 29.2337 17.8342C29.2756 17.801 29.2528 17.7269 29.195 17.7351C29.0624 17.7517 28.9346 17.7918 28.8152 17.8529C28.806 17.8573 28.7995 17.862 28.7905 17.8661C28.6893 17.5993 28.6235 17.3236 28.6044 17.0382C28.586 16.73 28.607 16.4224 28.6447 16.117C28.7245 15.4762 28.8686 14.8224 28.7659 14.1738C28.7195 13.8812 28.6225 13.6066 28.4773 13.35C28.3459 13.1153 28.1799 12.9036 28.0008 12.7042C27.6353 12.2955 27.2178 11.9328 26.8751 11.505C26.6777 11.2576 26.5173 10.9903 26.3818 10.7069C26.2285 10.3925 26.0966 10.0673 25.9492 9.75103C25.9107 9.66891 25.8693 9.58645 25.8282 9.50381C25.8148 9.47933 25.7815 9.49391 25.7893 9.5177C25.8468 9.69895 25.9166 9.87342 25.9836 10.0474C26.0386 10.1887 26.0914 10.3265 26.1495 10.4654C26.073 10.4483 25.9907 10.45 25.9122 10.4635C25.9325 10.4411 25.9528 10.4187 25.9761 10.3969C26.0082 10.3706 25.9924 10.3259 25.9568 10.3175C25.8589 10.2915 25.7596 10.2934 25.665 10.3215C25.695 10.2724 25.7306 10.2241 25.7709 10.1821C25.7949 10.1547 25.7667 10.1165 25.7355 10.1173C25.6159 10.1219 25.4985 10.1495 25.3945 10.2015C25.399 10.1908 25.4061 10.1807 25.4101 10.1727C25.4251 10.1496 25.4367 10.1288 25.4511 10.1083C25.4659 10.0851 25.4791 10.0729 25.5068 10.0573C25.5284 10.0465 25.5332 10.0134 25.5252 9.99235C25.5146 9.96804 25.4935 9.95919 25.4681 9.95815C25.4313 9.95832 25.3888 9.97742 25.3554 9.992C25.3162 10.0087 25.2796 10.0259 25.2454 10.0462C25.2271 10.0547 25.2113 10.0663 25.1954 10.0781C25.216 10.0163 25.2339 9.95398 25.2462 9.89079C25.2518 9.85485 25.2119 9.83749 25.1841 9.85311C25.0975 9.90224 25.0133 9.9545 24.9261 10.0064C24.9351 9.92846 24.9329 9.84912 24.9249 9.77151C24.9192 9.73401 24.8742 9.7328 24.8558 9.7611C24.8216 9.81804 24.7872 9.87794 24.7558 9.9354C24.6697 9.83193 24.5831 9.73124 24.4995 9.62811C24.473 9.5986 24.4143 9.61231 24.4242 9.65901C24.4329 9.71405 24.4332 9.76787 24.4225 9.81995C24.3216 9.71995 24.2108 9.62967 24.0919 9.5552C24.0534 9.5295 24.0087 9.56231 24.0219 9.60676C24.0403 9.67169 24.0473 9.73783 24.0456 9.80537C23.9171 9.7012 23.7778 9.61231 23.6304 9.53905C23.5933 9.52221 23.5508 9.56092 23.5674 9.60033C23.5841 9.63957 23.5949 9.68072 23.6025 9.72429C23.4841 9.62724 23.3659 9.5302 23.2475 9.43315C23.2126 9.40242 23.1676 9.43801 23.1673 9.47759C23.1678 9.56804 23.1457 9.65797 23.1134 9.74079C23.0492 9.64061 22.9943 9.53627 22.9549 9.4229C22.9424 9.3927 22.8959 9.3828 22.8747 9.41075C22.8018 9.51839 22.7089 9.60901 22.5995 9.67724C22.6105 9.60537 22.6237 9.53679 22.6346 9.46492C22.6395 9.43176 22.5962 9.39981 22.5673 9.4236C22.4747 9.51145 22.3747 9.59235 22.2752 9.67065C22.2961 9.64547 22.3192 9.6236 22.345 9.60207ZM27.8273 18.3057C27.7817 18.214 27.7563 18.1198 27.7494 18.0168C27.7457 17.9654 27.67 17.9427 27.6407 17.9863C27.6367 17.9943 27.6299 18.0017 27.6259 18.0095C27.6287 17.9535 27.637 17.8983 27.6515 17.841C27.6648 17.7892 27.594 17.7531 27.5553 17.784C27.5235 17.8075 27.4917 17.8309 27.4598 17.8543C27.482 17.8012 27.5015 17.7476 27.524 17.6917C27.5471 17.633 27.4829 17.5894 27.4332 17.6186C27.3931 17.6408 27.3558 17.6634 27.3157 17.6856C27.3447 17.6052 27.3636 17.5177 27.3711 17.4311C27.3763 17.3783 27.3192 17.3441 27.2751 17.3743C27.2594 17.3831 27.2464 17.3953 27.2308 17.4043C27.2542 17.3061 27.2669 17.2035 27.2681 17.1019C27.2686 17.0425 27.1926 17.0396 27.1624 17.0717C27.0988 17.1356 27.0327 17.1991 26.9688 17.2658C26.9801 17.1911 26.9891 17.1134 27.0004 17.0387C27.0087 16.9835 26.9277 16.9401 26.8943 16.9917L26.7995 17.1328C26.8143 17.0163 26.8374 16.901 26.8627 16.789C26.8775 16.729 26.7919 16.6963 26.7567 16.7418C26.7035 16.813 26.6504 16.884 26.5976 16.9524C26.5494 16.7472 26.5304 16.5352 26.5369 16.3243C26.54 16.2484 26.4353 16.2297 26.4179 16.3062C26.3995 16.3911 26.3653 16.4679 26.3204 16.5403C26.2909 16.417 26.2582 16.2962 26.2289 16.1731C26.2162 16.1259 26.1582 16.0974 26.123 16.1429C26.1018 16.1708 26.0784 16.1955 26.0525 16.217C26.0627 16.0745 26.0872 15.9312 26.1306 15.7936C26.1482 15.734 26.0749 15.675 26.0294 15.733C25.9874 15.7861 25.94 15.8382 25.8883 15.8812C25.9179 15.7785 25.9508 15.6731 25.9804 15.5701C25.9971 15.5161 25.9429 15.4628 25.8921 15.5003C25.8315 15.5448 25.7686 15.5863 25.7082 15.6307C25.7379 15.5279 25.7589 15.4264 25.7721 15.321C25.7799 15.2686 25.7221 15.2399 25.6815 15.2649C25.6313 15.2969 25.5785 15.3285 25.5284 15.3606C25.5622 15.2498 25.5931 15.1385 25.6268 15.0278C25.6391 14.9844 25.6027 14.9252 25.5535 14.9515C25.4315 15.0095 25.3237 15.0864 25.2252 15.1762C25.2122 15.0753 25.2025 14.972 25.1893 14.8712C25.1815 14.8106 25.1056 14.8076 25.0787 14.8545C25.0251 14.9481 24.9818 15.0462 24.9494 15.1486C24.8956 15.0189 24.8438 14.8923 24.79 14.7627C24.7693 14.7116 24.6867 14.716 24.6778 14.7741C24.6744 14.816 24.6657 14.8542 24.6513 14.8944C24.6275 14.789 24.607 14.6814 24.5834 14.576C24.5709 14.5092 24.4858 14.5104 24.4674 14.5755C24.4426 14.6649 24.4206 14.7548 24.3952 14.8472C24.2542 14.7326 24.1693 14.5644 24.166 14.38C24.1648 14.3319 24.089 14.309 24.0629 14.3503C24.0369 14.3917 24.0081 14.4326 23.9825 14.471C23.9608 14.3717 23.9652 14.2677 23.9968 14.1708C24.0166 14.1144 23.9612 14.0693 23.9084 14.1009C23.8523 14.1349 23.7966 14.166 23.7379 14.1995C23.7553 14.1031 23.7702 14.0036 23.7877 13.9075C23.7931 13.8715 23.7594 13.8325 23.724 13.8413C23.5521 13.8746 23.3973 13.9444 23.26 14.0481C23.2646 13.9611 23.2693 13.8743 23.274 13.7873C23.2756 13.7396 23.2249 13.7007 23.1806 13.7309C23.0692 13.813 22.9681 13.9022 22.8763 14.0042C22.8624 13.9088 22.8339 13.817 22.7907 13.7285C22.7732 13.6946 22.7171 13.672 22.691 13.7134C22.6313 13.8088 22.5879 13.9097 22.5683 14.02C22.4443 13.905 22.3202 13.7901 22.1966 13.6726C22.1596 13.6359 22.1023 13.6781 22.1072 13.7212C22.1105 13.7923 22.1167 13.864 22.12 13.9352C21.9402 13.8147 21.7893 13.6533 21.6765 13.4639C21.6515 13.4234 21.5832 13.4441 21.5794 13.4887C21.5749 13.5559 21.5676 13.6227 21.5631 13.6899C21.5034 13.6356 21.4541 13.5687 21.4207 13.4903C21.3994 13.4446 21.3225 13.4472 21.3169 13.5028C21.3101 13.5668 21.2926 13.6264 21.2645 13.6814C21.2218 13.6269 21.1914 13.5658 21.1674 13.5C21.1535 13.4611 21.1028 13.4592 21.0761 13.4863C21.0179 13.5538 20.9627 13.6189 20.9044 13.6864C20.9079 13.6446 20.9171 13.6035 20.9343 13.5637C20.9516 13.5239 20.9094 13.4667 20.8633 13.4908C20.7105 13.5667 20.5664 13.658 20.4296 13.7588L20.4884 13.6319C20.5133 13.5792 20.4495 13.5328 20.4051 13.5656C20.2471 13.6746 20.0888 13.7864 19.928 13.895C19.9419 13.8038 19.9561 13.7099 19.9699 13.6186C19.9765 13.5745 19.9202 13.5349 19.8817 13.5658C19.8171 13.6182 19.7554 13.671 19.6909 13.7234C19.7113 13.4948 19.7567 13.2698 19.832 13.0522C19.8518 12.9958 19.7778 12.9423 19.7386 12.9956C19.7284 13.0083 19.7179 13.0208 19.7072 13.0361C19.7824 12.8384 19.8709 12.6455 19.9673 12.4564C19.991 12.412 19.9403 12.3733 19.8987 12.3868L19.7115 12.446C19.8162 12.2583 19.9492 12.089 20.1067 11.9462C20.1393 11.9172 20.1315 11.8566 20.0817 11.8491C20.0206 11.8427 19.9615 11.8394 19.9015 11.8444C19.9888 11.7531 20.0832 11.6712 20.1824 11.5958C20.2206 11.5677 20.2044 11.5059 20.1574 11.4988C20.1075 11.4911 20.0542 11.4887 20.0032 11.4896C20.1782 11.3606 20.3416 11.2156 20.49 11.0571C20.5235 11.0227 20.4876 10.9608 20.4412 10.9679C20.389 10.9769 20.3339 10.9856 20.282 10.9918C20.4475 10.7765 20.6372 10.6075 20.8554 10.4736C20.8987 10.4491 20.8738 10.3887 20.8329 10.3797C20.7836 10.3694 20.731 10.3614 20.6799 10.3623C20.7966 10.264 20.9317 10.1939 21.0818 10.1545C21.1112 10.1476 21.1242 10.0988 21.1051 10.076C21.0612 10.0298 21.016 9.99183 20.9648 9.95589C21.1245 9.90936 21.2877 9.89721 21.4537 9.92238C21.4813 9.92655 21.5103 9.90276 21.5067 9.87099C21.5041 9.85086 21.4987 9.8302 21.4929 9.81249C21.6577 9.88263 21.8695 9.84669 21.9983 9.72481L21.9857 9.88401C21.9834 9.9177 22.0195 9.94009 22.0478 9.92169C22.2173 9.81162 22.3796 9.692 22.5294 9.56214C22.5174 9.62238 22.5077 9.68592 22.4957 9.74634C22.4912 9.77672 22.5261 9.80745 22.5541 9.79183C22.6855 9.72707 22.8009 9.63697 22.8943 9.52395C22.9417 9.64131 23.0041 9.75259 23.0792 9.85433C23.1027 9.8861 23.1468 9.87586 23.1627 9.84443C23.2133 9.75311 23.245 9.65606 23.2577 9.55346C23.3811 9.65398 23.5072 9.75502 23.6303 9.85849C23.6655 9.88645 23.7098 9.85641 23.7074 9.81648C23.7065 9.76544 23.7002 9.71353 23.6879 9.6637C23.8186 9.73436 23.9414 9.82082 24.0534 9.92238C24.0782 9.94599 24.1233 9.92742 24.1284 9.89426C24.1369 9.81926 24.1362 9.74842 24.1273 9.67638C24.2296 9.74842 24.3228 9.82464 24.4082 9.91388C24.4278 9.93384 24.4693 9.94009 24.4803 9.90502C24.4957 9.85936 24.5084 9.81318 24.5103 9.76266C24.582 9.84981 24.6542 9.93419 24.7259 10.0213C24.7475 10.0472 24.7822 10.0411 24.798 10.0123C24.8212 9.97065 24.8417 9.92863 24.8653 9.88401C24.8685 9.93818 24.8629 9.99391 24.8518 10.0488C24.8485 10.071 24.8732 10.0944 24.8947 10.0835C24.9782 10.0368 25.064 9.99322 25.1473 9.94651C25.1273 10.0226 25.099 10.0976 25.0626 10.1712C25.0419 10.2132 25.1027 10.2422 25.1275 10.2092C25.1362 10.2076 25.1445 10.2088 25.156 10.2078C25.1733 10.2048 25.1893 10.193 25.2048 10.1842C25.2358 10.1661 25.2673 10.1455 25.2982 10.1276C25.3169 10.1163 25.3379 10.1081 25.3594 10.0972C25.3553 10.1052 25.3485 10.1127 25.3445 10.1205C25.3181 10.1646 25.2968 10.2121 25.2754 10.2599C25.2617 10.2944 25.2997 10.3229 25.3285 10.3017C25.4259 10.2373 25.5337 10.197 25.6462 10.183C25.598 10.2408 25.557 10.3052 25.524 10.3738C25.5035 10.4158 25.5556 10.4463 25.5896 10.426C25.6704 10.3788 25.764 10.359 25.8528 10.3698C25.8185 10.4097 25.7865 10.4529 25.7596 10.4998C25.74 10.5364 25.7824 10.5739 25.8185 10.5595C25.9443 10.5135 26.0685 10.5154 26.1928 10.554C26.3195 10.8389 26.4608 11.1201 26.6426 11.3767C26.9591 11.8286 27.373 12.1965 27.748 12.5981C28.1211 12.9936 28.47 13.4364 28.5982 13.9731C28.7504 14.6123 28.6249 15.2746 28.5339 15.9137C28.4516 16.5147 28.3935 17.1616 28.6261 17.7368C28.6462 17.7906 28.6784 17.8408 28.7081 17.8877C28.6926 17.8965 28.677 17.9055 28.664 17.9177C28.6659 17.8672 28.6096 17.8276 28.5594 17.8595C28.453 17.9283 28.3605 18.016 28.2829 18.1173C28.2586 18.1476 28.2393 18.1814 28.22 18.2153C28.215 18.1552 28.2122 18.0983 28.2127 18.0389C28.2133 17.9797 28.1278 17.9639 28.0962 18.0043C28.0256 18.0983 27.9728 18.2033 27.9447 18.3149C27.9428 18.309 27.9409 18.3031 27.9384 18.2998C27.9223 18.2578 27.8537 18.2616 27.8273 18.3057ZM30.5902 19.4724C30.5745 19.4446 30.549 19.4266 30.5166 19.4358C30.4872 19.4427 30.4627 19.4729 30.4692 19.505C30.5197 19.7698 30.4926 20.0427 30.3957 20.291C30.3898 20.2364 30.387 20.1795 30.3926 20.1238C30.3945 20.0929 30.3789 20.0651 30.3489 20.0578C30.3244 20.0512 30.286 20.0623 30.2758 20.092C30.212 20.3085 30.0923 20.5022 29.928 20.6528C29.9357 20.5831 29.9513 20.5177 29.981 20.4516C30.0028 20.4012 29.936 20.3373 29.8902 20.3785C29.6598 20.5923 29.3728 20.7328 29.0626 20.7819C29.0775 20.7588 29.0923 20.7356 29.1075 20.7095C29.1376 20.6604 29.0989 20.5981 29.0395 20.6173C28.8999 20.6613 28.7525 20.6814 28.6034 20.6759C28.6454 20.6227 28.6822 20.5661 28.7087 20.5024C28.7261 20.4627 28.6923 20.4066 28.6454 20.4165C28.412 20.4632 28.1686 20.4264 27.9591 20.3156C27.9789 20.3158 27.9959 20.3154 28.0157 20.3156C28.0723 20.3156 28.0844 20.2356 28.0466 20.2043C27.8919 20.0679 27.7761 19.8979 27.7028 19.7087C27.7605 19.7399 27.8179 19.7713 27.8726 19.8022C27.8962 19.8142 27.9287 19.805 27.9459 19.7851C27.9636 19.7621 27.9622 19.7337 27.949 19.7092C27.828 19.4986 27.7603 19.2538 27.7548 19.0099C27.7735 19.0352 27.7924 19.0608 27.8075 19.0913C27.8232 19.1191 27.8515 19.1375 27.8836 19.1311C27.9129 19.1243 27.9372 19.0939 27.9308 19.062C27.9008 18.9047 27.8933 18.7481 27.9089 18.5894C27.9171 18.6104 27.9256 18.6286 27.9337 18.6496C27.9624 18.7219 28.0714 18.693 28.0633 18.6156C28.0516 18.5064 28.0655 18.3955 28.1035 18.2937C28.1122 18.3488 28.124 18.4014 28.1355 18.4568C28.1341 18.4651 28.1306 18.4703 28.1292 18.4785C28.1162 18.5274 28.1857 18.5548 28.2155 18.5255C28.2417 18.521 28.262 18.4986 28.2528 18.4661C28.2509 18.4602 28.2518 18.4547 28.2497 18.4488C28.3018 18.3293 28.3778 18.2193 28.4711 18.126C28.4709 18.1458 28.4796 18.164 28.4976 18.1752C28.5237 18.1904 28.5553 18.1868 28.5761 18.1616C28.6803 18.0333 28.8298 17.9427 28.9909 17.888C28.9905 17.8908 28.9877 17.8903 28.9872 17.893C28.9386 17.9338 28.9789 18.0048 29.0407 17.9889C29.2362 17.9307 29.4542 17.9297 29.6567 17.9745C29.6268 18.004 29.6355 18.0588 29.6872 18.0724C29.9541 18.141 30.2074 18.2613 30.432 18.4224C30.4011 18.4403 30.3832 18.4828 30.41 18.5123C30.4997 18.6108 30.5799 18.7161 30.6475 18.8309C30.627 18.8165 30.6067 18.8021 30.5857 18.7904C30.5626 18.7757 30.5348 18.7715 30.5098 18.7875C30.4907 18.8015 30.477 18.8363 30.4902 18.8609C30.6162 19.0948 30.673 19.3548 30.6586 19.6184C30.6362 19.5613 30.6115 19.518 30.5902 19.4724Z" fill="black"/>
</g>
</g>
</g>
</g>
</svg>
