<svg width="36" height="44" viewBox="0 0 36 44" fill="none" xmlns="http://www.w3.org/2000/svg">
<mask id="mask0_252_423" style="mask-type:luminance" maskUnits="userSpaceOnUse" x="3" y="16" width="24" height="18">
<path d="M3.6001 16.5669H26.6777V33.6007H3.6001V16.5669Z" fill="white"/>
</mask>
<g mask="url(#mask0_252_423)">
<path d="M7.45268 16.5669C5.33792 16.5669 3.60962 18.2952 3.60962 20.41V29.7433C3.60962 31.858 5.33792 33.5863 7.45268 33.5863H22.8251C24.9398 33.5863 26.6681 31.858 26.6681 29.7433V20.41C26.6681 18.2952 24.9398 16.5669 22.8251 16.5669H7.45268ZM7.45268 18.2139H22.8251C24.0558 18.2139 25.0211 19.1792 25.0211 20.41V29.7433C25.0211 30.974 24.0558 31.9393 22.8251 31.9393H7.45268C6.22177 31.9393 5.25667 30.974 5.25667 29.7433V20.41C5.25667 19.1792 6.22177 18.2139 7.45268 18.2139ZM13.2431 20.6846C13.2155 20.6837 13.1881 20.6843 13.1607 20.6862C13.1332 20.6881 13.1058 20.6912 13.0787 20.6959C13.0516 20.7006 13.0247 20.7065 12.9983 20.7138C12.9718 20.7212 12.9457 20.7297 12.92 20.7396C12.8943 20.7497 12.8692 20.7608 12.8447 20.7733C12.8202 20.7858 12.7963 20.7994 12.7732 20.8143C12.7499 20.829 12.7277 20.845 12.706 20.8622C12.6844 20.8792 12.6638 20.8973 12.644 20.9165C12.6242 20.9356 12.6056 20.9558 12.5877 20.9768C12.57 20.9978 12.5534 21.0197 12.5379 21.0424C12.5223 21.0652 12.5079 21.0886 12.4947 21.1127C12.4815 21.1369 12.4695 21.1615 12.4589 21.1869C12.4482 21.2122 12.4388 21.2381 12.4306 21.2643C12.4225 21.2907 12.4157 21.3172 12.4101 21.3442C12.4048 21.3712 12.4006 21.3983 12.3978 21.4257C12.3952 21.4532 12.3938 21.4806 12.3938 21.508V28.6452C12.3935 28.6959 12.3978 28.7461 12.4068 28.7959C12.4159 28.8457 12.4294 28.8943 12.4473 28.9417C12.4653 28.9891 12.4874 29.0344 12.5138 29.0777C12.54 29.1209 12.5702 29.1613 12.6039 29.1992C12.6377 29.2369 12.6747 29.2712 12.7148 29.3021C12.7549 29.333 12.7975 29.36 12.8426 29.383C12.8877 29.4061 12.9346 29.4247 12.9831 29.4391C13.0317 29.4535 13.0811 29.4634 13.1315 29.4686C13.2145 29.4777 13.2969 29.4742 13.3789 29.458C13.4608 29.4419 13.5384 29.4141 13.6119 29.3744L20.2001 25.8058C20.2654 25.7705 20.3249 25.7271 20.3787 25.6757C20.4324 25.6244 20.4782 25.5667 20.5162 25.503C20.5544 25.4391 20.5832 25.3714 20.603 25.2999C20.6228 25.2282 20.6327 25.1553 20.6327 25.081C20.6327 25.0067 20.6228 24.9336 20.603 24.862C20.5832 24.7903 20.5544 24.7226 20.5162 24.6589C20.4782 24.595 20.4324 24.5374 20.3787 24.486C20.3249 24.4346 20.2654 24.3914 20.2001 24.356L13.6119 20.7874C13.4971 20.7238 13.3742 20.6895 13.2431 20.6846ZM14.0409 22.8978L18.0726 25.0766L14.0409 27.2641V22.8978Z" fill="#004BFF"/>
</g>
<mask id="mask1_252_423" style="mask-type:luminance" maskUnits="userSpaceOnUse" x="19" y="11" width="13" height="13">
<path d="M19.7334 11.2437H31.1556V23.9103H19.7334V11.2437Z" fill="white"/>
</mask>
<g mask="url(#mask1_252_423)">
<mask id="mask2_252_423" style="mask-type:luminance" maskUnits="userSpaceOnUse" x="18" y="10" width="15" height="15">
<path d="M20.5059 10.4141L32.3905 12.2106L30.578 24.2007L18.6936 22.4042L20.5059 10.4141Z" fill="white"/>
</mask>
<g mask="url(#mask2_252_423)">
<mask id="mask3_252_423" style="mask-type:luminance" maskUnits="userSpaceOnUse" x="18" y="10" width="15" height="15">
<path d="M20.5059 10.4141L32.3905 12.2106L30.578 24.2007L18.6936 22.4042L20.5059 10.4141Z" fill="white"/>
</mask>
<g mask="url(#mask3_252_423)">
<mask id="mask4_252_423" style="mask-type:luminance" maskUnits="userSpaceOnUse" x="18" y="10" width="15" height="15">
<path d="M20.5059 10.4141L32.3905 12.2106L30.578 24.2007L18.6936 22.4042L20.5059 10.4141Z" fill="white"/>
</mask>
<g mask="url(#mask4_252_423)">
<path d="M19.7975 16.3034C19.7813 16.3178 19.7655 16.3294 19.7527 16.3414C19.8322 16.1103 19.9284 15.8789 20.0371 15.6579L20.0935 15.5435L19.7898 15.6345C19.8831 15.4417 20.0074 15.265 20.1595 15.1063L20.2523 15.0086L20.1178 15.0134C20.0562 15.0152 19.9964 15.023 19.936 15.0362C20.0206 14.9372 20.1126 14.8449 20.2119 14.7595L20.3332 14.6575L20.1765 14.6619C20.1009 14.6643 20.0263 14.6782 19.956 14.7011C20.1508 14.574 20.3371 14.4291 20.5037 14.2669L20.628 14.1461L20.331 14.1933C20.4761 13.989 20.6562 13.8122 20.8624 13.6645L21.0086 13.5636L20.8301 13.5647C20.7884 13.564 20.7487 13.5692 20.7056 13.5766C20.8225 13.4489 20.9711 13.3513 21.136 13.2923L21.2272 13.2614L21.156 13.1975C21.1115 13.1601 21.0661 13.128 21.0173 13.1011C21.1796 13.0419 21.3608 13.0218 21.5421 13.0407L21.6242 13.0504L21.5999 12.9713C21.5928 12.945 21.5824 12.9211 21.5694 12.8968C21.6515 12.9622 21.7638 12.9933 21.8805 12.9773C22.0027 12.9622 22.1069 12.8997 22.168 12.8084L22.1431 13.0841L22.2565 12.9419C22.2838 12.9098 22.3077 12.8799 22.3313 12.8527L22.372 12.8058C22.4329 12.7339 22.4971 12.6598 22.5659 12.5919C22.6582 12.497 22.7459 12.4152 22.8263 12.3435C23.0192 12.1742 23.2058 12.0459 23.3983 11.9522C23.549 11.8772 23.7034 11.8334 23.8695 11.7858C23.957 11.76 24.0473 11.7345 24.1357 11.7032C24.2619 11.6607 24.3843 11.6067 24.5032 11.5575C24.6312 11.5042 24.7654 11.4463 24.9001 11.4023C25.0265 11.36 25.1605 11.3216 25.2959 11.2917C25.4228 11.2634 25.5551 11.2358 25.6805 11.2548L25.6832 11.2553C25.8086 11.2742 25.9246 11.3365 26.0343 11.4034C26.1414 11.4699 26.2511 11.5367 26.3608 11.6036C26.3989 11.6289 26.4395 11.6546 26.4775 11.6799L26.4926 11.6905L26.5095 11.6904C26.5176 11.6916 26.5261 11.69 26.5317 11.6909C26.5593 11.6923 26.5869 11.6937 26.6147 11.695L26.631 11.6975C26.8872 11.7167 27.1669 11.7478 27.4879 11.799C27.507 11.802 27.5289 11.8053 27.548 11.8082C27.6596 11.8251 27.774 11.8424 27.8766 11.8831C27.9714 11.9197 28.0555 11.9911 28.1289 12.0943C28.1841 12.1726 28.2324 12.2581 28.278 12.3433C28.2912 12.3676 28.3042 12.3919 28.3173 12.4162L28.3791 12.5233C28.427 12.6117 28.4777 12.7004 28.5261 12.786C28.5746 12.8714 28.6155 12.9504 28.6492 13.0225L28.6558 13.0346L28.6685 13.0423C28.7015 13.064 28.7322 13.0825 28.7596 13.1034C28.843 13.1608 28.9376 13.2169 29.0673 13.2813C29.1709 13.3332 29.2812 13.3779 29.39 13.414C29.4273 13.4251 29.4647 13.4364 29.4992 13.4471C29.5792 13.4704 29.6544 13.4902 29.7247 13.5232C29.8027 13.5601 29.8669 13.6145 29.9365 13.6697C29.9569 13.6839 29.9737 13.7006 29.994 13.7148C30.0435 13.7558 30.0997 13.7895 30.1532 13.8226C30.1989 13.852 30.2424 13.878 30.2822 13.9093C30.3596 13.9685 30.4355 14.0386 30.5112 14.1282C30.6435 14.2851 30.7523 14.4693 30.8595 14.6447L30.8707 14.6633C30.9753 14.8383 31.0888 15.0456 31.118 15.2763C31.1329 15.3987 31.1308 15.524 31.1256 15.6322C31.1194 15.7654 31.1105 15.8982 31.1048 16.0091C31.0881 16.286 31.0667 16.5371 31.0445 16.7768C31.0325 16.8924 31.019 17.0188 30.9845 17.1365C30.9539 17.2466 30.9079 17.3485 30.8504 17.4713C30.7357 17.7138 30.6398 17.9423 30.5529 18.1667C30.5075 18.2829 30.4643 18.402 30.424 18.5216C30.418 18.5431 30.4096 18.5614 30.4036 18.5829C30.3891 18.6226 30.3772 18.6655 30.3605 18.7022C30.351 18.7286 30.3355 18.757 30.3192 18.7909L30.3157 18.7959L30.3148 18.8013C30.3084 18.8256 30.302 18.8497 30.2959 18.8711C30.2358 19.0661 30.1567 19.2581 30.0782 19.4447C30.0086 19.6101 29.9381 19.7812 29.8813 19.9542C29.8185 20.1487 29.7808 20.3246 29.7664 20.4928C29.7588 20.5812 29.7619 20.6709 29.7704 20.7617C29.7728 20.8011 29.7803 20.8442 29.7864 20.8954C29.7879 20.9041 29.789 20.9154 29.7931 20.9244C29.7944 20.9358 29.7985 20.9449 29.7973 20.953C29.7968 20.9556 29.7968 20.9556 29.7964 20.9584L29.7957 21.0003L29.8357 21.0119C29.8516 21.0171 29.8676 21.0223 29.8836 21.0275L29.8183 21.0904L29.9058 21.1202C30.1841 21.2154 30.4353 21.3596 30.6548 21.5492C30.6548 21.5492 30.6575 21.5497 30.657 21.5523C30.6567 21.5551 30.6563 21.5579 30.6563 21.5579L30.5018 21.5289L30.5904 21.643C30.686 21.7664 30.7683 21.9046 30.8298 22.0508C30.8266 22.053 30.8207 22.0549 30.8157 22.0515L30.5983 21.9039L30.6579 22.0638C30.7508 22.3154 30.7707 22.5895 30.7174 22.8497C30.7166 22.8551 30.7135 22.8575 30.7135 22.8575C30.7107 22.857 30.7048 22.8589 30.7034 22.8504L30.5895 22.6263L30.5845 22.8437C30.5772 23.0772 30.5148 23.3053 30.4044 23.5009C30.4008 23.506 30.3949 23.5079 30.3923 23.5075C30.3808 23.4723 30.3721 23.4374 30.3643 23.3971L30.3345 23.2445L30.2607 23.3815C30.1744 23.5471 30.0492 23.6931 29.8959 23.8041C29.8931 23.8037 29.8931 23.8037 29.8931 23.8037C29.8881 23.7442 29.8886 23.6857 29.8973 23.6282L29.9171 23.4971L29.8105 23.5759C29.5694 23.752 29.2858 23.8572 28.9921 23.8827C28.9893 23.8822 28.9893 23.8822 28.9893 23.8822C28.9893 23.8822 28.9874 23.8763 28.9911 23.8713L29.0902 23.7131L28.9636 23.7386C28.8169 23.7695 28.6655 23.7746 28.5176 23.7579C28.518 23.7551 28.5162 23.7492 28.5194 23.747C28.564 23.7089 28.6015 23.6643 28.6365 23.6166L28.7013 23.5202L28.5855 23.5306C28.3112 23.5562 28.0313 23.472 27.818 23.2971C27.8157 23.294 27.8166 23.2886 27.8169 23.2858L28.0407 23.2806L27.9596 23.19C27.8136 23.0312 27.7096 22.8338 27.6558 22.6188C27.6589 22.6166 27.6617 22.6169 27.6621 22.6141L27.9325 22.7612L27.8709 22.615C27.7747 22.3853 27.7334 22.1416 27.7511 21.8956C27.7542 21.8933 27.7629 21.8917 27.7624 21.8945C27.7725 21.9016 27.7794 21.911 27.7895 21.9181L27.8966 22.0209L27.8869 21.8825C27.8775 21.7414 27.8878 21.6004 27.9143 21.4619L27.9306 21.3721L27.8426 21.4008C27.8336 21.4051 27.8317 21.3992 27.8294 21.3961C27.8011 21.3442 27.7794 21.285 27.7635 21.224L27.7341 21.1049L27.6346 21.2464C27.632 21.2461 27.627 21.2424 27.6273 21.2397C27.615 21.1735 27.6117 21.1032 27.6162 21.0369L27.6261 20.9154L27.3878 21.0917C27.3878 21.0917 27.385 21.0914 27.3827 21.0881C27.3803 21.085 27.3803 21.085 27.3834 21.0827L27.5157 20.7423L27.244 20.8996C27.2376 20.9042 27.235 20.9037 27.235 20.9037L27.2325 20.9006C27.2845 20.8162 27.3202 20.7266 27.3428 20.6322L27.378 20.4923L27.1883 20.6228C27.1883 20.6228 27.1852 20.6253 27.1827 20.6221C27.1805 20.6188 27.1805 20.6188 27.1808 20.6162C27.2167 20.5266 27.2416 20.4353 27.2556 20.3424L27.2805 20.1786L26.9589 20.4989C26.9527 20.5034 26.9471 20.5027 26.9471 20.5027C26.9471 20.5027 26.9471 20.5027 26.9477 20.4999L26.9996 20.1193L26.7872 20.4365C26.7848 20.4334 26.7798 20.4298 26.7803 20.427C26.7878 20.322 26.7989 20.2119 26.8176 20.1058L26.8534 19.8876L26.6445 20.1634C26.6445 20.1634 26.6414 20.1657 26.6386 20.1654C26.5928 20.0075 26.5645 19.844 26.5536 19.6775L26.5402 19.5077L26.4511 19.6536C26.4287 19.6921 26.4011 19.7272 26.3739 19.7593L26.3707 19.7615C26.368 19.7612 26.3657 19.7581 26.3638 19.7522L26.2482 19.282L26.1806 19.3417C26.1452 19.3726 26.1081 19.3978 26.0688 19.4169L26.0662 19.4166C26.0676 19.2966 26.0799 19.1784 26.1027 19.0645L26.1308 18.915L26.0131 19.0117C25.9687 19.047 25.9216 19.0818 25.87 19.1103C25.8676 19.1072 25.8681 19.1044 25.8685 19.1016L26.0072 18.6449L25.6885 18.8733C25.6885 18.8733 25.6857 18.8728 25.686 18.8702L25.6865 18.8674C25.728 18.7591 25.7589 18.6464 25.7817 18.5325L25.8062 18.4077L25.5291 18.581C25.526 18.5832 25.526 18.5832 25.526 18.5832C25.526 18.5832 25.5237 18.5801 25.5246 18.5747L25.6638 18.0956L25.5404 18.1747C25.4421 18.2353 25.3553 18.3115 25.2808 18.3982C25.2777 18.4004 25.2749 18.4001 25.2754 18.3973L25.2227 17.9534L25.1423 18.1536C25.1063 18.2431 25.081 18.3372 25.0643 18.4296C25.0643 18.4296 25.0612 18.432 25.0588 18.4289L24.8492 17.9166L24.7994 18.0431C24.7819 18.0851 24.7617 18.1268 24.7364 18.1648C24.7336 18.1645 24.7313 18.1614 24.7317 18.1586L24.6324 17.6909L24.5417 18.0322C24.5411 18.0376 24.5383 18.0372 24.5383 18.0372C24.5383 18.0372 24.5355 18.0367 24.5305 18.0332C24.3878 17.9445 24.2792 17.7968 24.2378 17.6286L24.2082 17.5095L24.0784 17.7049C24.0758 17.7046 24.0758 17.7046 24.0761 17.7018C24.0334 17.5976 24.0167 17.4862 24.0313 17.3709L24.0452 17.2612L23.7883 17.4124C23.785 17.4148 23.7824 17.4143 23.7796 17.414L23.847 17.0049L23.7626 17.0286C23.5966 17.0761 23.447 17.1624 23.3259 17.2812C23.3223 17.2862 23.3195 17.2857 23.3195 17.2857C23.3195 17.2857 23.3173 17.2825 23.3176 17.2798L23.3378 16.889L23.2419 16.9693C23.14 17.0546 23.0444 17.152 22.9624 17.2513C22.9624 17.2513 22.9593 17.2536 22.9567 17.2532C22.9567 17.161 22.9426 17.0695 22.9141 16.9813L22.869 16.8376L22.8115 16.977C22.7766 17.0612 22.7544 17.1529 22.7508 17.2501L22.7482 17.2496C22.6676 17.1732 22.5845 17.0964 22.5046 17.0173L22.3051 16.8249L22.3242 17.1409C22.3242 17.1409 22.3242 17.1409 22.3237 17.1437C22.1445 17.0383 21.9898 16.9003 21.87 16.7341L21.7822 16.6147L21.7591 16.8961C21.7591 16.8961 21.7591 16.8961 21.7565 16.8957C21.6905 16.8523 21.6345 16.799 21.5914 16.7339L21.532 16.6466L21.495 16.7445C21.477 16.7893 21.4565 16.8336 21.4258 16.8709C21.4258 16.8709 21.423 16.8706 21.4233 16.8678C21.3779 16.819 21.339 16.7628 21.3117 16.7029L21.2758 16.6275L21.0148 16.915C21.006 16.8633 21.0025 16.8126 21.0103 16.7607L21.0242 16.6509L20.9294 16.7065C20.7555 16.806 20.5928 16.9239 20.445 17.0523L20.6023 16.7129L20.0263 17.1121L20.0871 16.7105L19.8063 16.9447C19.8063 16.9447 19.8069 16.9419 19.8041 16.9416C19.8112 16.747 19.8409 16.5503 19.8893 16.3593L19.9348 16.1872L19.7975 16.3034Z" fill="white"/>
</g>
</g>
</g>
</g>
<mask id="mask5_252_423" style="mask-type:luminance" maskUnits="userSpaceOnUse" x="19" y="13" width="12" height="11">
<path d="M19.7332 13.6445H30.7554V23.9112H19.7332V13.6445Z" fill="white"/>
</mask>
<g mask="url(#mask5_252_423)">
<mask id="mask6_252_423" style="mask-type:luminance" maskUnits="userSpaceOnUse" x="18" y="10" width="15" height="15">
<path d="M20.5059 10.4146L32.3905 12.2111L30.578 24.2012L18.6936 22.4047L20.5059 10.4146Z" fill="white"/>
</mask>
<g mask="url(#mask6_252_423)">
<mask id="mask7_252_423" style="mask-type:luminance" maskUnits="userSpaceOnUse" x="18" y="10" width="15" height="15">
<path d="M20.5059 10.4146L32.3905 12.2111L30.578 24.2012L18.6936 22.4047L20.5059 10.4146Z" fill="white"/>
</mask>
<g mask="url(#mask7_252_423)">
<mask id="mask8_252_423" style="mask-type:luminance" maskUnits="userSpaceOnUse" x="18" y="10" width="15" height="15">
<path d="M20.5059 10.4146L32.3905 12.2111L30.578 24.2012L18.6936 22.4047L20.5059 10.4146Z" fill="white"/>
</mask>
<g mask="url(#mask8_252_423)">
<path d="M30.7087 22.854C30.7078 22.8596 30.7047 22.8619 30.7047 22.8619C30.7019 22.8615 30.6962 22.8634 30.6946 22.8547L30.6493 22.7669C30.6264 22.7718 30.601 22.7735 30.5757 22.7752L30.5731 22.8475C30.5656 23.0811 30.5033 23.3093 30.3929 23.5049C30.3894 23.51 30.3835 23.5119 30.3807 23.5115C30.3692 23.4763 30.3607 23.4414 30.3528 23.4011L30.3229 23.2485L30.2493 23.3855C30.1628 23.5511 30.0377 23.6971 29.8844 23.808C29.8816 23.8077 29.8816 23.8077 29.8816 23.8077C29.8767 23.7481 29.8772 23.6896 29.8859 23.6322L29.9057 23.5011L29.7989 23.5799C29.5578 23.756 29.2743 23.8612 28.9805 23.8867C28.9779 23.8862 28.9779 23.8862 28.9779 23.8862C28.9779 23.8862 28.976 23.8803 28.9795 23.8752L29.0788 23.7171L28.9522 23.7426C28.8054 23.7735 28.6541 23.7785 28.5062 23.7619C28.5066 23.7591 28.5047 23.7532 28.5078 23.7509C28.5526 23.7129 28.5899 23.6683 28.625 23.6205L28.6897 23.5242L28.5739 23.5346C28.2998 23.5601 28.0198 23.4759 27.8066 23.3011C27.8041 23.298 27.805 23.2926 27.8054 23.2898L28.0291 23.2846L27.9481 23.194C27.8022 23.0351 27.6982 22.8377 27.6442 22.6228C27.6474 22.6205 27.6502 22.6209 27.6505 22.6181L27.921 22.7652L27.8595 22.619C27.7632 22.3893 27.722 22.1455 27.7397 21.8995C27.7429 21.8971 27.7514 21.8957 27.751 21.8985C27.7611 21.9056 27.768 21.915 27.7781 21.9221L27.8852 22.0249L27.8755 21.8865C27.8661 21.7454 27.8762 21.6044 27.9028 21.4659L27.9191 21.3761L27.8312 21.4047C27.8222 21.4091 27.8203 21.4032 27.818 21.4001C27.7896 21.3481 27.7679 21.2889 27.7521 21.228L27.7225 21.1089L27.6349 21.2466C27.6323 21.2462 27.6272 21.2426 27.6276 21.2398C27.6153 21.1737 27.612 21.1034 27.6165 21.037L27.6264 20.9155L27.388 21.0919C27.388 21.0919 27.3852 21.0915 27.383 21.0883C27.3805 21.0851 27.3805 21.0851 27.3837 21.0829L27.516 20.7424L27.2442 20.8997C27.2378 20.9044 27.2352 20.9039 27.2352 20.9039L27.2328 20.9008C27.2847 20.8164 27.3205 20.7268 27.343 20.6323L27.3783 20.4924L27.1885 20.623C27.1885 20.623 27.1854 20.6254 27.183 20.6223C27.1807 20.619 27.1807 20.619 27.1811 20.6164C27.217 20.5268 27.2418 20.4355 27.2559 20.3426L27.2807 20.1787L26.9592 20.499C26.9529 20.5035 26.9474 20.5028 26.9474 20.5028C26.9474 20.5028 26.9474 20.5028 26.9479 20.5001L26.9998 20.1195L26.7875 20.4367C26.785 20.4336 26.78 20.4299 26.7805 20.4271C26.788 20.3221 26.7991 20.212 26.8179 20.106L26.8536 19.8877L26.6448 20.1636C26.6448 20.1636 26.6416 20.1659 26.6389 20.1655C26.593 20.0077 26.5647 19.8442 26.5538 19.6777L26.5404 19.5079L26.4514 19.6537C26.429 19.6922 26.4014 19.7273 26.3741 19.7594L26.371 19.7617C26.3682 19.7613 26.366 19.7582 26.364 19.7523L26.2484 19.2822L26.1809 19.3419C26.1455 19.3728 26.1083 19.398 26.0691 19.4171L26.0665 19.4167C26.0679 19.2968 26.0802 19.1785 26.1029 19.0646L26.1311 18.9152L26.0133 19.0119C25.9689 19.0471 25.9219 19.082 25.8703 19.1105C25.8679 19.1073 25.8684 19.1046 25.8687 19.1018L26.0074 18.645L25.6887 18.8735C25.6887 18.8735 25.6859 18.873 25.6863 18.8704L25.6868 18.8676C25.7283 18.7593 25.7592 18.6466 25.7819 18.5327L25.8064 18.4079L25.5293 18.5811C25.5262 18.5834 25.5262 18.5834 25.5262 18.5834C25.5262 18.5834 25.5239 18.5803 25.5248 18.5749L25.664 18.0957L25.5406 18.1749C25.4423 18.2355 25.3555 18.3117 25.2811 18.3983C25.2779 18.4006 25.2752 18.4002 25.2757 18.3975L25.2229 17.9535L25.1425 18.1537C25.1066 18.2433 25.0812 18.3374 25.0646 18.4297C25.0646 18.4297 25.0614 18.4322 25.059 18.429L24.8495 17.9167L24.7996 18.0433C24.7821 18.0853 24.762 18.127 24.7366 18.165C24.7338 18.1646 24.7316 18.1615 24.7319 18.1587L24.6326 17.691L24.542 18.0323C24.5413 18.0377 24.5385 18.0374 24.5385 18.0374C24.5385 18.0374 24.5357 18.0369 24.5307 18.0334C24.388 17.9447 24.2795 17.7969 24.238 17.6287L24.2085 17.5096L24.0786 17.7051C24.076 17.7047 24.076 17.7047 24.0764 17.702C24.0337 17.5978 24.017 17.4863 24.0316 17.3711L24.0455 17.2613L23.7885 17.4126C23.7852 17.415 23.7826 17.4145 23.7798 17.4141L23.8472 17.0051L23.7628 17.0287C23.5969 17.0763 23.4472 17.1626 23.3262 17.2813C23.3225 17.2863 23.3198 17.2858 23.3198 17.2858C23.3198 17.2858 23.3175 17.2827 23.3179 17.2799L23.338 16.8891L23.2422 16.9695C23.1403 17.0547 23.0446 17.1521 22.9627 17.2514C22.9627 17.2514 22.9595 17.2537 22.9569 17.2534C22.9569 17.1612 22.9429 17.0697 22.9144 16.9815L22.8692 16.8377L22.8118 16.9771C22.7769 17.0613 22.7547 17.153 22.751 17.2502L22.7484 17.2497C22.6679 17.1733 22.5847 17.0966 22.5048 17.0174L22.3054 16.8251L22.3245 17.141C22.3245 17.141 22.3245 17.141 22.3239 17.1438C22.1448 17.0384 21.9901 16.9004 21.8703 16.7343L21.7824 16.6148L21.7594 16.8962C21.7594 16.8962 21.7594 16.8962 21.7567 16.8959C21.6908 16.8525 21.6347 16.7992 21.5916 16.7341L21.5323 16.6468L21.4953 16.7447C21.4772 16.7895 21.4567 16.8337 21.426 16.8711C21.426 16.8711 21.4232 16.8707 21.4236 16.8679C21.3781 16.8192 21.3392 16.7629 21.312 16.703L21.276 16.6277L21.0151 16.9152C21.0062 16.8634 21.0028 16.8127 21.0106 16.7608L21.0245 16.6511L20.9297 16.7067C20.7557 16.8061 20.593 16.924 20.4453 17.0525L20.6026 16.7131L20.0265 17.1122L20.0873 16.7106L19.8066 16.9448C19.8066 16.9448 19.8071 16.9421 19.8043 16.9417C19.8114 16.7471 19.8411 16.5504 19.8896 16.3594L19.935 16.1874L19.7977 16.3035C19.7816 16.3179 19.7658 16.3296 19.7529 16.3415C19.8324 16.1105 19.9286 15.879 20.0373 15.658L20.0937 15.5436L19.7901 15.6346C19.8833 15.4419 20.0076 15.2652 20.1597 15.1065L20.2526 15.0087L20.118 15.0136C20.0564 15.0153 19.9967 15.0231 19.9363 15.0363C20.0208 14.9374 20.1128 14.845 20.2121 14.7596L20.3335 14.6577L20.1767 14.662C20.1012 14.6645 20.0265 14.6784 19.9562 14.7013C20.151 14.5742 20.3373 14.4292 20.504 14.2671L20.5599 14.2113C20.5654 14.1926 20.5712 14.1738 20.5745 14.152L20.3316 14.1909C20.4621 14.0093 20.6179 13.8457 20.8 13.7112C20.8061 13.7259 20.8067 13.74 20.8073 13.754C20.7837 13.7813 20.7597 13.8112 20.7415 13.8391C20.7451 13.8341 20.7482 13.8318 20.7517 13.8268C20.7588 13.8167 20.7776 13.8223 20.7755 13.836C20.7691 13.8601 20.7712 13.8827 20.7679 13.9046C20.7649 13.9238 20.7594 13.9424 20.7564 13.9615C20.7467 14.0077 20.7291 14.0497 20.7144 14.0922C20.6883 14.1721 20.6675 14.2554 20.6547 14.3402C20.6288 14.4928 20.6248 14.6487 20.6406 14.802C20.6581 14.9443 20.696 15.0813 20.7455 15.2146C20.793 15.3419 20.8555 15.4631 20.9333 15.5756C20.9722 15.6317 21.0166 15.6886 21.0587 15.7426C21.1007 15.7964 21.1399 15.8499 21.1824 15.9009C21.1875 15.9046 21.1804 15.9146 21.1753 15.911C21.1392 15.8915 21.1031 15.8723 21.0701 15.8504C21.0377 15.8259 21.0078 15.802 20.9812 15.7756C20.9224 15.7219 20.8734 15.6586 20.8272 15.5957C20.7444 15.4799 20.6738 15.3573 20.6213 15.2238C20.6658 15.4652 20.716 15.7047 20.8604 15.911C20.9866 16.0893 21.1699 16.2231 21.3731 16.2987C21.8161 16.4662 22.3008 16.4304 22.7623 16.4751C22.7901 16.4764 22.8146 16.4801 22.8418 16.4843C22.8255 16.4818 22.8095 16.4766 22.7963 16.4718C22.7857 16.4674 22.7731 16.46 22.7621 16.4582C22.7375 16.4546 22.714 16.4622 22.6896 16.4586C22.6324 16.4499 22.576 16.4358 22.5219 16.4247C22.4679 16.4138 22.4133 16.4056 22.3597 16.3919C22.2547 16.3676 22.1472 16.3402 22.043 16.3105C21.9922 16.2971 21.9423 16.2758 21.8892 16.2593C21.8359 16.2428 21.783 16.2237 21.7305 16.2018C21.6809 16.1803 21.6352 16.1509 21.5859 16.1268C21.5392 16.103 21.4955 16.0796 21.4528 16.048C21.4404 16.0377 21.4519 16.0171 21.4675 16.0251C21.5172 16.0466 21.5668 16.0681 21.6166 16.0895C21.6691 16.1113 21.7227 16.1251 21.7758 16.1415C21.826 16.1603 21.8793 16.1768 21.933 16.1905C21.984 16.2037 22.0383 16.212 22.0897 16.2225C22.1439 16.2336 22.2007 16.2448 22.2552 16.2532C22.3646 16.2669 22.4705 16.2856 22.5807 16.294C22.6383 16.2999 22.6995 16.3008 22.755 16.3204C22.7816 16.3299 22.8045 16.3251 22.8323 16.3264C22.8599 16.3278 22.8875 16.3292 22.9147 16.3332C23.3184 16.3915 23.7118 16.4817 24.0944 16.6233C24.464 16.7603 24.8196 16.9341 25.1498 17.1461C25.4805 17.3554 25.7828 17.6051 26.0646 17.8796C26.2054 18.0183 26.3425 18.1619 26.4666 18.3176C26.4972 18.3558 26.5248 18.3935 26.5554 18.4317C26.5854 18.4725 26.6073 18.512 26.6314 18.5549C26.6857 18.6386 26.7311 18.7264 26.7821 18.8124C26.7863 18.8214 26.7765 18.8311 26.7696 18.8216C26.739 18.7836 26.709 18.7426 26.6727 18.7065C26.6387 18.6733 26.6078 18.6379 26.5765 18.6053C26.5599 18.586 26.537 18.5714 26.5205 18.5521C26.5035 18.5355 26.4873 18.5136 26.4703 18.4969C26.4062 18.423 26.3413 18.3546 26.2741 18.2829C26.142 18.1428 26.0035 18.0073 25.858 17.8818C25.5639 17.6334 25.2493 17.41 24.9189 17.2174C24.5833 17.0214 24.2262 16.8584 23.8573 16.7356C23.7194 16.6896 23.5833 16.6495 23.4469 16.612C23.8199 16.7244 24.1795 16.8905 24.5151 17.0865C25.0708 17.4108 25.5786 17.8313 26.0434 18.2787C26.384 18.6068 26.6745 19.0084 27.0797 19.2598C27.2758 19.3817 27.5031 19.4634 27.7324 19.4032C27.9472 19.3462 28.0821 19.1737 28.1729 18.9778C28.3548 18.5862 28.4316 18.0782 28.3873 17.6523C28.3743 17.5358 28.3486 17.4285 28.3144 17.3228C28.3524 17.4961 28.3699 17.6749 28.3594 17.8549C28.3491 18.0516 28.3085 18.2468 28.2283 18.4275C28.1484 18.6053 28.0311 18.7553 27.8814 18.878C27.8752 18.8825 27.8682 18.8731 27.8719 18.8681C27.9975 18.6999 28.0916 18.5018 28.1548 18.3046C28.2094 18.1284 28.2448 17.9494 28.2475 17.7653C28.2507 17.5785 28.2206 17.3896 28.1758 17.2068C28.137 17.0584 28.0783 16.9126 28.0132 16.7714C27.8194 16.5046 27.5887 16.2601 27.404 15.9891C27.1849 15.6683 26.9842 15.3362 26.8021 14.9928C26.7107 14.8225 26.6104 14.6565 26.5154 14.4912C26.6708 14.8836 26.8531 15.2633 27.0625 15.6301C27.1746 15.8287 27.2956 16.0231 27.4231 16.2127C27.4866 16.3089 27.5533 16.4028 27.6203 16.494C27.6845 16.5848 27.7543 16.6764 27.8035 16.7761C27.8099 16.7883 27.7946 16.7971 27.7845 16.79C27.685 16.7106 27.6033 16.6061 27.5267 16.5051C27.4475 16.4009 27.3713 16.2971 27.2958 16.1879C27.0352 15.8105 26.8043 15.4011 26.617 14.9817C26.5232 14.7718 26.4385 14.5579 26.3656 14.34C26.3305 14.2396 26.2982 14.1398 26.2665 14.0372C26.2225 13.9775 26.1722 13.9225 26.1154 13.8747C26.0833 13.8475 26.0472 13.828 26.0142 13.8063C25.9991 13.7955 25.9875 13.7799 25.9748 13.7725C25.9569 13.7613 25.9396 13.7475 25.9213 13.7391C25.8934 13.7209 25.8922 13.6733 25.9319 13.6681C25.9573 13.6664 25.9804 13.6615 26.0073 13.6683C26.0286 13.6744 26.0484 13.6718 26.0672 13.6773C26.0804 13.6822 26.0963 13.6874 26.1092 13.6948C26.1099 13.6895 26.1135 13.6844 26.122 13.6829C26.1359 13.6653 26.1663 13.6672 26.1908 13.6709C26.1911 13.6681 26.1942 13.6659 26.1942 13.6659C26.2121 13.6407 26.2573 13.6363 26.266 13.6711C26.2684 13.6742 26.2675 13.6797 26.2698 13.6829C26.3095 13.6777 26.3413 13.7077 26.3496 13.7452C26.3616 13.7945 26.3845 13.8455 26.4021 13.8957C26.5411 14.3219 26.8304 14.6757 27.1396 14.9907C27.4653 15.3251 27.8255 15.6337 28.1281 15.9924C28.2771 16.1686 28.4099 16.3591 28.5154 16.5652C28.6427 16.8106 28.716 17.0817 28.7469 17.3573C28.8116 17.979 28.6658 18.5942 28.5923 19.2089C28.5239 19.7714 28.5161 20.3766 28.7988 20.886C28.8182 20.9225 28.7979 20.9837 28.7642 21.0037C28.6052 21.0971 28.4592 21.2146 28.3349 21.3551C28.2741 21.4242 28.2154 21.4992 28.1646 21.5782C28.1172 21.652 28.0595 21.7383 28.0408 21.8249C28.0234 21.9034 28.068 21.9771 28.1021 22.0466C28.1385 22.119 28.1753 22.1889 28.2175 22.2596C28.3045 22.404 28.4003 22.5443 28.5123 22.6702C28.7003 22.883 28.9357 23.0584 29.2036 23.149C29.1986 23.1455 29.1908 23.1415 29.1854 23.1407C29.0949 23.0935 29.0029 23.0377 28.9232 22.9754C28.7665 22.8511 28.6309 22.6964 28.5161 22.5339C28.4564 22.4494 28.4076 22.3665 28.3632 22.2731C28.3212 22.183 28.2821 22.0905 28.2804 21.9924C28.2788 21.9837 28.291 21.9773 28.2982 21.9839C28.3283 22.0249 28.3521 22.0704 28.3764 22.1131C28.4028 22.1591 28.4234 22.2068 28.4531 22.2504C28.5128 22.335 28.5639 22.4209 28.6272 22.5002C28.6857 22.5735 28.7484 22.6388 28.8177 22.6968C28.887 22.7547 28.9625 22.808 29.038 22.8613C29.1946 22.9688 29.3769 23.0719 29.5666 23.0895C29.7422 23.1075 29.9257 23.0376 30.0607 22.9181C30.1993 22.7938 30.2632 22.6106 30.3092 22.436C30.3144 22.42 30.3375 22.4152 30.343 22.4327C30.4234 22.6573 30.3074 22.908 30.1441 23.0678C30.1656 23.0542 30.1844 23.0403 30.2033 23.0263C30.2632 22.9796 30.3191 22.9237 30.3672 22.8639C30.3758 22.8429 30.387 22.8251 30.3956 22.8039C30.4199 22.7546 30.439 22.7016 30.4581 22.6485C30.4937 22.5421 30.513 22.4332 30.5213 22.3228C30.522 22.3006 30.5257 22.2759 30.5236 22.2532C30.5253 22.2228 30.5349 22.1962 30.5371 22.1631C30.5392 22.1494 30.5385 22.1353 30.5434 22.1221C30.5481 22.1089 30.5526 22.0983 30.555 22.082C30.5595 22.052 30.5587 22.0211 30.555 21.9898C30.5559 21.9843 30.5616 21.9823 30.5635 21.9883C30.5708 22.0145 30.5807 22.0412 30.5906 22.0678C30.5944 22.0796 30.5982 22.0912 30.6047 22.1035C30.6113 22.1157 30.6186 22.1223 30.6224 22.1341C30.63 22.1575 30.6344 22.1834 30.642 22.2068C30.643 22.2183 30.6446 22.2268 30.6456 22.2383C30.6639 22.2466 30.6783 22.2627 30.6854 22.2889C30.7097 22.4044 30.7064 22.5185 30.6814 22.6292C30.7015 22.6435 30.7149 22.665 30.7217 22.694C30.7265 22.7171 30.7288 22.7398 30.7305 22.7652C30.7189 22.7858 30.7135 22.8212 30.7087 22.854Z" fill="#9AA7AF"/>
</g>
</g>
</g>
</g>
<mask id="mask9_252_423" style="mask-type:luminance" maskUnits="userSpaceOnUse" x="25" y="12" width="1" height="1">
<path d="M25.0222 12.7554H25.0667V12.7998H25.0222V12.7554Z" fill="white"/>
</mask>
<g mask="url(#mask9_252_423)">
<mask id="mask10_252_423" style="mask-type:luminance" maskUnits="userSpaceOnUse" x="18" y="10" width="15" height="15">
<path d="M20.5059 10.4146L32.3905 12.2111L30.578 24.2012L18.6936 22.4047L20.5059 10.4146Z" fill="white"/>
</mask>
<g mask="url(#mask10_252_423)">
<mask id="mask11_252_423" style="mask-type:luminance" maskUnits="userSpaceOnUse" x="18" y="10" width="15" height="15">
<path d="M20.5059 10.4146L32.3905 12.2111L30.578 24.2012L18.6936 22.4047L20.5059 10.4146Z" fill="white"/>
</mask>
<g mask="url(#mask11_252_423)">
<mask id="mask12_252_423" style="mask-type:luminance" maskUnits="userSpaceOnUse" x="18" y="10" width="15" height="15">
<path d="M20.5059 10.4146L32.3905 12.2111L30.578 24.2012L18.6936 22.4047L20.5059 10.4146Z" fill="white"/>
</mask>
<g mask="url(#mask12_252_423)">
<path d="M25.0412 12.793C25.0443 12.7972 25.0443 12.7972 25.0412 12.793Z" fill="#DD1212"/>
</g>
</g>
</g>
</g>
<mask id="mask13_252_423" style="mask-type:luminance" maskUnits="userSpaceOnUse" x="24" y="12" width="1" height="2">
<path d="M24.489 12.9775H24.5335V13.022H24.489V12.9775Z" fill="white"/>
</mask>
<g mask="url(#mask13_252_423)">
<mask id="mask14_252_423" style="mask-type:luminance" maskUnits="userSpaceOnUse" x="18" y="10" width="15" height="15">
<path d="M20.5059 10.4146L32.3905 12.2111L30.578 24.2012L18.6936 22.4047L20.5059 10.4146Z" fill="white"/>
</mask>
<g mask="url(#mask14_252_423)">
<mask id="mask15_252_423" style="mask-type:luminance" maskUnits="userSpaceOnUse" x="18" y="10" width="15" height="15">
<path d="M20.5059 10.4146L32.3905 12.2111L30.578 24.2012L18.6936 22.4047L20.5059 10.4146Z" fill="white"/>
</mask>
<g mask="url(#mask15_252_423)">
<mask id="mask16_252_423" style="mask-type:luminance" maskUnits="userSpaceOnUse" x="18" y="10" width="15" height="15">
<path d="M20.5059 10.4146L32.3905 12.2111L30.578 24.2012L18.6936 22.4047L20.5059 10.4146Z" fill="white"/>
</mask>
<g mask="url(#mask16_252_423)">
<path d="M24.5071 12.9893C24.51 12.9933 24.51 12.9933 24.5071 12.9893Z" fill="#DD1212"/>
</g>
</g>
</g>
</g>
<mask id="mask17_252_423" style="mask-type:luminance" maskUnits="userSpaceOnUse" x="22" y="11" width="10" height="11">
<path d="M22.4001 11.2891H31.1557V21.0224H22.4001V11.2891Z" fill="white"/>
</mask>
<g mask="url(#mask17_252_423)">
<mask id="mask18_252_423" style="mask-type:luminance" maskUnits="userSpaceOnUse" x="18" y="10" width="15" height="15">
<path d="M20.5059 10.4146L32.3905 12.2111L30.578 24.2012L18.6936 22.4047L20.5059 10.4146Z" fill="white"/>
</mask>
<g mask="url(#mask18_252_423)">
<mask id="mask19_252_423" style="mask-type:luminance" maskUnits="userSpaceOnUse" x="18" y="10" width="15" height="15">
<path d="M20.5059 10.4146L32.3905 12.2111L30.578 24.2012L18.6936 22.4047L20.5059 10.4146Z" fill="white"/>
</mask>
<g mask="url(#mask19_252_423)">
<mask id="mask20_252_423" style="mask-type:luminance" maskUnits="userSpaceOnUse" x="18" y="10" width="15" height="15">
<path d="M20.5059 10.4146L32.3905 12.2111L30.578 24.2012L18.6936 22.4047L20.5059 10.4146Z" fill="white"/>
</mask>
<g mask="url(#mask20_252_423)">
<path d="M31.1029 16.1517C31.1574 15.7911 31.1718 15.4189 31.0637 15.0644C31.0095 14.8885 30.9209 14.7187 30.797 14.5799C30.7803 14.5606 30.7598 14.5491 30.7385 14.543C30.6682 14.4179 30.5888 14.2969 30.497 14.1852C30.3609 14.0165 30.2001 13.8637 30.0234 13.742C29.9322 13.6807 29.8404 13.625 29.7418 13.5766C29.6327 13.5236 29.5189 13.484 29.4053 13.4418C29.2756 13.397 29.1461 13.3495 29.0291 13.276C28.9678 13.2387 28.9123 13.1828 28.8439 13.1557C28.7833 13.1326 28.7135 13.1332 28.6586 13.1641C28.6545 13.155 28.6501 13.146 28.6456 13.1397C28.5637 12.9625 28.4763 12.7844 28.3885 12.609C28.3437 12.5184 28.2984 12.4305 28.2505 12.3424C28.2378 12.3153 28.2225 12.2878 28.2098 12.2608C28.2018 12.2399 28.1933 12.2219 28.1847 12.2066C28.1635 12.1614 28.1357 12.1238 28.105 12.0884C28.105 12.0884 28.105 12.0884 28.1025 12.0852C28.0371 12.0028 27.9541 11.9427 27.8571 11.9028C27.8072 11.8814 27.7564 11.868 27.7055 11.8547C27.6545 11.8415 27.5939 11.8184 27.5433 11.8387C27.5286 11.8448 27.5159 11.854 27.5084 11.8668C27.4702 11.8611 27.4322 11.8554 27.3944 11.8469C27.2777 11.8264 27.159 11.8002 27.0432 11.7741C26.9053 11.745 26.764 11.7208 26.6229 11.733C26.5947 11.7344 26.5729 11.7507 26.5558 11.7705C26.5312 11.75 26.5064 11.7293 26.4815 11.7088C26.4097 11.6505 26.3296 11.6076 26.2461 11.57C26.2385 11.566 26.2307 11.562 26.2229 11.558C26.2187 11.5489 26.214 11.5427 26.2071 11.5333C26.1827 11.5101 26.165 11.4793 26.1376 11.4585C26.1074 11.4371 26.0709 11.4205 26.0402 11.4019C25.9777 11.3729 25.9121 11.3462 25.8456 11.325C25.7072 11.2816 25.5676 11.283 25.4235 11.3142C25.2794 11.3455 25.136 11.391 24.9935 11.4309C24.8595 11.4693 24.7232 11.5045 24.5911 11.5488C24.459 11.5932 24.3324 11.655 24.2015 11.7108C24.0767 11.7616 23.9489 11.7955 23.8189 11.8262C23.6857 11.859 23.5544 11.8979 23.4307 11.9602C23.3074 12.0198 23.1906 12.0917 23.0762 12.1665C22.9527 12.2457 22.834 12.3311 22.7248 12.4264C22.6702 12.4739 22.6152 12.5243 22.5652 12.5783C22.5317 12.6151 22.5006 12.6552 22.4696 12.6951C22.4557 12.7127 22.4392 12.7297 22.4277 12.7503C22.3847 12.8137 22.4734 12.8913 22.5222 12.826C22.5432 12.7984 22.5694 12.7717 22.5958 12.745C22.6374 12.7094 22.6836 12.68 22.7314 12.6594C22.7321 12.6734 22.7303 12.6844 22.731 12.6984C22.7294 12.7094 22.7305 12.7207 22.7288 12.7316C22.7114 12.7542 22.6991 12.7802 22.7001 12.8111C22.7006 12.8252 22.7154 12.8385 22.7291 12.8406C22.784 12.8462 22.8263 12.805 22.863 12.7658C22.8991 12.7293 22.9326 12.6925 22.9637 12.6526C22.9807 12.6326 22.9944 12.6153 23.0086 12.595C23.022 12.6361 23.0407 12.6781 23.0576 12.7142C23.0744 12.7503 23.0939 12.7868 23.1166 12.821C23.1343 12.8516 23.1577 12.8802 23.1928 12.8884L23.1951 12.8915C23.202 12.9009 23.2157 12.9029 23.2251 12.896C23.2314 12.8913 23.2376 12.8868 23.2413 12.8818C23.2565 12.8727 23.2668 12.8604 23.2696 12.8413C23.2701 12.8385 23.2735 12.8335 23.2741 12.8307C23.2831 12.8069 23.2897 12.7828 23.2965 12.7559C23.3058 12.7127 23.3152 12.6693 23.3244 12.626L23.3249 12.6233C23.335 12.6304 23.3451 12.6375 23.3555 12.6418C23.3885 12.6637 23.4215 12.6854 23.4539 12.7099C23.4838 12.7338 23.5168 12.7557 23.5461 12.7825C23.5609 12.7958 23.5755 12.8092 23.5906 12.82C23.6081 12.8337 23.6267 12.8394 23.6449 12.8477C23.6546 12.8575 23.6669 12.8679 23.6826 12.8757C23.7135 12.8917 23.7562 12.8674 23.7616 12.8318C23.7628 12.8236 23.7609 12.8177 23.7623 12.8095C23.7624 12.8264 23.7635 12.8014 23.761 12.7983C23.7597 12.7896 23.7577 12.7837 23.7558 12.7778C23.7539 12.772 23.7524 12.7634 23.7524 12.7634C23.7487 12.7516 23.7444 12.7425 23.7402 12.7335C23.793 12.7722 23.8581 12.8017 23.9149 12.8326C23.9253 12.837 23.9326 12.8437 23.9432 12.8481C23.9454 12.8512 23.9508 12.8521 23.9532 12.8552C23.9558 12.8555 23.9609 12.8592 23.9637 12.8595C23.9815 12.8707 23.9966 12.8812 24.014 12.8951C24.0215 12.9017 24.0288 12.9085 24.0388 12.9156C24.0388 12.9156 24.0416 12.916 24.0411 12.9187C24.0458 12.925 24.0531 12.9318 24.0577 12.938C24.065 12.9448 24.0723 12.9514 24.0829 12.9559C24.0909 12.9766 24.1044 12.9983 24.1218 13.012C24.152 13.0333 24.1895 13.025 24.2058 12.9911C24.2251 12.955 24.2178 12.912 24.2123 12.8748C24.2058 12.843 24.2027 12.809 24.1966 12.7746C24.1959 12.7606 24.1926 12.746 24.1925 12.7293C24.2001 12.7332 24.2107 12.7377 24.218 12.7443C24.2208 12.7448 24.2202 12.7474 24.2202 12.7474C24.2253 12.751 24.2281 12.7514 24.2331 12.755C24.2409 12.759 24.2482 12.7656 24.2532 12.7693C24.2683 12.7799 24.2857 12.7937 24.301 12.8043C24.3357 12.8319 24.3678 12.8592 24.3965 12.8915C24.3987 12.8946 24.401 12.8977 24.406 12.9012C24.406 12.9012 24.4107 12.9076 24.4135 12.908C24.4204 12.9174 24.4277 12.9241 24.4347 12.9335C24.4489 12.9496 24.4668 12.9608 24.4855 12.9663C24.4878 12.9694 24.49 12.9727 24.4923 12.9759C24.4973 12.9793 24.497 12.9821 24.4998 12.9825C24.5168 12.999 24.5359 13.0019 24.5569 12.9911C24.5911 12.9684 24.6008 12.9224 24.6093 12.8845C24.6105 12.8764 24.6117 12.868 24.613 12.8599C24.6319 12.8823 24.6544 12.8996 24.68 12.9147C24.6878 12.9187 24.6954 12.9227 24.7032 12.9266C24.7032 12.9266 24.7032 12.9266 24.706 12.9271C24.7083 12.9302 24.7138 12.9311 24.7161 12.9342C24.7183 12.9373 24.7211 12.9377 24.7208 12.9404L24.723 12.9436C24.7277 12.9498 24.7322 12.9562 24.7369 12.9625C24.7392 12.9656 24.7411 12.9715 24.7433 12.9746C24.7477 12.9837 24.7496 12.9896 24.7538 12.9986C24.7621 13.0165 24.7701 13.0373 24.7817 13.0531C24.7887 13.0625 24.7965 13.0665 24.8069 13.0708C24.8135 13.083 24.8293 13.0882 24.8433 13.0875C24.8827 13.0851 24.9163 13.0483 24.9402 13.0184C24.9576 12.9958 24.9781 12.971 24.9954 12.9484C24.9965 12.9597 24.998 12.9684 24.9991 12.9797C24.9998 12.9937 25.0008 13.0052 25.0015 13.0193C25.0006 13.0246 24.9994 13.0328 25.0013 13.0387C25.0001 13.0469 25.0015 13.0555 25.0003 13.0637C24.9897 13.079 24.9805 13.1026 24.9775 13.1219C24.9751 13.1382 24.9803 13.1585 24.9954 13.1693C25.0055 13.1764 25.0189 13.1811 25.0327 13.1804C25.0499 13.1774 25.0595 13.1705 25.0696 13.158C25.0786 13.1538 25.0881 13.1469 25.097 13.1427C25.0998 13.143 25.1001 13.1403 25.1029 13.1408C25.1029 13.1408 25.1091 13.1361 25.1119 13.1365C25.1484 13.1168 25.1871 13.1003 25.2235 13.0807C25.2446 13.07 25.2689 13.0568 25.29 13.046C25.288 13.0597 25.2887 13.0738 25.2866 13.0875C25.2845 13.101 25.2855 13.1125 25.284 13.1234C25.2829 13.112 25.2827 13.1316 25.2822 13.1344C25.2807 13.1453 25.2817 13.1566 25.2831 13.1653C25.2843 13.1766 25.2869 13.1769 25.2857 13.1851C25.277 13.2425 25.3508 13.2705 25.388 13.2285C25.3982 13.2161 25.4102 13.2095 25.4286 13.1984C25.435 13.1937 25.4439 13.1896 25.4503 13.1849C25.4503 13.1849 25.4624 13.1783 25.4597 13.1779C25.4628 13.1755 25.4718 13.1713 25.469 13.171C25.469 13.171 25.4784 13.1641 25.4812 13.1644C25.4843 13.1621 25.4871 13.1625 25.4902 13.1602C25.4992 13.1559 25.5083 13.1517 25.5171 13.1474C25.5262 13.1432 25.5352 13.1391 25.5439 13.1375C25.547 13.1352 25.5524 13.1361 25.5555 13.1337C25.5555 13.1337 25.5614 13.1318 25.5673 13.1299C25.5699 13.1304 25.573 13.1279 25.573 13.1279C25.573 13.1279 25.5758 13.1285 25.5786 13.1288L25.5808 13.1319C25.5831 13.1351 25.5827 13.1378 25.585 13.141C25.585 13.141 25.585 13.141 25.5847 13.1437C25.5847 13.1437 25.586 13.1522 25.5857 13.155C25.5857 13.155 25.5854 13.1578 25.5848 13.1606C25.5715 13.1752 25.5577 13.1927 25.5444 13.2075C25.5341 13.22 25.5239 13.2323 25.5133 13.2474C25.5062 13.2576 25.5022 13.2653 25.4923 13.275C25.473 13.2917 25.4635 13.3182 25.4793 13.3429C25.49 13.3641 25.5211 13.38 25.5426 13.3665C25.5732 13.3488 25.61 13.3264 25.6425 13.3146C25.6456 13.3121 25.651 13.313 25.6569 13.3111L25.6541 13.3108C25.6597 13.3115 25.6656 13.3095 25.6709 13.3104C25.6822 13.3094 25.6913 13.305 25.6998 13.3036C25.7197 13.301 25.7392 13.3012 25.7564 13.2983L25.7591 13.2986C25.7619 13.299 25.7645 13.2995 25.7645 13.2995C25.7727 13.3007 25.7808 13.3019 25.7864 13.3028C25.7918 13.3035 25.7946 13.304 25.7999 13.3049L25.8027 13.3052C25.8055 13.3055 25.8055 13.3055 25.8081 13.3061C25.8109 13.3064 25.8137 13.3068 25.8187 13.3104C25.8241 13.3113 25.8265 13.3144 25.8319 13.3153C25.8126 13.3318 25.7902 13.3509 25.7723 13.3592C25.739 13.3766 25.7164 13.4151 25.7333 13.4512C25.7501 13.4873 25.7866 13.504 25.8249 13.4901C25.8277 13.4906 25.8452 13.4849 25.8452 13.4849C25.8538 13.4833 25.8656 13.4795 25.8737 13.4807C25.8822 13.4793 25.8906 13.4805 25.9018 13.4795C25.9044 13.4799 25.9072 13.4802 25.91 13.4807C25.91 13.4807 25.9128 13.4811 25.9154 13.4816C25.9376 13.4821 25.9571 13.4823 25.9789 13.4856C25.9871 13.4868 25.9952 13.488 26.0008 13.4889C26.0034 13.4892 26.0331 13.4965 26.0171 13.4913C26.0197 13.4917 26.0279 13.4929 26.0357 13.4969C26.0381 13.5 26.0407 13.5005 26.0432 13.5036C26.0138 13.5132 25.9928 13.5408 25.9939 13.5715C25.9939 13.608 26.0201 13.637 26.0551 13.6451C26.077 13.6484 26.0984 13.6545 26.1201 13.6578C26.1447 13.6615 26.1727 13.6601 26.198 13.6583C26.2347 13.6555 26.269 13.6495 26.302 13.6349C26.3069 13.658 26.3137 13.687 26.3275 13.7059C26.3298 13.709 26.3348 13.7125 26.3367 13.7184C26.348 13.7536 26.3598 13.7863 26.3741 13.8219C26.4234 13.9384 26.4874 14.0486 26.552 14.1562C26.6815 14.3686 26.83 14.567 26.9878 14.7585C27.1529 14.9568 27.3242 15.1503 27.4992 15.3389C27.5954 15.4399 27.6921 15.5384 27.7977 15.6326C27.8913 15.7139 27.9904 15.7958 28.0715 15.8865C28.1645 15.9899 28.2338 16.1036 28.3022 16.2231C28.3532 16.309 28.4105 16.4099 28.4933 16.47C28.5051 16.5024 28.5201 16.5326 28.5319 16.5651C28.6392 16.8328 28.7194 17.1132 28.7567 17.401C28.7966 17.7088 28.7772 18.0217 28.7473 18.3302C28.731 18.5121 28.7119 18.6936 28.69 18.8748C28.6796 18.9627 28.6659 19.0528 28.6555 19.1406C28.6484 19.187 28.6446 19.2311 28.643 19.2785C28.6425 19.3007 28.6387 19.3253 28.6409 19.3479C28.6395 19.3561 28.6414 19.362 28.643 19.3707C28.6355 19.4198 28.6305 19.472 28.6256 19.5217C28.59 19.8125 28.5841 20.1106 28.6327 20.3974C28.6624 20.5694 28.7211 20.7349 28.7683 20.9012C28.7847 20.9595 28.8614 20.9684 28.9022 20.9382C28.9518 20.9038 29.0097 20.8903 29.0671 20.8793C29.0987 20.8729 29.13 20.8693 29.1612 20.8656C29.1612 20.8656 29.1612 20.8656 29.1638 20.8661C29.1666 20.9028 29.1893 20.937 29.2357 20.9439C29.3393 20.9597 29.4451 20.942 29.551 20.9413C29.5847 20.9408 29.6204 20.9434 29.6581 20.9519C29.6687 20.9562 29.6819 20.9611 29.6923 20.9654C29.6947 20.9686 29.6942 20.9713 29.697 20.9719C29.7104 20.9934 29.735 20.997 29.7557 20.9891C29.761 20.9899 29.7638 20.9903 29.7694 20.9911C29.7883 20.9939 29.8131 20.9781 29.8133 20.9587C29.8147 20.9309 29.8152 20.9087 29.7963 20.8863L29.794 20.883C29.7937 20.8299 29.7874 20.7786 29.7814 20.7274C29.7702 20.6531 29.7595 20.576 29.7571 20.5003C29.7485 20.3536 29.7569 20.2068 29.7973 20.0677C29.8348 19.9307 29.8987 19.8035 29.9598 19.6759C30.0248 19.5404 30.0895 19.4076 30.144 19.2677C30.2532 18.988 30.3355 18.7016 30.4262 18.4163C30.4725 18.2752 30.5216 18.1345 30.5758 17.9974C30.6331 17.858 30.6985 17.7198 30.7583 17.5835C30.827 17.4234 30.8826 17.2585 30.9222 17.0885C30.9428 17.0078 30.9583 16.9234 30.9734 16.842C30.9739 16.8392 30.9739 16.8392 30.9742 16.8365C30.9827 16.7986 30.9913 16.7608 30.9966 16.7253C31.0355 16.5411 31.0735 16.3458 31.1029 16.1517Z" fill="#DD1212"/>
</g>
</g>
</g>
</g>
<mask id="mask21_252_423" style="mask-type:luminance" maskUnits="userSpaceOnUse" x="25" y="11" width="6" height="10">
<path d="M25.2446 11.689H30.978V20.9779H25.2446V11.689Z" fill="white"/>
</mask>
<g mask="url(#mask21_252_423)">
<mask id="mask22_252_423" style="mask-type:luminance" maskUnits="userSpaceOnUse" x="18" y="10" width="15" height="15">
<path d="M20.5059 10.4146L32.3905 12.2111L30.578 24.2012L18.6936 22.4047L20.5059 10.4146Z" fill="white"/>
</mask>
<g mask="url(#mask22_252_423)">
<mask id="mask23_252_423" style="mask-type:luminance" maskUnits="userSpaceOnUse" x="18" y="10" width="15" height="15">
<path d="M20.5059 10.4146L32.3905 12.2111L30.578 24.2012L18.6936 22.4047L20.5059 10.4146Z" fill="white"/>
</mask>
<g mask="url(#mask23_252_423)">
<mask id="mask24_252_423" style="mask-type:luminance" maskUnits="userSpaceOnUse" x="18" y="10" width="15" height="15">
<path d="M20.5059 10.4146L32.3905 12.2111L30.578 24.2012L18.6936 22.4047L20.5059 10.4146Z" fill="white"/>
</mask>
<g mask="url(#mask24_252_423)">
<path d="M30.5477 18.1468C30.5255 18.1826 30.4969 18.2062 30.4552 18.2055C30.4189 18.2055 30.3752 18.182 30.3641 18.1442C30.2944 17.9044 30.2248 17.6649 30.1578 17.4256C30.0943 17.2008 30.0311 16.9734 29.9969 16.739C29.9689 16.5364 29.9719 16.3327 29.9856 16.131C29.9974 15.9426 30.0129 15.7662 30.0019 15.5801C29.9962 15.4898 29.9833 15.39 29.9594 15.3083C29.9519 15.2848 29.9465 15.2643 29.9391 15.2409C29.9372 15.235 29.9352 15.2291 29.9306 15.2228C29.9278 15.2225 29.9247 15.2247 29.9221 15.2244C29.9075 15.2277 29.8953 15.2343 29.8806 15.2404C29.8806 15.2404 29.8622 15.2517 29.859 15.2539C29.8526 15.2586 29.846 15.2659 29.8398 15.2706C29.8366 15.2728 29.8366 15.2728 29.8366 15.2728C29.8366 15.2728 29.8361 15.2756 29.833 15.2779C29.8295 15.2831 29.8264 15.2853 29.8227 15.2904C29.8125 15.3029 29.8019 15.318 29.7913 15.3331C29.7908 15.3359 29.7882 15.3355 29.7877 15.3381C29.7877 15.3381 29.7873 15.3409 29.7842 15.3431C29.7802 15.351 29.7762 15.3588 29.7722 15.3666C29.7528 15.4027 29.7389 15.4397 29.7273 15.48C29.7269 15.4826 29.7264 15.4853 29.7264 15.4853C29.726 15.4881 29.726 15.4881 29.7255 15.4909C29.7243 15.4991 29.72 15.5095 29.7188 15.5178C29.7163 15.5341 29.7115 15.5473 29.709 15.5638C29.6719 15.7537 29.6563 15.9497 29.6495 16.1416C29.6424 16.336 29.6493 16.53 29.6644 16.7251C29.674 16.8466 29.6889 16.969 29.7097 17.0895C29.7458 17.2011 29.7964 17.3095 29.8504 17.4126C29.9153 17.5369 29.9964 17.6638 30.0819 17.7801C30.1259 17.8399 30.1698 17.8996 30.2165 17.9598C30.2635 18.0171 30.3109 18.0718 30.3514 18.1366C30.396 18.2103 30.4201 18.2895 30.4214 18.3735C30.4222 18.4603 30.404 18.5442 30.383 18.6275C30.3406 18.7973 30.2773 18.9581 30.2063 19.115C30.0724 19.4105 29.9075 19.6902 29.8129 20.0029C29.7307 20.2699 29.7016 20.5728 29.8089 20.8405C29.8375 20.9091 29.7785 20.9673 29.712 20.9655C29.604 20.9605 29.4991 20.953 29.3939 20.9482C29.3413 20.9459 29.2887 20.9435 29.2366 20.9385C29.2094 20.9343 29.1762 20.932 29.1526 20.923C29.1344 20.9147 29.12 20.8985 29.1085 20.8827C29.0285 20.9322 28.9135 20.9734 28.8262 20.9239C28.8236 20.9235 28.8205 20.9258 28.8177 20.9254C28.8033 20.9287 28.7858 20.915 28.7938 20.8994C28.7941 20.8968 28.7977 20.8916 28.7981 20.889C28.7879 20.865 28.792 20.8378 28.8167 20.8218C28.8288 20.8154 28.8382 20.8084 28.8504 20.8018C28.8606 20.7893 28.8703 20.7798 28.8806 20.7673C28.9144 20.7277 28.9432 20.6845 28.9721 20.6414C29.0754 20.4753 29.1318 20.2855 29.1958 20.1024C29.2714 19.8791 29.3623 19.6636 29.4538 19.4456C29.4578 19.4378 29.4684 19.4423 29.4672 19.4504C29.441 19.5862 29.4153 19.7192 29.3811 19.8537C29.3266 20.0662 29.2641 20.2775 29.1778 20.4796C29.1642 20.514 29.1483 20.5451 29.1321 20.5789C29.1352 20.5767 29.1356 20.5739 29.1387 20.5716C29.1458 20.5616 29.153 20.5513 29.1604 20.5385C29.1609 20.5359 29.1609 20.5359 29.1635 20.5362L29.1641 20.5334C29.1675 20.5284 29.1681 20.5256 29.1715 20.5206C29.1861 20.4977 29.1984 20.4716 29.2104 20.4482C29.3182 20.2327 29.4036 19.9996 29.4826 19.7713C29.5667 19.5298 29.6451 19.2872 29.6939 19.0376C29.7347 18.823 29.7498 18.6129 29.7352 18.3956C29.73 18.3753 29.7252 18.3522 29.7198 18.3317C29.6946 18.2218 29.6781 18.1103 29.6587 17.9984C29.6469 17.9296 29.6349 17.8607 29.6226 17.7945C29.6102 17.748 29.5972 17.7041 29.5849 17.6576C29.5814 17.643 29.5858 17.6326 29.5925 17.6251C29.5766 17.5277 29.558 17.43 29.542 17.3324C29.5078 17.1345 29.4733 16.9393 29.4391 16.7412C29.404 16.5487 29.3663 16.3558 29.3431 16.1595C29.3198 15.9631 29.3188 15.7675 29.3231 15.5725C29.325 15.394 29.3259 15.2041 29.2918 15.0228C29.2609 14.8589 29.2014 14.6991 29.1451 14.5369C29.087 14.3688 29.037 14.202 29.0076 14.027C28.9847 13.8839 28.9707 13.7366 28.9392 13.5947C28.9373 13.589 28.9373 13.589 28.9377 13.5862C28.9377 13.5862 28.938 13.5834 28.9358 13.5803C28.9342 13.5716 28.93 13.5628 28.929 13.5513C28.9257 13.5369 28.9194 13.522 28.9134 13.507C28.9016 13.4746 28.8866 13.4444 28.8748 13.4119C28.8495 13.3577 28.8139 13.2992 28.7807 13.2411C28.7566 13.1984 28.7925 13.1451 28.8427 13.1638C28.9059 13.1874 28.955 13.2312 28.9944 13.2846C29.0181 13.2938 29.041 13.3084 29.0615 13.3199C29.0743 13.3274 29.0866 13.3376 29.0991 13.348C29.1266 13.3326 29.1609 13.3265 29.1868 13.3388C29.4281 13.4395 29.6816 13.5506 29.888 13.7159C29.9326 13.7338 29.976 13.76 30.0132 13.7907C30.1793 13.9275 30.2859 14.1253 30.3592 14.3235C30.3988 14.4301 30.4293 14.5411 30.4573 14.6513C30.4866 14.7704 30.5193 14.8871 30.5427 15.0081C30.5438 15.0194 30.5299 15.0201 30.5255 15.011C30.4655 14.893 30.4115 14.7702 30.3602 14.6478C30.3458 14.615 30.334 14.5824 30.3194 14.5496C30.3342 14.6914 30.338 14.8317 30.3615 14.9721C30.387 15.1353 30.4526 15.2905 30.5604 15.4074C30.6181 15.4692 30.6908 15.5221 30.7552 15.557C30.8042 15.5839 30.853 15.611 30.8854 15.655C30.9205 15.6994 30.9347 15.7518 30.9406 15.8058C30.9611 16.0017 30.9668 16.2037 30.9648 16.4018C30.9646 16.6058 30.9559 16.8112 30.928 17.0138C30.8635 17.4037 30.751 17.7975 30.5477 18.1468ZM29.0288 17.593C29.0215 17.6589 29.0063 17.7237 28.9991 17.7897C28.9971 17.8034 28.9774 17.8032 28.9769 17.7892C28.9708 17.7183 28.9566 17.6463 28.9483 17.5725C28.9429 17.5157 28.9372 17.4617 28.929 17.4046C28.9278 17.5051 28.9238 17.6051 28.9172 17.7046C28.9111 17.7624 28.908 17.8206 28.8997 17.8753C28.8915 17.93 28.8778 17.9838 28.8668 18.0379C28.8575 18.0812 28.7899 18.085 28.7861 18.0369C28.7804 17.9829 28.7745 17.9291 28.7719 17.8727C28.7582 17.6499 28.7667 17.4277 28.7363 17.2051C28.7064 16.9966 28.6682 16.8063 28.583 16.6147C28.5648 16.5701 28.5432 16.5277 28.5217 16.4853C28.5026 16.4461 28.4891 16.4244 28.4627 16.3786C28.4134 16.2984 28.3606 16.2234 28.3047 16.1506C28.2465 16.0747 28.1852 16.0013 28.1234 15.9305C28.0925 15.8951 28.0616 15.8596 28.0276 15.8265C27.9986 15.797 27.9774 15.7714 27.9411 15.7352C27.6682 15.4565 27.3762 15.1944 27.1231 14.8963C26.8394 14.56 26.6087 14.1871 26.4056 13.7985C26.3644 13.7197 26.3238 13.6381 26.2828 13.5593C26.2792 13.5643 26.2752 13.5721 26.2717 13.5772C26.2642 13.59 26.2571 13.6001 26.2446 13.6095C26.2379 13.6168 26.2285 13.6237 26.2217 13.6312C26.1936 13.652 26.1592 13.6579 26.125 13.6444C26.1068 13.636 26.0911 13.6282 26.0792 13.6152C26.0601 13.6122 26.0455 13.5989 26.0335 13.5859C26.0266 13.5765 26.0193 13.5697 26.0155 13.5581C26.0089 13.5459 26.0082 13.5319 26.0076 13.5176L26.0068 13.5232C26.0085 13.4926 26.0049 13.4614 25.9981 13.4324C25.9986 13.4298 25.9962 13.4267 25.9967 13.4239C25.9694 13.456 25.9399 13.4852 25.9059 13.5079C25.9028 13.5103 25.8965 13.5149 25.8906 13.5168C25.8906 13.5168 25.8879 13.5164 25.8875 13.5192C25.8816 13.5211 25.8781 13.5261 25.8722 13.528C25.8045 13.5513 25.7351 13.4765 25.7844 13.4086C25.7879 13.4034 25.791 13.4011 25.7946 13.3961C25.7839 13.3749 25.779 13.3518 25.7851 13.3303C25.7597 13.3322 25.7351 13.3284 25.7087 13.3188C25.6877 13.3102 25.674 13.2912 25.6658 13.2704C25.6569 13.2747 25.6479 13.2789 25.6417 13.2836C25.6024 13.3029 25.5531 13.3345 25.512 13.3114C25.4837 13.2959 25.4925 13.2555 25.5071 13.2326C25.5182 13.2147 25.5347 13.1975 25.5509 13.1833C25.5575 13.1758 25.5639 13.1713 25.5705 13.1638C25.5307 13.169 25.496 13.1777 25.4596 13.1973C25.42 13.2194 25.3863 13.2393 25.3429 13.2496C25.3313 13.2534 25.3221 13.2409 25.3177 13.2319C25.3163 13.2232 25.3148 13.2147 25.3156 13.2091C25.2806 13.201 25.2573 13.1529 25.2967 13.1308C25.3241 13.1154 25.3471 13.0937 25.3717 13.0779C25.396 13.0649 25.4203 13.0517 25.4444 13.0386C25.4931 13.0124 25.5439 12.9893 25.5925 12.9631C25.6226 12.9482 25.6477 12.9296 25.6646 12.9098C25.6729 12.8916 25.684 12.8737 25.6948 12.8584C25.6983 12.8534 25.7023 12.8456 25.7057 12.8405C25.7109 12.8246 25.7139 12.8055 25.7141 12.7859C25.7132 12.6992 25.6809 12.5992 25.6583 12.5093C25.6323 12.4048 25.6271 12.2921 25.6672 12.1921C25.6936 12.1289 25.7748 12.144 25.8005 12.1954C25.883 12.3504 25.9627 12.505 26.0332 12.6666C26.0519 12.7084 26.0679 12.7501 26.0866 12.7919C26.0997 12.8162 26.1127 12.8405 26.1257 12.865C26.1545 12.914 26.1807 12.9626 26.2063 13.014C26.2557 13.1109 26.3083 13.2055 26.3578 13.3024C26.454 13.4958 26.5557 13.69 26.6616 13.8737C26.8337 14.1735 27.0215 14.4617 27.2406 14.7268C27.2245 14.7048 27.2078 14.6855 27.1944 14.664C27.0547 14.464 26.934 14.2473 26.8163 14.0312C26.6981 13.8176 26.5884 13.6027 26.476 13.3872C26.42 13.2782 26.3641 13.1692 26.3139 13.0583C26.2634 12.9501 26.2043 12.8433 26.1917 12.7241C26.1901 12.7154 26.2019 12.7116 26.2064 12.7178C26.2944 12.8178 26.341 12.9534 26.4007 13.0742C26.4604 13.1949 26.5226 13.3188 26.591 13.4383C26.7101 13.6463 26.8349 13.8524 26.963 14.0562C27.0911 14.26 27.216 14.4661 27.3594 14.6609C27.5007 14.8499 27.6615 15.0223 27.8221 15.1947C27.9014 15.2794 27.9743 15.3687 28.0535 15.4532C28.1326 15.5379 28.1962 15.6341 28.2748 15.7214C28.2823 15.728 28.2693 15.7402 28.262 15.7334C28.2069 15.6916 28.1484 15.6548 28.0929 15.6157C28.0906 15.6126 28.0879 15.6121 28.0856 15.6089C28.1316 15.6551 28.1773 15.7039 28.2205 15.7496C28.4387 15.9838 28.6387 16.2459 28.7696 16.5423C28.7424 16.4459 28.7069 16.3484 28.6679 16.2558C28.6434 16.1963 28.6222 16.1345 28.595 16.0744C28.5743 16.0265 28.5417 15.9657 28.5446 15.9103C28.5453 15.9048 28.5549 15.8978 28.5599 15.9015C28.5882 15.9169 28.6057 15.9475 28.6266 15.9758C28.6474 16.0041 28.6623 16.0343 28.68 16.0648C28.7149 16.1289 28.7467 16.1951 28.7754 16.2638C28.8778 16.5084 28.9599 16.7583 29.0068 17.0197C29.029 17.1487 29.0401 17.2789 29.0398 17.4102C29.0365 17.4685 29.0351 17.5326 29.0288 17.593ZM26.1455 13.2871C26.1375 13.2662 26.1295 13.2456 26.1215 13.2247C26.1203 13.2329 26.1217 13.2416 26.1201 13.2525C26.1196 13.2553 26.1193 13.2579 26.1184 13.2635C26.129 13.2678 26.1359 13.2772 26.1455 13.2871ZM26.2097 13.4338C26.2036 13.4188 26.1976 13.4039 26.1915 13.389C26.1948 13.4036 26.1955 13.4176 26.1962 13.4317C26.2012 13.4352 26.2071 13.4333 26.2097 13.4338ZM26.7542 11.8786C26.7977 11.9046 26.8396 11.9221 26.8879 11.935C26.9076 11.952 26.9273 11.969 26.9467 11.9886C27.0096 12.0513 27.0722 12.1166 27.1352 12.1793C27.2658 12.3107 27.3941 12.4392 27.5221 12.5702C27.5267 12.5765 27.5318 12.5801 27.5368 12.5836C27.5556 12.6256 27.5743 12.6676 27.5934 12.7067C27.6769 12.873 27.7632 13.0399 27.8707 13.1958C27.9304 13.2803 27.9936 13.3596 28.0663 13.432C28.1026 13.4683 28.1389 13.5046 28.1788 13.5357C28.1986 13.5527 28.2188 13.5669 28.2415 13.5815C28.2672 13.5966 28.2894 13.5971 28.317 13.5985C28.3392 13.5991 28.3557 13.582 28.3481 13.5586C28.3401 13.5378 28.3377 13.5178 28.3264 13.4994C28.3149 13.4836 28.3002 13.4702 28.2856 13.4569C28.2589 13.4305 28.2321 13.4041 28.2059 13.3749C28.1538 13.314 28.1049 13.2508 28.0594 13.1824C27.9733 13.052 27.8969 12.9119 27.8259 12.7727C27.7896 12.7001 27.7509 12.6244 27.7175 12.5496C27.7109 12.5372 27.7071 12.5256 27.7007 12.5135C27.7122 12.5291 27.7215 12.5418 27.733 12.5574C27.7806 12.6121 27.8347 12.6595 27.8858 12.7091C27.8953 12.7188 27.9083 12.7069 27.9045 12.6951C27.8747 12.6346 27.8533 12.5728 27.8262 12.5128C27.7995 12.4501 27.7609 12.3912 27.728 12.3331C27.7214 12.3209 27.7144 12.3116 27.708 12.2994C27.7142 12.2947 27.7205 12.29 27.7267 12.2855C27.7691 12.2638 27.8087 12.2782 27.8476 12.298C27.8917 12.3187 27.9356 12.3421 27.9795 12.3655C28.0686 12.4209 28.1479 12.486 28.2238 12.5562C28.2606 12.5897 28.3035 12.6185 28.3403 12.652C28.3573 12.6685 28.3712 12.6874 28.3944 12.6994C28.4177 12.7112 28.4375 12.7282 28.4599 12.7456C28.4622 12.7487 28.4655 12.7464 28.4661 12.7409C28.4609 12.7206 28.4552 12.7029 28.4526 12.6829C28.4483 12.6572 28.446 12.6345 28.4326 12.6129C28.408 12.5728 28.3896 12.5282 28.3615 12.4931C28.3472 12.477 28.333 12.4609 28.3186 12.4447C28.3184 12.4279 28.3158 12.4081 28.3097 12.3931C28.2964 12.352 28.2656 12.3166 28.2366 12.2871C28.2076 12.2576 28.1781 12.2306 28.1457 12.2062C28.1368 12.1909 28.1285 12.1728 28.1227 12.1553C28.0783 12.0619 28.024 11.9782 27.9286 11.9275C27.8719 11.8966 27.8073 11.8813 27.746 11.8636C27.6846 11.8459 27.6222 11.8338 27.5601 11.8214C27.4379 11.8003 27.3181 11.7989 27.1958 11.7971C27.1151 11.7961 27.0349 11.7925 26.9597 11.7727C26.9116 11.7404 26.8592 11.7183 26.8016 11.7124C26.758 11.7058 26.7122 11.7326 26.6997 11.778C26.6911 11.8159 26.7132 11.8556 26.7542 11.8786Z" fill="#910909"/>
</g>
</g>
</g>
</g>
<mask id="mask25_252_423" style="mask-type:luminance" maskUnits="userSpaceOnUse" x="19" y="11" width="13" height="13">
<path d="M19.689 11.1553H31.2001V23.9553H19.689V11.1553Z" fill="white"/>
</mask>
<g mask="url(#mask25_252_423)">
<mask id="mask26_252_423" style="mask-type:luminance" maskUnits="userSpaceOnUse" x="18" y="10" width="15" height="15">
<path d="M20.5059 10.4146L32.3905 12.2111L30.578 24.2012L18.6936 22.4047L20.5059 10.4146Z" fill="white"/>
</mask>
<g mask="url(#mask26_252_423)">
<mask id="mask27_252_423" style="mask-type:luminance" maskUnits="userSpaceOnUse" x="18" y="10" width="15" height="15">
<path d="M20.5059 10.4146L32.3905 12.2111L30.578 24.2012L18.6936 22.4047L20.5059 10.4146Z" fill="white"/>
</mask>
<g mask="url(#mask27_252_423)">
<mask id="mask28_252_423" style="mask-type:luminance" maskUnits="userSpaceOnUse" x="18" y="10" width="15" height="15">
<path d="M20.5059 10.4146L32.3905 12.2111L30.578 24.2012L18.6936 22.4047L20.5059 10.4146Z" fill="white"/>
</mask>
<g mask="url(#mask28_252_423)">
<path d="M30.6991 22.0508C30.7243 22.0687 30.7495 22.0864 30.7747 22.1043C30.8228 22.1366 30.896 22.0945 30.8688 22.0346C30.805 21.8852 30.7231 21.7444 30.6229 21.6147L30.6365 21.6168C30.696 21.6284 30.7248 21.5491 30.683 21.5119C30.459 21.3161 30.1972 21.1675 29.9162 21.0718C29.9255 21.0648 29.93 21.0544 29.9321 21.0407C29.9358 21.0162 29.9231 20.9892 29.8995 20.98C29.8807 20.9742 29.8653 20.9664 29.8465 20.9607C29.8471 20.9581 29.8478 20.9525 29.8455 20.9494C29.8429 20.9294 29.8377 20.9091 29.8356 20.8864C29.8281 20.8433 29.8235 20.8008 29.8191 20.7555C29.8097 20.6702 29.8092 20.5806 29.8167 20.4952C29.8299 20.3155 29.8731 20.1404 29.9267 19.9697C30.0464 19.6022 30.2294 19.2583 30.3413 18.8867C30.3478 18.8626 30.3542 18.8385 30.3634 18.8147C30.3792 18.7834 30.395 18.7523 30.4085 18.7181C30.4316 18.6572 30.4521 18.5961 30.4724 18.535C30.5125 18.418 30.5556 18.2987 30.6011 18.1827C30.6922 17.9478 30.7908 17.7195 30.8976 17.4926C30.9507 17.3805 30.9985 17.2676 31.033 17.1499C31.0679 17.0294 31.0842 16.9034 31.0974 16.7796C31.1221 16.5234 31.1415 16.2664 31.158 16.0091C31.1658 15.8845 31.1738 15.7572 31.1788 15.6322C31.1833 15.51 31.1879 15.3878 31.1726 15.268C31.1434 15.0372 31.0351 14.831 30.9172 14.6343C30.8061 14.447 30.6955 14.257 30.5535 14.0902C30.4825 14.0069 30.4052 13.9282 30.3177 13.8619C30.225 13.7919 30.1214 13.74 30.032 13.6678C29.9425 13.5956 29.8568 13.5183 29.7526 13.469C29.6436 13.4162 29.5245 13.3926 29.4099 13.3586C29.3005 13.3253 29.1957 13.2815 29.0948 13.23C28.9912 13.1779 28.888 13.1232 28.795 13.056C28.7648 13.0346 28.7346 13.0133 28.7012 12.9944C28.6603 12.9155 28.6196 12.8339 28.5754 12.7574C28.5078 12.6326 28.4372 12.5102 28.3669 12.385C28.3054 12.2751 28.2476 12.1602 28.174 12.0569C28.1028 11.9567 28.0123 11.873 27.8965 11.8277C27.7702 11.7779 27.6304 11.7622 27.4969 11.7421C27.2108 11.6989 26.9238 11.661 26.6372 11.64C26.604 11.6379 26.5682 11.6352 26.5351 11.6331C26.5269 11.6319 26.5156 11.6329 26.5075 11.6317C26.4695 11.6063 26.4288 11.5806 26.3908 11.5553C26.2842 11.4862 26.1745 11.4192 26.0648 11.3523C25.95 11.2819 25.8285 11.2188 25.695 11.1987C25.5587 11.178 25.4208 11.2048 25.288 11.235C25.1526 11.2648 25.0186 11.3032 24.8865 11.3475C24.6254 11.4338 24.3807 11.5589 24.1219 11.6484C23.8721 11.7334 23.6141 11.7812 23.3788 11.8992C23.1651 12.0039 22.9741 12.1426 22.7943 12.2999C22.7012 12.3808 22.6163 12.4629 22.5306 12.5506C22.4481 12.6359 22.3705 12.7247 22.2929 12.8136C22.2662 12.8431 22.2422 12.873 22.2177 12.9056C22.2233 12.8506 22.2288 12.7956 22.2339 12.7433C22.2379 12.6992 22.1745 12.6756 22.1566 12.7204C22.0656 12.9525 21.7049 12.9985 21.5596 12.7978C21.5248 12.7506 21.4526 12.8041 21.4873 12.8511C21.5174 12.8921 21.5386 12.9371 21.5537 12.9841C21.3582 12.9685 21.1627 12.9893 20.9851 13.0576C20.9438 13.0735 20.9464 13.1298 20.9825 13.1492C21.0313 13.1763 21.0766 13.2083 21.1188 13.2426C20.9394 13.3048 20.7814 13.4095 20.6566 13.5527C20.6295 13.585 20.6594 13.6454 20.7028 13.6352C20.746 13.6249 20.7886 13.6202 20.8304 13.6209C20.6186 13.7676 20.4346 13.9523 20.2859 14.1617C20.2611 14.1971 20.2854 14.2567 20.3339 14.2499C20.3767 14.2425 20.4198 14.235 20.4623 14.2303C20.2952 14.3951 20.1089 14.5402 19.9113 14.6668C19.8589 14.7008 19.9085 14.778 19.9639 14.7614C20.0342 14.7385 20.103 14.7265 20.1759 14.7235C20.0734 14.8114 19.9783 14.906 19.8901 15.01C19.8629 15.0423 19.892 15.1081 19.938 15.0984C19.9986 15.0852 20.0587 15.0746 20.1203 15.0728C19.9646 15.2364 19.8332 15.4234 19.7356 15.6265C19.7149 15.6709 19.7599 15.7056 19.8005 15.6951C19.8618 15.6763 19.9259 15.6581 19.9877 15.6367C19.8787 15.8605 19.7823 16.0919 19.6997 16.3253C19.684 16.3732 19.7347 16.4256 19.7818 16.3907C19.8005 16.3768 19.8167 16.3626 19.8359 16.3459C19.7872 16.5397 19.757 16.7392 19.749 16.9392C19.7483 16.981 19.7946 17.0242 19.8359 16.9914C19.8932 16.9442 19.9509 16.8942 20.0082 16.847C19.9955 16.9317 19.9821 17.019 19.9695 17.1037C19.962 17.1529 20.0186 17.1838 20.0563 17.156C20.1931 17.0621 20.3299 16.9683 20.4644 16.8713C20.4398 16.9234 20.4153 16.9756 20.3934 17.028C20.3722 17.0753 20.4333 17.132 20.4754 17.0937C20.6234 16.9622 20.7858 16.8471 20.9566 16.7501C20.9507 16.8077 20.9502 16.8664 20.9637 16.9244C20.9738 16.9678 21.024 16.9866 21.0547 16.9492C21.1193 16.8723 21.1865 16.7959 21.2507 16.7218C21.2825 16.7881 21.3236 16.8475 21.374 16.9025C21.3955 16.9253 21.4332 16.9338 21.4573 16.9039C21.492 16.8589 21.5189 16.8098 21.5377 16.7596C21.5858 16.8284 21.646 16.8905 21.7202 16.9353C21.7504 16.9567 21.8023 16.9449 21.8061 16.9008C21.8104 16.8539 21.8151 16.8044 21.8167 16.757C21.9439 16.93 22.1087 17.0751 22.2957 17.1843C22.334 17.2069 22.3738 17.1654 22.371 17.1287C22.366 17.0692 22.3637 17.0102 22.3589 16.9508C22.4733 17.0603 22.5877 17.1699 22.7049 17.2798C22.7339 17.3093 22.796 17.2852 22.7967 17.2433C22.8017 17.1546 22.8205 17.0681 22.8524 16.9862C22.8785 17.0713 22.8934 17.1574 22.8912 17.2464C22.8913 17.2996 22.9649 17.3107 22.9925 17.2758C23.0748 17.1735 23.1669 17.0813 23.2658 16.9985C23.2608 17.0871 23.2557 17.1758 23.2507 17.2645C23.2474 17.3227 23.3104 17.3489 23.3524 17.3105C23.4672 17.1966 23.6106 17.1148 23.7649 17.0711L23.7103 17.3954C23.7021 17.4501 23.7599 17.4728 23.8021 17.4511L23.9639 17.3583C23.9485 17.4789 23.9634 17.6013 24.0127 17.7178C24.0295 17.7537 24.0856 17.7708 24.1108 17.7326C24.1325 17.6996 24.1538 17.6692 24.1755 17.6362C24.2208 17.8162 24.336 17.9761 24.4938 18.0754C24.5318 18.1008 24.5733 18.0846 24.5858 18.0392C24.5974 17.9989 24.6059 17.961 24.6175 17.9209C24.636 18.002 24.6516 18.0826 24.6696 18.1662C24.6797 18.2098 24.7419 18.2416 24.771 18.1956C24.7998 18.1525 24.8236 18.1058 24.842 18.0583C24.8952 18.1864 24.9481 18.3147 25.0012 18.4428C25.0238 18.4964 25.1007 18.4857 25.1116 18.4315C25.1257 18.3386 25.153 18.2506 25.1853 18.1661C25.1932 18.2426 25.2038 18.3197 25.2118 18.3964C25.2179 18.4477 25.2799 18.4626 25.3132 18.4256C25.3846 18.3414 25.4677 18.2702 25.5603 18.2116C25.5266 18.3239 25.4955 18.4366 25.4615 18.5515C25.445 18.605 25.4965 18.6518 25.5486 18.6206C25.6042 18.5843 25.6622 18.5511 25.7179 18.5148C25.6955 18.626 25.6653 18.7333 25.6269 18.8392C25.6078 18.8921 25.6642 18.9426 25.7141 18.9083C25.7764 18.8645 25.8392 18.8181 25.9016 18.7744C25.8722 18.8763 25.8406 18.9749 25.8113 19.0767C25.7997 19.1168 25.8346 19.1806 25.8858 19.155C25.9434 19.1246 25.9964 19.0878 26.0443 19.0475C26.0207 19.1669 26.0075 19.2907 26.0052 19.4161C26.0054 19.4523 26.0542 19.4794 26.0844 19.4643C26.1297 19.4405 26.1729 19.4135 26.2113 19.3801C26.2422 19.5077 26.2731 19.6353 26.3068 19.7635C26.3188 19.8128 26.3766 19.8355 26.411 19.7931C26.4412 19.7586 26.4693 19.7209 26.4922 19.6796C26.5056 19.8494 26.5333 20.0157 26.5807 20.182C26.5936 20.226 26.6571 20.23 26.6814 20.1973C26.7059 20.1647 26.7307 20.1293 26.758 20.0971C26.7415 20.2063 26.7281 20.3133 26.7198 20.4239C26.7174 20.4765 26.7882 20.5235 26.8241 20.4704L26.9071 20.3459C26.8997 20.3952 26.8953 20.4419 26.8879 20.4912C26.8785 20.5541 26.9531 20.5765 26.9924 20.5378C27.0611 20.4699 27.1273 20.4017 27.1957 20.3366C27.182 20.4267 27.1575 20.5152 27.1224 20.5992C27.1002 20.6546 27.162 20.7058 27.2118 20.6714L27.2837 20.6209C27.2618 20.7098 27.2264 20.7966 27.1781 20.876C27.1636 20.8989 27.1754 20.9313 27.1955 20.9456C27.2179 20.9629 27.246 20.9617 27.2675 20.9482C27.3134 20.9216 27.3592 20.8949 27.405 20.8683C27.3811 20.9346 27.3549 20.9977 27.3309 21.064C27.3087 21.1192 27.3702 21.1732 27.4203 21.136C27.4674 21.1013 27.5144 21.0666 27.5615 21.0317C27.5563 21.1036 27.5592 21.1767 27.5733 21.2487C27.5832 21.2949 27.6483 21.3242 27.6802 21.2787C27.6879 21.2659 27.6981 21.2536 27.7052 21.2435C27.7205 21.3072 27.7446 21.3695 27.7748 21.4272C27.7925 21.4579 27.8248 21.4655 27.8538 21.4588C27.8264 21.6027 27.8182 21.7496 27.8271 21.8933C27.8148 21.8831 27.8028 21.8701 27.7903 21.8598C27.7556 21.8322 27.6913 21.8504 27.6894 21.9004C27.6702 22.1574 27.7151 22.4129 27.8137 22.6458C27.7698 22.6225 27.7236 22.5959 27.6799 22.5725C27.641 22.5527 27.5823 22.5912 27.5952 22.6352C27.6505 22.8586 27.7618 23.0628 27.9142 23.2338C27.8781 23.2339 27.8445 23.2345 27.8078 23.2372C27.7521 23.2372 27.7375 23.3161 27.7773 23.3473C28.0035 23.5296 28.2965 23.6185 28.5847 23.5923C28.5559 23.6353 28.5189 23.6773 28.4774 23.7129C28.4392 23.7435 28.4485 23.8119 28.503 23.8202C28.659 23.8383 28.8162 23.8312 28.9686 23.8011C28.9575 23.819 28.9467 23.8341 28.9384 23.8525C28.9123 23.8961 28.9372 23.9529 28.991 23.9471C29.2957 23.9232 29.5913 23.8116 29.8387 23.631C29.8292 23.6937 29.828 23.7579 29.8325 23.8201C29.8368 23.8654 29.8919 23.8876 29.9269 23.8595C30.0837 23.7433 30.2125 23.5925 30.3028 23.4188C30.3106 23.4591 30.3189 23.4968 30.3327 23.5352C30.3493 23.5907 30.4207 23.5793 30.4464 23.5383C30.5642 23.3298 30.628 23.0935 30.6335 22.8541C30.6377 22.8631 30.6441 22.8753 30.6485 22.8843C30.6764 22.9388 30.7552 22.9339 30.7674 22.8714C30.8177 22.5942 30.7939 22.3083 30.6991 22.0508ZM22.479 12.7635C22.5662 12.6845 22.646 12.5987 22.7363 12.5175C22.9077 12.3617 23.0886 12.2157 23.2879 12.0951C23.3858 12.0372 23.4884 11.9857 23.5974 11.9463C23.7219 11.898 23.8523 11.8647 23.9778 11.8277C24.1087 11.7916 24.2353 11.7464 24.3601 11.6954C24.4849 11.6445 24.605 11.5872 24.7321 11.5393C24.8592 11.4914 24.9886 11.4468 25.1167 11.4102C25.2448 11.3737 25.3754 11.3404 25.5087 11.3242C25.6417 11.3109 25.7604 11.3371 25.8795 11.397C25.9938 11.4534 26.0998 11.5253 26.207 11.5918C26.2705 11.6322 26.3318 11.6694 26.3953 11.7096C26.4023 11.7192 26.412 11.7289 26.4255 11.731C26.4283 11.7315 26.4283 11.7315 26.4309 11.7319C26.7658 11.9501 27.0858 12.194 27.3274 12.5129C27.4573 12.6862 27.5653 12.8758 27.6853 13.0588C27.8007 13.2355 27.9306 13.4088 28.1175 13.5181C28.161 13.5442 28.2111 13.5629 28.2585 13.5813C28.2905 13.5918 28.3219 13.549 28.2917 13.5277C28.203 13.4695 28.1307 13.3944 28.053 13.3183C27.9776 13.2454 27.912 13.1629 27.8524 13.0784C27.7261 12.9001 27.6186 12.7077 27.4953 12.527C27.2847 12.2242 27.0115 11.9845 26.7144 11.7747C26.7583 11.7786 26.8024 11.7824 26.8464 11.7862C26.9889 11.8022 27.1314 11.8181 27.2736 11.8369C27.4103 11.8548 27.5491 11.8758 27.6873 11.9022C27.8096 11.9235 27.9235 11.9631 28.0127 12.0548C28.0922 12.1367 28.1464 12.2398 28.2012 12.3376C28.2693 12.4596 28.3394 12.5848 28.4075 12.7069C28.5346 12.9357 28.667 13.1652 28.746 13.4175C28.7882 13.544 28.8158 13.6739 28.8495 13.802C28.8827 13.9327 28.9245 14.0619 28.9721 14.1893C29.0202 14.314 29.0682 14.4386 29.1073 14.5675C29.1445 14.6904 29.1726 14.8176 29.1894 14.9459C29.2241 15.2138 29.2037 15.4789 29.2021 15.747C29.2014 15.881 29.2092 16.0135 29.2339 16.1458C29.2583 16.278 29.2974 16.4069 29.3306 16.5376C29.3875 16.7697 29.4078 17.0048 29.433 17.2433C29.446 17.3598 29.4615 17.4796 29.483 17.5945C29.5075 17.71 29.5412 17.8185 29.5953 17.9216C29.6208 17.973 29.6502 18.0194 29.6821 18.0662C29.696 18.085 29.7266 18.0673 29.7186 18.0464C29.6797 17.9345 29.6554 17.819 29.6311 17.7036C29.6063 17.5909 29.5901 17.4767 29.5738 17.3624C29.5458 17.1235 29.532 16.8838 29.4868 16.6478C29.4618 16.5183 29.4228 16.3895 29.3919 16.2619C29.3587 16.1312 29.3399 15.997 29.3325 15.8617C29.3203 15.5916 29.3531 15.3199 29.33 15.0482C29.307 14.7765 29.2347 14.5169 29.1368 14.2617C29.0887 14.1371 29.0406 14.0124 29.0016 13.8836C28.9629 13.752 28.9328 13.619 28.8974 13.485C28.8667 13.3742 28.8271 13.2676 28.7816 13.1629C28.8115 13.1871 28.8445 13.2088 28.8769 13.2333C28.9675 13.2973 29.0712 13.3492 29.1733 13.3926C29.2806 13.4395 29.3894 13.4756 29.5017 13.5065C29.6115 13.5371 29.7175 13.5727 29.8104 13.6398C29.9035 13.707 29.9866 13.7838 30.0832 13.8459C30.1773 13.905 30.2662 13.9629 30.3493 14.0398C30.5059 14.1836 30.6205 14.3659 30.73 14.5445C30.8443 14.7294 30.9636 14.9178 31.0264 15.1286C31.0927 15.3537 31.0669 15.5985 31.0544 15.8286C31.0386 16.0805 31.0196 16.3346 30.9985 16.5857C30.9877 16.7126 30.9773 16.8369 30.9556 16.9621C30.9346 17.0819 30.9009 17.1942 30.8537 17.3044C30.8059 17.4173 30.7504 17.5263 30.7004 17.636C30.6498 17.7485 30.5995 17.8612 30.5544 17.9744C30.5149 18.0692 30.478 18.1669 30.4439 18.2624C30.4382 18.0798 30.3925 17.9025 30.3382 17.7267C30.2794 17.5445 30.2264 17.3605 30.1879 17.173C30.1493 16.9855 30.1252 16.7947 30.107 16.6018C30.087 16.3838 30.0806 16.1676 30.0774 15.9492C30.0764 15.7338 30.0823 15.5112 30.0474 15.2992C30.0425 15.2761 30.0094 15.2739 30.0057 15.2984C29.9655 15.4907 29.9603 15.6911 29.961 15.8897C29.9597 16.0822 29.9639 16.2758 29.9736 16.4699C29.9932 16.8558 30.0497 17.2388 30.1611 17.6077C30.2169 17.7921 30.2866 17.976 30.3077 18.169C30.3304 18.3681 30.3063 18.5657 30.2547 18.7591C30.1559 19.1353 29.9698 19.4817 29.8448 19.8484C29.7764 20.0419 29.7236 20.2437 29.7037 20.4501C29.6941 20.5494 29.6925 20.6525 29.708 20.7525C29.7146 20.8011 29.7236 20.8527 29.7387 20.8997C29.7425 20.9116 29.746 20.926 29.7497 20.9378C29.6583 20.9155 29.563 20.9011 29.4686 20.898C29.3938 20.8951 29.3205 20.9008 29.2467 20.9093C29.2531 20.9046 29.2566 20.8996 29.2625 20.8977C29.3037 20.8647 29.2813 20.7914 29.2243 20.7996C29.0936 20.8162 28.9677 20.8558 28.85 20.9162C28.841 20.9206 28.8347 20.9251 28.8257 20.9294C28.7262 20.6657 28.6615 20.3931 28.6427 20.111C28.6247 19.8065 28.6457 19.5022 28.6828 19.2004C28.7618 18.5669 28.9042 17.9206 28.8031 17.2794C28.7577 16.9904 28.6622 16.7188 28.5193 16.4654C28.3899 16.2334 28.2266 16.0242 28.05 15.8272C27.6901 15.4235 27.2788 15.065 26.9415 14.6425C26.7471 14.3978 26.5891 14.1338 26.4559 13.8537C26.3049 13.5431 26.1752 13.2216 26.03 12.9091C25.9922 12.8279 25.9516 12.7464 25.911 12.6648C25.8979 12.6404 25.8649 12.6551 25.8726 12.6786C25.9292 12.8576 25.9979 13.03 26.0639 13.202C26.1181 13.3416 26.1698 13.4779 26.2271 13.6152C26.1517 13.5982 26.0705 13.5999 25.9932 13.6133C26.0134 13.5912 26.0333 13.569 26.0563 13.5473C26.088 13.5214 26.0724 13.4772 26.0373 13.469C25.941 13.4433 25.8431 13.4452 25.7497 13.4732C25.7794 13.4246 25.8144 13.3767 25.8542 13.3352C25.8778 13.3081 25.85 13.2704 25.8193 13.2713C25.7014 13.2758 25.586 13.303 25.4833 13.3546C25.4877 13.344 25.4948 13.3339 25.4988 13.3261C25.5134 13.3032 25.5248 13.2827 25.5391 13.2624C25.5537 13.2395 25.5667 13.2275 25.5941 13.2121C25.6151 13.2013 25.6202 13.1685 25.6122 13.1477C25.6017 13.1239 25.5809 13.115 25.5559 13.1142C25.5196 13.1142 25.4778 13.1331 25.445 13.1477C25.4063 13.1642 25.3702 13.181 25.3365 13.2011C25.3186 13.2095 25.3028 13.2211 25.2872 13.2327C25.3075 13.1716 25.3252 13.11 25.3375 13.0475C25.3427 13.0121 25.3037 12.9949 25.2762 13.0103C25.1908 13.0589 25.1077 13.1107 25.0219 13.1619C25.0307 13.085 25.0287 13.0065 25.0208 12.9298C25.0153 12.8926 24.9708 12.8916 24.9526 12.9195C24.9191 12.976 24.8851 13.035 24.8542 13.0918C24.7693 12.9897 24.6839 12.89 24.6017 12.7883C24.5755 12.7591 24.5177 12.7727 24.5274 12.8188C24.536 12.8734 24.5363 12.9265 24.5257 12.9779C24.4264 12.8791 24.3172 12.79 24.2002 12.7164C24.1622 12.6911 24.1182 12.7235 24.1311 12.7675C24.1493 12.8317 24.1561 12.897 24.1544 12.9636C24.0278 12.8607 23.8906 12.773 23.7455 12.7008C23.7089 12.6839 23.6669 12.7223 23.6833 12.7612C23.6998 12.7999 23.7103 12.8407 23.7177 12.8838C23.6012 12.7879 23.4847 12.6921 23.3682 12.5963C23.3339 12.5659 23.2894 12.601 23.2891 12.6402C23.2896 12.7296 23.2677 12.8185 23.236 12.9003C23.1728 12.8013 23.1188 12.6982 23.0799 12.5862C23.0677 12.5563 23.0217 12.5466 23.0009 12.5742C22.929 12.6806 22.8375 12.7702 22.7297 12.8378C22.7405 12.7668 22.7535 12.6989 22.7642 12.6279C22.7691 12.5951 22.7266 12.5635 22.6979 12.5871C22.6068 12.6739 22.5082 12.7541 22.4101 12.8313C22.4306 12.8065 22.4535 12.7848 22.479 12.7635ZM27.8764 21.3643C27.8316 21.2737 27.8066 21.1805 27.7997 21.0789C27.7962 21.028 27.7215 21.0056 27.6927 21.0487C27.6887 21.0565 27.6821 21.064 27.6781 21.0716C27.6809 21.0162 27.6892 20.9616 27.7033 20.905C27.7167 20.8539 27.6467 20.8183 27.6087 20.8489C27.5773 20.872 27.546 20.8952 27.5146 20.9185C27.5365 20.8659 27.5556 20.8128 27.578 20.7576C27.6005 20.6996 27.5375 20.6563 27.4886 20.6853C27.449 20.7074 27.4122 20.7296 27.3726 20.7517C27.4012 20.6721 27.42 20.5855 27.4273 20.5001C27.4325 20.4477 27.3762 20.4142 27.3327 20.4438C27.3174 20.4527 27.3044 20.4647 27.2891 20.4735C27.3122 20.3765 27.3247 20.2749 27.3261 20.1746C27.3264 20.1159 27.2517 20.1131 27.2217 20.1449C27.1592 20.2081 27.0941 20.2709 27.0311 20.3367C27.0422 20.2629 27.0511 20.186 27.0623 20.1124C27.0705 20.0577 26.9906 20.0148 26.9578 20.0659L26.8642 20.2053C26.8788 20.0902 26.9016 19.9763 26.9267 19.8655C26.9413 19.8063 26.857 19.7739 26.8222 19.819C26.7698 19.8893 26.7174 19.9596 26.6655 20.0272C26.6181 19.8244 26.5995 19.6148 26.6059 19.4063C26.6089 19.3313 26.5057 19.3129 26.4887 19.3886C26.4705 19.4725 26.4368 19.5484 26.3925 19.6199C26.3636 19.4982 26.3314 19.3787 26.3024 19.257C26.2899 19.2103 26.233 19.1822 26.1983 19.2273C26.1773 19.255 26.1542 19.2793 26.1287 19.3006C26.1387 19.1596 26.163 19.018 26.2059 18.8819C26.2231 18.823 26.1511 18.7647 26.1063 18.8221C26.0648 18.8746 26.0181 18.9261 25.967 18.9688C25.9962 18.8671 26.0287 18.7629 26.058 18.6612C26.0745 18.6077 26.0212 18.555 25.9708 18.5921C25.9113 18.6362 25.8493 18.6772 25.7898 18.7213C25.8191 18.6195 25.8398 18.5192 25.8528 18.415C25.8606 18.3631 25.8035 18.335 25.7636 18.3596C25.7142 18.3912 25.6622 18.4225 25.6127 18.4543C25.646 18.3447 25.6766 18.2346 25.7099 18.1251C25.7219 18.0822 25.6861 18.0237 25.6377 18.0499C25.5174 18.1072 25.4111 18.1834 25.3141 18.2721C25.3014 18.1723 25.2917 18.0704 25.2788 17.9706C25.2712 17.9109 25.1964 17.9079 25.17 17.9541C25.1169 18.0468 25.0743 18.1437 25.0424 18.2451C24.9892 18.1168 24.9384 17.9918 24.8854 17.8636C24.8651 17.8131 24.7837 17.8175 24.775 17.8749C24.7715 17.9162 24.763 17.9541 24.7486 17.9938C24.7254 17.8897 24.7052 17.7833 24.682 17.6793C24.6696 17.6131 24.5858 17.6143 24.5677 17.6787C24.5432 17.7671 24.5214 17.8562 24.4964 17.9473C24.3575 17.8341 24.274 17.6678 24.2708 17.4857C24.2696 17.4379 24.195 17.4155 24.1693 17.4563C24.1436 17.4971 24.1153 17.5376 24.0899 17.5758C24.0686 17.4775 24.0729 17.3747 24.1042 17.2789C24.1238 17.2232 24.0691 17.1786 24.017 17.2098C23.9618 17.2433 23.907 17.2742 23.849 17.3074C23.8662 17.2122 23.8811 17.1138 23.8983 17.0187C23.9037 16.9831 23.8703 16.9445 23.8356 16.9532C23.6662 16.9864 23.5136 17.0555 23.3783 17.1579C23.3828 17.0721 23.3875 16.9862 23.3922 16.9003C23.3938 16.8529 23.3438 16.8147 23.3002 16.8444C23.1905 16.9256 23.0906 17.014 23.0002 17.1148C22.9865 17.0206 22.9585 16.9296 22.916 16.8423C22.8986 16.8088 22.8436 16.7866 22.8179 16.8273C22.759 16.9218 22.716 17.0216 22.6967 17.1305C22.5747 17.0169 22.4524 16.9034 22.3306 16.7872C22.2943 16.751 22.2377 16.7928 22.2425 16.8353C22.2458 16.9058 22.2517 16.9765 22.255 17.047C22.078 16.9279 21.9294 16.7685 21.8182 16.5813C21.7936 16.5412 21.7264 16.5617 21.7226 16.606C21.7181 16.6723 21.7109 16.7383 21.7064 16.8046C21.6476 16.7511 21.5991 16.685 21.5662 16.6074C21.5452 16.5624 21.4695 16.5648 21.4639 16.6199C21.4571 16.6833 21.4399 16.7421 21.4122 16.7964C21.3702 16.7426 21.3403 16.6822 21.3167 16.6173C21.303 16.5789 21.2531 16.5768 21.2267 16.6036C21.1693 16.6704 21.1149 16.7348 21.0575 16.8017C21.0609 16.7602 21.0698 16.7197 21.087 16.6803C21.104 16.6409 21.0625 16.5845 21.017 16.6083C20.8663 16.6833 20.7245 16.7735 20.5896 16.8734L20.6476 16.748C20.6721 16.6958 20.6094 16.6501 20.5655 16.6826C20.4097 16.7904 20.2537 16.9008 20.0953 17.0083C20.1089 16.9181 20.1229 16.8253 20.1366 16.735C20.1432 16.6914 20.0879 16.6522 20.0498 16.6827C19.9861 16.7346 19.9254 16.7869 19.8616 16.8388C19.882 16.6128 19.9267 16.3904 20.0011 16.1753C20.0207 16.1195 19.9478 16.0666 19.9092 16.1194C19.899 16.1319 19.8887 16.1444 19.878 16.1595C19.9521 15.9638 20.0396 15.7732 20.1347 15.5864C20.158 15.5423 20.1082 15.5041 20.067 15.5175L19.8827 15.5761C19.9859 15.3905 20.117 15.2232 20.2722 15.0817C20.3045 15.053 20.2967 14.9933 20.2478 14.9859C20.1873 14.9794 20.1294 14.9763 20.07 14.9813C20.1561 14.8909 20.2491 14.81 20.3469 14.7353C20.3846 14.7076 20.3688 14.6464 20.3224 14.6395C20.2733 14.632 20.2207 14.6296 20.1705 14.6305C20.3431 14.5029 20.504 14.3595 20.6504 14.2029C20.6833 14.1687 20.6481 14.1076 20.6024 14.1145C20.5509 14.1235 20.4967 14.132 20.4455 14.1383C20.6087 13.9254 20.7957 13.7581 21.0108 13.6258C21.0535 13.6015 21.029 13.5419 20.9886 13.5331C20.9399 13.5228 20.8882 13.515 20.8379 13.5159C20.9528 13.4187 21.0859 13.3494 21.234 13.3103C21.2629 13.3034 21.2759 13.2551 21.257 13.2327C21.2137 13.1871 21.1691 13.1496 21.1188 13.114C21.2762 13.068 21.437 13.056 21.6004 13.0806C21.6276 13.0848 21.6563 13.0612 21.6526 13.0298C21.6502 13.01 21.6448 12.9895 21.6391 12.972C21.8014 13.0412 22.0103 13.0056 22.1372 12.8852L22.1247 13.0425C22.1224 13.0756 22.158 13.0978 22.1858 13.0798C22.3528 12.9708 22.5129 12.8525 22.6604 12.7239C22.6486 12.7836 22.6392 12.8464 22.6274 12.9062C22.6229 12.9362 22.6573 12.9666 22.6847 12.9511C22.8142 12.8869 22.928 12.7978 23.0202 12.686C23.0667 12.8022 23.1281 12.9119 23.2021 13.0126C23.2254 13.044 23.2686 13.0338 23.2846 13.0027C23.3344 12.9124 23.3656 12.8166 23.3781 12.715C23.4997 12.8145 23.624 12.9143 23.7452 13.0164C23.7799 13.044 23.8235 13.0143 23.821 12.9747C23.8203 12.9244 23.8141 12.8732 23.8021 12.8239C23.9309 12.8937 24.0517 12.9789 24.162 13.0794C24.1863 13.1027 24.2309 13.0843 24.236 13.0515C24.2443 12.9773 24.2438 12.9074 24.2351 12.8362C24.3358 12.9074 24.4274 12.9826 24.5116 13.0708C24.5311 13.0905 24.5719 13.0966 24.5827 13.0621C24.5979 13.0168 24.6104 12.9711 24.6123 12.9211C24.683 13.0072 24.754 13.0907 24.8245 13.1768C24.8458 13.2023 24.8802 13.1964 24.8955 13.168C24.9186 13.1267 24.9387 13.085 24.9622 13.0411C24.9651 13.0947 24.9597 13.1497 24.9486 13.2039C24.9453 13.2258 24.9698 13.249 24.9908 13.2383C25.0731 13.1919 25.1577 13.1489 25.2399 13.1027C25.2202 13.1779 25.1922 13.252 25.1561 13.3247C25.136 13.3664 25.1957 13.3949 25.2202 13.3622C25.2288 13.3609 25.237 13.3621 25.2483 13.361C25.2655 13.3581 25.2811 13.3464 25.2964 13.3376C25.3269 13.3197 25.3578 13.2994 25.3884 13.2815C25.4068 13.2704 25.4276 13.2624 25.4488 13.2517C25.4448 13.2593 25.438 13.2668 25.434 13.2746C25.408 13.3181 25.387 13.3652 25.366 13.4122C25.3524 13.4466 25.3899 13.4746 25.4182 13.4537C25.5142 13.39 25.6205 13.3503 25.7314 13.3362C25.6837 13.3933 25.6434 13.457 25.611 13.5247C25.5906 13.5664 25.6419 13.5964 25.6755 13.5765C25.755 13.5298 25.8472 13.5102 25.9349 13.5206C25.9011 13.5602 25.8695 13.603 25.8429 13.6492C25.8235 13.6855 25.8653 13.7225 25.9009 13.7083C26.0248 13.6628 26.1472 13.6645 26.2696 13.7025C26.3943 13.9841 26.5335 14.2622 26.7125 14.5155C27.0241 14.9622 27.4318 15.3258 27.8011 15.7225C28.1684 16.1133 28.512 16.5508 28.638 17.0812C28.7879 17.7131 28.6637 18.3676 28.5738 18.9996C28.4924 19.5937 28.4347 20.2333 28.6639 20.8015C28.6837 20.8548 28.7151 20.9043 28.7445 20.9506C28.7292 20.9595 28.7139 20.9683 28.7009 20.9803C28.7028 20.9303 28.6474 20.8912 28.5981 20.923C28.4931 20.9909 28.4019 21.0777 28.3254 21.1779C28.3014 21.2077 28.2825 21.2412 28.2634 21.2747C28.2585 21.2154 28.2557 21.1589 28.2563 21.1004C28.2568 21.0418 28.1728 21.0263 28.1417 21.0662C28.0719 21.1591 28.02 21.2631 27.992 21.3734C27.9901 21.3675 27.9882 21.3617 27.986 21.3586C27.97 21.3169 27.9024 21.3208 27.8764 21.3643ZM30.5981 22.5162C30.5828 22.4888 30.5577 22.4709 30.5255 22.4801C30.4967 22.4869 30.4726 22.5168 30.479 22.5485C30.5287 22.8103 30.5017 23.0801 30.4061 23.3254C30.4004 23.2714 30.3978 23.2152 30.4033 23.1602C30.405 23.1298 30.3898 23.1022 30.3601 23.0951C30.336 23.0885 30.2981 23.0996 30.2882 23.1287C30.2252 23.3428 30.107 23.5345 29.9452 23.6833C29.9526 23.6147 29.9681 23.5499 29.9974 23.4845C30.0189 23.4346 29.9531 23.3716 29.908 23.4122C29.6809 23.6239 29.3979 23.7628 29.0924 23.8116C29.107 23.7886 29.1215 23.7655 29.1366 23.74C29.1663 23.6914 29.1281 23.6298 29.0696 23.6487C28.932 23.6923 28.7868 23.7122 28.6399 23.7069C28.6813 23.6544 28.7177 23.5984 28.7439 23.5353C28.761 23.4959 28.7276 23.4405 28.6814 23.4504C28.4516 23.4966 28.2118 23.4605 28.0052 23.351C28.0248 23.3511 28.0415 23.3508 28.0611 23.351C28.1169 23.3511 28.1288 23.2718 28.0917 23.2411C27.9392 23.1063 27.8252 22.9381 27.7531 22.7511C27.8097 22.7822 27.8665 22.8131 27.9203 22.8435C27.9436 22.8555 27.9757 22.8463 27.9925 22.8265C28.0099 22.8041 28.0087 22.7758 27.9955 22.7515C27.8766 22.5435 27.8099 22.3015 27.8045 22.0603C27.8231 22.0855 27.8417 22.1107 27.8566 22.1409C27.8719 22.1683 27.8998 22.1866 27.9314 22.1801C27.9603 22.1734 27.9844 22.1435 27.978 22.1117C27.9486 21.9565 27.9413 21.8017 27.9566 21.6447C27.9646 21.6655 27.9731 21.6834 27.9811 21.7043C28.0094 21.7756 28.1167 21.7471 28.1089 21.6706C28.0972 21.5626 28.1111 21.4529 28.1486 21.3523C28.1571 21.4067 28.1688 21.4588 28.1799 21.5136C28.1787 21.5218 28.1752 21.5268 28.174 21.535C28.161 21.5834 28.2294 21.6105 28.2589 21.5813C28.2846 21.5768 28.3047 21.5548 28.2957 21.5227C28.2938 21.5168 28.2945 21.5114 28.2925 21.5055C28.3439 21.3874 28.4189 21.2787 28.511 21.1864C28.5108 21.206 28.5191 21.2239 28.537 21.235C28.5625 21.2501 28.5938 21.2464 28.6142 21.2216C28.717 21.0945 28.8644 21.0051 29.0231 20.9508C29.0228 20.9536 29.02 20.9532 29.0195 20.9558C28.9717 20.9961 29.0111 21.0664 29.0721 21.0504C29.2648 20.993 29.4795 20.9919 29.6792 21.036C29.6497 21.0652 29.6582 21.1195 29.709 21.1327C29.9721 21.2004 30.2217 21.3192 30.4429 21.4784C30.4123 21.4961 30.3948 21.5383 30.421 21.5673C30.5094 21.6645 30.5886 21.7687 30.6549 21.882C30.6347 21.868 30.6146 21.8537 30.5941 21.8421C30.5712 21.8275 30.5439 21.8234 30.5193 21.8393C30.5005 21.8532 30.487 21.8874 30.5 21.9117C30.624 22.1428 30.6799 22.4001 30.6655 22.6605C30.6434 22.6041 30.6191 22.5614 30.5981 22.5162Z" fill="black"/>
</g>
</g>
</g>
</g>
</svg>
